%TF.GenerationSoftware,KiCad,Pcbnew,9.0.7*%
%TF.CreationDate,2026-03-09T17:48:55+01:00*%
%TF.ProjectId,chris,63687269-732e-46b6-9963-61645f706362,rev?*%
%TF.SameCoordinates,Original*%
%TF.FileFunction,Paste,Top*%
%TF.FilePolarity,Positive*%
%FSLAX46Y46*%
G04 Gerber Fmt 4.6, Leading zero omitted, Abs format (unit mm)*
G04 Created by KiCad (PCBNEW 9.0.7) date 2026-03-09 17:48:55*
%MOMM*%
%LPD*%
G01*
G04 APERTURE LIST*
G04 Aperture macros list*
%AMRoundRect*
0 Rectangle with rounded corners*
0 $1 Rounding radius*
0 $2 $3 $4 $5 $6 $7 $8 $9 X,Y pos of 4 corners*
0 Add a 4 corners polygon primitive as box body*
4,1,4,$2,$3,$4,$5,$6,$7,$8,$9,$2,$3,0*
0 Add four circle primitives for the rounded corners*
1,1,$1+$1,$2,$3*
1,1,$1+$1,$4,$5*
1,1,$1+$1,$6,$7*
1,1,$1+$1,$8,$9*
0 Add four rect primitives between the rounded corners*
20,1,$1+$1,$2,$3,$4,$5,0*
20,1,$1+$1,$4,$5,$6,$7,0*
20,1,$1+$1,$6,$7,$8,$9,0*
20,1,$1+$1,$8,$9,$2,$3,0*%
G04 Aperture macros list end*
%ADD10RoundRect,0.250000X-0.250000X-0.475000X0.250000X-0.475000X0.250000X0.475000X-0.250000X0.475000X0*%
%ADD11RoundRect,0.200000X0.200000X0.275000X-0.200000X0.275000X-0.200000X-0.275000X0.200000X-0.275000X0*%
%ADD12RoundRect,0.200000X-0.200000X-0.275000X0.200000X-0.275000X0.200000X0.275000X-0.200000X0.275000X0*%
%ADD13R,1.700000X1.600000*%
%ADD14RoundRect,0.225000X-0.225000X-0.250000X0.225000X-0.250000X0.225000X0.250000X-0.225000X0.250000X0*%
%ADD15RoundRect,0.200000X0.275000X-0.200000X0.275000X0.200000X-0.275000X0.200000X-0.275000X-0.200000X0*%
%ADD16R,5.700000X1.700000*%
%ADD17RoundRect,0.200000X-0.275000X0.200000X-0.275000X-0.200000X0.275000X-0.200000X0.275000X0.200000X0*%
%ADD18R,5.720000X2.200000*%
%ADD19RoundRect,0.225000X0.250000X-0.225000X0.250000X0.225000X-0.250000X0.225000X-0.250000X-0.225000X0*%
%ADD20R,1.070000X0.530000*%
%ADD21RoundRect,0.225000X0.225000X0.250000X-0.225000X0.250000X-0.225000X-0.250000X0.225000X-0.250000X0*%
%ADD22R,2.800000X1.300000*%
%ADD23R,6.500000X6.000000*%
%ADD24R,1.250000X0.700000*%
%ADD25R,1.230000X1.860000*%
%ADD26RoundRect,0.225000X-0.250000X0.225000X-0.250000X-0.225000X0.250000X-0.225000X0.250000X0.225000X0*%
%ADD27R,2.050000X1.620000*%
%ADD28RoundRect,0.062000X0.093000X-0.463000X0.093000X0.463000X-0.093000X0.463000X-0.093000X-0.463000X0*%
%ADD29RoundRect,0.060000X0.347500X-0.090000X0.347500X0.090000X-0.347500X0.090000X-0.347500X-0.090000X0*%
%ADD30R,0.200000X0.600000*%
%ADD31R,0.600000X0.200000*%
%ADD32RoundRect,0.060000X-0.347500X0.090000X-0.347500X-0.090000X0.347500X-0.090000X0.347500X0.090000X0*%
%ADD33RoundRect,0.062000X-0.093000X0.463000X-0.093000X-0.463000X0.093000X-0.463000X0.093000X0.463000X0*%
%ADD34R,0.200000X0.700000*%
%ADD35R,0.200000X0.650000*%
%ADD36R,0.200000X0.680000*%
%ADD37R,1.000000X0.220000*%
%ADD38R,0.950000X0.220000*%
%ADD39R,1.000000X2.000000*%
%ADD40R,0.700000X0.700000*%
%ADD41R,1.100000X0.550000*%
%ADD42R,1.100000X0.300000*%
%ADD43R,0.530000X1.070000*%
G04 APERTURE END LIST*
D10*
%TO.C,C5*%
X164620000Y-62630000D03*
X166520000Y-62630000D03*
%TD*%
D11*
%TO.C,R4*%
X162775000Y-75270000D03*
X161125000Y-75270000D03*
%TD*%
D12*
%TO.C,R1*%
X176025000Y-92510000D03*
X177675000Y-92510000D03*
%TD*%
D13*
%TO.C,D5*%
X149500000Y-58840000D03*
X149500000Y-62760000D03*
%TD*%
D12*
%TO.C,R25*%
X191175000Y-110900000D03*
X192825000Y-110900000D03*
%TD*%
D14*
%TO.C,C22*%
X181815000Y-99440000D03*
X183365000Y-99440000D03*
%TD*%
D15*
%TO.C,R14*%
X187940000Y-90975000D03*
X187940000Y-89325000D03*
%TD*%
D16*
%TO.C,L1*%
X170540000Y-67020000D03*
X170540000Y-62520000D03*
%TD*%
D12*
%TO.C,R24*%
X193050000Y-100390000D03*
X194700000Y-100390000D03*
%TD*%
D14*
%TO.C,C18*%
X181820000Y-100950000D03*
X183370000Y-100950000D03*
%TD*%
D17*
%TO.C,R10*%
X186080000Y-82075000D03*
X186080000Y-83725000D03*
%TD*%
D12*
%TO.C,R15*%
X193050000Y-101910000D03*
X194700000Y-101910000D03*
%TD*%
D14*
%TO.C,C25*%
X181895000Y-115110000D03*
X183445000Y-115110000D03*
%TD*%
D15*
%TO.C,R21*%
X190450000Y-103225000D03*
X190450000Y-101575000D03*
%TD*%
D14*
%TO.C,C7*%
X188675000Y-59110000D03*
X190225000Y-59110000D03*
%TD*%
D11*
%TO.C,R2*%
X177680000Y-90980000D03*
X176030000Y-90980000D03*
%TD*%
D18*
%TO.C,U4*%
X174840000Y-111800000D03*
X174840000Y-106800000D03*
%TD*%
D14*
%TO.C,C21*%
X181820000Y-103970000D03*
X183370000Y-103970000D03*
%TD*%
%TO.C,C27*%
X181895000Y-113600000D03*
X183445000Y-113600000D03*
%TD*%
D19*
%TO.C,C10*%
X185710000Y-60175000D03*
X185710000Y-58625000D03*
%TD*%
D14*
%TO.C,C6*%
X165075000Y-73620000D03*
X166625000Y-73620000D03*
%TD*%
D19*
%TO.C,C9*%
X178860000Y-113995000D03*
X178860000Y-112445000D03*
%TD*%
D14*
%TO.C,C8*%
X188675000Y-60600000D03*
X190225000Y-60600000D03*
%TD*%
D20*
%TO.C,D6*%
X186270000Y-94000000D03*
X186270000Y-93050000D03*
X186270000Y-92100000D03*
X183970000Y-92100000D03*
X183970000Y-93050000D03*
X183970000Y-94000000D03*
%TD*%
D14*
%TO.C,C28*%
X181905000Y-110600000D03*
X183455000Y-110600000D03*
%TD*%
D21*
%TO.C,C14*%
X187585000Y-115010000D03*
X186035000Y-115010000D03*
%TD*%
D12*
%TO.C,R3*%
X161120000Y-73740000D03*
X162770000Y-73740000D03*
%TD*%
D22*
%TO.C,Q1*%
X161955000Y-71995000D03*
D23*
X155375000Y-69725000D03*
D22*
X161955000Y-67455000D03*
%TD*%
D10*
%TO.C,C4*%
X164630000Y-60650000D03*
X166530000Y-60650000D03*
%TD*%
D12*
%TO.C,R28*%
X161755000Y-119600000D03*
X163405000Y-119600000D03*
%TD*%
%TO.C,R6*%
X155940000Y-62495000D03*
X157590000Y-62495000D03*
%TD*%
D24*
%TO.C,Q3*%
X154175000Y-62275000D03*
X154175000Y-60375000D03*
X152175000Y-61325000D03*
%TD*%
D17*
%TO.C,R7*%
X165075000Y-70495000D03*
X165075000Y-72145000D03*
%TD*%
D15*
%TO.C,R11*%
X179730000Y-60560000D03*
X179730000Y-58910000D03*
%TD*%
D25*
%TO.C,S2*%
X190460000Y-85990000D03*
X194820000Y-85990000D03*
%TD*%
D21*
%TO.C,C16*%
X187595000Y-118020000D03*
X186045000Y-118020000D03*
%TD*%
D26*
%TO.C,C11*%
X187210000Y-58625000D03*
X187210000Y-60175000D03*
%TD*%
D21*
%TO.C,C23*%
X187915000Y-103390000D03*
X186365000Y-103390000D03*
%TD*%
D27*
%TO.C,D1*%
X163920000Y-115050000D03*
X159120000Y-115070000D03*
%TD*%
D14*
%TO.C,C20*%
X181820000Y-105480000D03*
X183370000Y-105480000D03*
%TD*%
D15*
%TO.C,R12*%
X178220000Y-60555000D03*
X178220000Y-58905000D03*
%TD*%
D21*
%TO.C,C24*%
X187915000Y-101870000D03*
X186365000Y-101870000D03*
%TD*%
D28*
%TO.C,U3*%
X185300000Y-110490000D03*
D29*
X185040000Y-110110000D03*
D30*
X185700000Y-110660000D03*
X186100000Y-110660000D03*
X186500000Y-110660000D03*
X186900000Y-110660000D03*
X187300000Y-110660000D03*
X187700000Y-110660000D03*
X188100000Y-110660000D03*
D28*
X188490000Y-110540000D03*
D29*
X188750000Y-110160000D03*
D31*
X188800000Y-109710000D03*
X188800000Y-109310000D03*
X188800000Y-108910000D03*
X188800000Y-108510000D03*
X188800000Y-108110000D03*
X188800000Y-107710000D03*
D32*
X188730000Y-107260000D03*
D33*
X188480000Y-106880000D03*
D34*
X188100000Y-106810000D03*
D35*
X187700000Y-106790000D03*
D36*
X187300000Y-106800000D03*
D30*
X186900000Y-106760000D03*
X186500000Y-106760000D03*
X186100000Y-106760000D03*
X185700000Y-106760000D03*
D32*
X185040000Y-107320000D03*
D33*
X185300000Y-106940000D03*
D37*
X185200000Y-107810000D03*
X185200000Y-108260000D03*
X185200000Y-108710000D03*
X185200000Y-109160000D03*
D38*
X185170000Y-109610000D03*
%TD*%
D12*
%TO.C,R9*%
X168055000Y-75120000D03*
X169705000Y-75120000D03*
%TD*%
%TO.C,R18*%
X190050000Y-106230000D03*
X191700000Y-106230000D03*
%TD*%
%TO.C,R22*%
X191175000Y-107920000D03*
X192825000Y-107920000D03*
%TD*%
D17*
%TO.C,R13*%
X184220000Y-58575000D03*
X184220000Y-60225000D03*
%TD*%
D21*
%TO.C,C1*%
X166535000Y-67430000D03*
X164985000Y-67430000D03*
%TD*%
D11*
%TO.C,R5*%
X157590000Y-64005000D03*
X155940000Y-64005000D03*
%TD*%
D24*
%TO.C,Q2*%
X174320000Y-92610000D03*
X174320000Y-90710000D03*
X172320000Y-91660000D03*
%TD*%
D17*
%TO.C,R20*%
X187940000Y-94505000D03*
X187940000Y-96155000D03*
%TD*%
D27*
%TO.C,D2*%
X163810000Y-95650000D03*
X159010000Y-95670000D03*
%TD*%
D13*
%TO.C,D3*%
X149600000Y-66440000D03*
X149600000Y-70360000D03*
%TD*%
D25*
%TO.C,S1*%
X190450000Y-82430000D03*
X194810000Y-82430000D03*
%TD*%
D26*
%TO.C,C12*%
X178880000Y-104485000D03*
X178880000Y-106035000D03*
%TD*%
D12*
%TO.C,R8*%
X165020000Y-75130000D03*
X166670000Y-75130000D03*
%TD*%
D19*
%TO.C,C29*%
X189090000Y-115010000D03*
X189090000Y-113460000D03*
%TD*%
D12*
%TO.C,R23*%
X191175000Y-109430000D03*
X192825000Y-109430000D03*
%TD*%
D21*
%TO.C,C13*%
X187585000Y-113500000D03*
X186035000Y-113500000D03*
%TD*%
D12*
%TO.C,R17*%
X193040000Y-104740000D03*
X194690000Y-104740000D03*
%TD*%
%TO.C,R19*%
X193055000Y-106230000D03*
X194705000Y-106230000D03*
%TD*%
D39*
%TO.C,U1*%
X189100000Y-62650000D03*
X187600000Y-62650000D03*
X186100000Y-62650000D03*
X184600000Y-62650000D03*
X183100000Y-62650000D03*
X181600000Y-62650000D03*
X180100000Y-62650000D03*
X178600000Y-62650000D03*
X177100000Y-62650000D03*
X177100000Y-80150000D03*
X178600000Y-80150000D03*
X180100000Y-80150000D03*
X181600000Y-80150000D03*
X183100000Y-80150000D03*
X184600000Y-80150000D03*
X186100000Y-80150000D03*
X187600000Y-80150000D03*
X189100000Y-80150000D03*
D40*
X184000000Y-71260000D03*
X182900000Y-71260000D03*
X181800000Y-71260000D03*
X184000000Y-72360000D03*
X182900000Y-72360000D03*
X181800000Y-72360000D03*
X184000000Y-73460000D03*
X182900000Y-73460000D03*
X181800000Y-73460000D03*
%TD*%
D13*
%TO.C,D4*%
X149550000Y-76230000D03*
X149550000Y-80150000D03*
%TD*%
D19*
%TO.C,C30*%
X184870000Y-104585000D03*
X184870000Y-103035000D03*
%TD*%
D14*
%TO.C,C26*%
X181895000Y-112090000D03*
X183445000Y-112090000D03*
%TD*%
D41*
%TO.C,J3*%
X189567500Y-96180000D03*
X189567500Y-95380000D03*
D42*
X189567500Y-94730000D03*
X189567500Y-94230000D03*
X189567500Y-93730000D03*
X189567500Y-93230000D03*
X189567500Y-92730000D03*
X189567500Y-92230000D03*
X189567500Y-91730000D03*
X189567500Y-91230000D03*
D41*
X189567500Y-90580000D03*
X189567500Y-89780000D03*
%TD*%
D14*
%TO.C,C19*%
X181815000Y-102460000D03*
X183365000Y-102460000D03*
%TD*%
D21*
%TO.C,C15*%
X187590000Y-116510000D03*
X186040000Y-116510000D03*
%TD*%
D14*
%TO.C,C17*%
X181820000Y-107000000D03*
X183370000Y-107000000D03*
%TD*%
D43*
%TO.C,U2*%
X168885000Y-68990000D03*
X167935000Y-68990000D03*
X166985000Y-68990000D03*
X166985000Y-71290000D03*
X167935000Y-71290000D03*
X168885000Y-71290000D03*
%TD*%
D12*
%TO.C,R16*%
X190050000Y-104750000D03*
X191700000Y-104750000D03*
%TD*%
D15*
%TO.C,R26*%
X148800000Y-92425000D03*
X148800000Y-90775000D03*
%TD*%
D21*
%TO.C,C2*%
X166535000Y-65950000D03*
X164985000Y-65950000D03*
%TD*%
D12*
%TO.C,R27*%
X173140000Y-58660000D03*
X174790000Y-58660000D03*
%TD*%
D19*
%TO.C,C3*%
X170795000Y-70775000D03*
X170795000Y-69225000D03*
%TD*%
M02*
