M48
; DRILL file {KiCad 9.0.7} date 2026-03-09T17:49:51+0100
; FORMAT={-:-/ absolute / metric / decimal}
; #@! TF.CreationDate,2026-03-09T17:49:51+01:00
; #@! TF.GenerationSoftware,Kicad,Pcbnew,9.0.7
; #@! TF.FileFunction,Plated,1,6,PTH
FMAT,2
METRIC
; #@! TA.AperFunction,Plated,PTH,ViaDrill
T1C0.300
; #@! TA.AperFunction,Plated,PTH,ComponentDrill
T2C0.600
; #@! TA.AperFunction,Plated,PTH,ComponentDrill
T3C0.700
; #@! TA.AperFunction,Plated,PTH,ComponentDrill
T4C0.950
; #@! TA.AperFunction,Plated,PTH,ComponentDrill
T5C1.000
; #@! TA.AperFunction,Plated,PTH,ComponentDrill
T6C1.400
; #@! TA.AperFunction,Plated,PTH,ComponentDrill
T7C1.400
; #@! TA.AperFunction,Plated,PTH,ComponentDrill
T8C3.200
%
G90
G05
T1
X134.36Y-76.4
X134.38Y-75.59
X134.39Y-74.14
X134.39Y-74.84
X134.4Y-73.28
X134.41Y-70.2
X134.42Y-72.47
X134.43Y-69.39
X134.43Y-71.02
X134.43Y-71.72
X134.44Y-67.94
X134.44Y-68.64
X134.48Y-67.07
X134.5Y-66.26
X134.51Y-64.81
X134.51Y-65.51
X134.53Y-63.88
X134.55Y-63.07
X134.56Y-61.62
X134.56Y-62.32
X134.58Y-60.68
X134.6Y-59.87
X134.61Y-58.42
X134.61Y-59.12
X134.66Y-57.58
X134.68Y-56.77
X134.69Y-54.56
X134.69Y-55.32
X134.69Y-56.02
X148.53Y-76.51
X148.55Y-75.7
X148.56Y-74.25
X148.56Y-74.95
X148.8Y-90.775
X148.8Y-92.425
X148.832Y-92.405
X149.03Y-80.62
X149.06Y-79.69
X149.36Y-76.53
X149.38Y-75.72
X149.39Y-74.27
X149.39Y-74.97
X150.06Y-80.61
X150.07Y-79.67
X150.16Y-76.52
X150.18Y-75.71
X150.19Y-74.26
X150.19Y-74.96
X154.175Y-60.375
X157.59Y-62.495
X157.59Y-64.005
X158.49Y-115.45
X158.52Y-114.65
X159.0Y-95.7
X159.17Y-115.45
X159.2Y-114.65
X159.45Y-76.92
X159.47Y-72.68
X159.48Y-75.6
X159.5Y-74.25
X159.51Y-67.48
X159.51Y-71.46
X159.57Y-68.86
X159.59Y-70.2
X159.82Y-115.43
X159.85Y-114.63
X160.09Y-58.74
X160.09Y-60.72
X160.11Y-65.28
X160.13Y-62.68
X160.9Y-67.2
X160.9Y-67.8
X161.46Y-76.92
X161.6Y-67.2
X161.6Y-67.8
X162.19Y-58.72
X162.3Y-67.2
X162.3Y-67.8
X162.77Y-73.74
X162.775Y-75.27
X163.0Y-67.2
X163.0Y-67.8
X163.26Y-76.92
X163.405Y-119.6
X164.47Y-58.78
X164.6Y-60.97
X164.6Y-62.94
X164.61Y-60.28
X164.61Y-62.24
X164.985Y-65.95
X164.985Y-67.43
X165.075Y-70.495
X165.38Y-76.92
X166.16Y-65.57
X166.17Y-66.34
X166.56Y-60.33
X166.81Y-58.74
X166.89Y-65.55
X166.91Y-66.34
X167.4Y-60.34
X167.935Y-71.29
X168.21Y-60.33
X168.9Y-68.6
X168.9Y-69.2
X169.07Y-58.78
X169.13Y-60.31
X169.45Y-76.77
X169.7Y-75.1
X170.02Y-60.31
X170.92Y-60.31
X171.15Y-58.72
X171.25Y-72.6
X171.25Y-74.18
X171.45Y-76.75
X171.76Y-94.29
X171.85Y-89.38
X171.91Y-60.33
X172.32Y-91.66
X172.43Y-71.32
X172.448Y-69.566
X173.06Y-94.29
X173.14Y-58.66
X173.33Y-89.38
X174.32Y-90.71
X174.52Y-94.34
X174.79Y-58.66
X175.06Y-89.35
X176.01Y-94.41
X176.74Y-89.32
X177.09Y-68.0
X177.11Y-61.98
X177.11Y-62.69
X177.11Y-63.33
X177.123Y-64.998
X177.14Y-72.9
X177.14Y-74.67
X177.14Y-78.02
X177.16Y-76.4
X177.17Y-71.23
X177.19Y-66.28
X177.35Y-94.32
X177.675Y-92.51
X177.68Y-90.98
X178.0Y-106.5
X178.0Y-112.0
X178.22Y-58.905
X178.5Y-107.0
X178.5Y-111.5
X178.6Y-62.65
X178.6Y-80.15
X178.71Y-72.9
X178.71Y-77.98
X178.76Y-74.63
X178.77Y-76.38
X178.86Y-113.995
X178.88Y-104.485
X179.0Y-107.5
X179.0Y-111.0
X179.14Y-64.97
X179.14Y-66.17
X179.23Y-94.29
X179.27Y-92.97
X179.32Y-91.56
X179.39Y-90.09
X179.44Y-69.7
X180.1Y-80.2
X180.12Y-76.47
X180.14Y-74.72
X180.14Y-78.0
X181.3Y-108.3
X181.3Y-109.1
X181.49Y-69.0
X181.54Y-67.37
X181.6Y-62.65
X181.6Y-80.15
X181.61Y-76.38
X181.64Y-77.93
X181.8Y-71.26
X181.8Y-72.36
X181.8Y-73.46
X181.815Y-99.44
X181.82Y-100.95
X181.82Y-103.97
X181.82Y-105.48
X181.82Y-107.0
X181.895Y-112.09
X181.895Y-113.6
X181.895Y-115.11
X181.9Y-108.3
X181.9Y-109.1
X181.905Y-110.6
X182.5Y-108.3
X182.5Y-109.1
X182.83Y-116.42
X182.9Y-71.26
X182.9Y-72.36
X182.9Y-73.46
X183.0Y-99.07
X183.0Y-99.74
X183.01Y-100.44
X183.1Y-62.65
X183.1Y-80.15
X183.19Y-77.95
X183.29Y-69.03
X183.54Y-65.22
X183.67Y-99.09
X183.67Y-99.76
X183.68Y-100.46
X183.97Y-93.05
X184.0Y-71.26
X184.0Y-72.36
X184.0Y-73.46
X184.21Y-75.07
X184.4Y-58.575
X184.6Y-62.65
X184.6Y-80.15
X184.85Y-111.54
X184.87Y-103.035
X184.97Y-66.73
X185.02Y-118.47
X185.03Y-117.16
X185.03Y-117.82
X185.61Y-76.32
X185.64Y-72.62
X185.72Y-118.46
X185.73Y-58.58
X185.73Y-117.15
X185.73Y-117.81
X185.81Y-74.38
X185.94Y-101.72
X185.94Y-102.33
X185.94Y-102.97
X186.08Y-83.725
X186.1Y-62.65
X186.1Y-82.055
X186.27Y-68.1
X186.27Y-93.05
X186.27Y-94.0
X186.3Y-92.1
X186.36Y-109.07
X186.42Y-118.46
X186.43Y-117.15
X186.43Y-117.81
X186.49Y-71.72
X186.494Y-107.464
X186.5Y-101.7
X186.5Y-102.31
X186.5Y-102.95
X186.79Y-64.82
X186.811Y-106.091
X186.9Y-111.5
X186.923Y-109.944
X186.97Y-77.73
X187.07Y-75.78
X187.16Y-73.32
X187.21Y-58.625
X187.271Y-105.632
X187.36Y-107.74
X187.51Y-69.5
X187.51Y-108.44
X187.585Y-113.5
X187.585Y-115.01
X187.59Y-116.51
X187.595Y-118.02
X187.6Y-62.1
X187.6Y-80.15
X187.911Y-105.747
X187.915Y-101.87
X187.915Y-103.39
X187.94Y-89.325
X187.94Y-96.155
X188.17Y-66.43
X188.614Y-105.929
X188.675Y-59.11
X188.675Y-60.6
X188.73Y-107.11
X188.8Y-109.51
X189.09Y-113.46
X189.09Y-115.01
X189.1Y-80.15
X189.12Y-96.18
X189.22Y-89.69
X189.567Y-90.58
X189.567Y-95.38
X189.799Y-110.299
X189.82Y-96.18
X189.85Y-89.71
X190.05Y-106.23
X190.225Y-59.11
X190.225Y-60.6
X190.4Y-93.2
X190.45Y-82.43
X190.45Y-101.575
X190.45Y-103.225
X190.5Y-85.4
X190.913Y-92.687
X190.913Y-93.713
X191.0Y-91.5
X191.137Y-110.862
X191.175Y-107.92
X191.175Y-109.5
X191.7Y-104.75
X191.7Y-106.23
X192.825Y-107.92
X192.825Y-109.43
X192.825Y-110.9
X193.05Y-100.39
X193.05Y-101.91
X194.69Y-104.74
X194.7Y-100.39
X194.7Y-101.91
X194.705Y-106.23
X194.83Y-81.9
X194.83Y-82.82
X194.84Y-86.4
X194.85Y-85.52
T3
X190.647Y-90.09
X190.647Y-95.87
T4
X169.98Y-54.96
X172.48Y-54.96
X174.98Y-54.96
X181.19Y-54.97
X183.69Y-54.97
X186.19Y-54.97
T5
X161.07Y-54.96
X161.765Y-122.2
X163.57Y-54.96
X164.305Y-122.2
X169.24Y-120.005
X171.74Y-120.005
T6
X153.06Y-85.99
X154.73Y-99.4
X154.73Y-111.4
X155.06Y-79.99
X155.06Y-91.99
X166.93Y-99.4
X166.93Y-111.4
X167.26Y-79.99
X167.26Y-91.99
X168.93Y-105.4
T7
X138.44Y-55.26
X138.44Y-60.34
X138.44Y-65.42
X138.44Y-70.5
X138.44Y-75.58
X138.44Y-80.66
X138.44Y-85.74
X138.44Y-90.82
X138.47Y-98.93
X138.47Y-104.01
X138.52Y-112.17
X138.52Y-117.25
X146.06Y-55.26
X146.06Y-60.34
X146.06Y-65.42
X146.06Y-70.5
X146.06Y-75.58
X146.06Y-80.66
X146.06Y-85.74
X146.06Y-90.82
X146.09Y-98.93
X146.09Y-104.01
X146.14Y-112.17
X146.14Y-117.25
T8
X153.0Y-118.0
X153.15Y-55.53
X192.32Y-55.51
X192.43Y-118.0
T2
X189.667Y-88.66G85X190.568Y-88.66
G05
X189.668Y-97.3G85X190.567Y-97.3
G05
X194.028Y-88.66G85X194.627Y-88.66
G05
X194.028Y-97.3G85X194.627Y-97.3
G05
M30
