%TF.GenerationSoftware,KiCad,Pcbnew,9.0.7*%
%TF.CreationDate,2026-03-09T17:48:55+01:00*%
%TF.ProjectId,chris,63687269-732e-46b6-9963-61645f706362,rev?*%
%TF.SameCoordinates,Original*%
%TF.FileFunction,Copper,L6,Bot*%
%TF.FilePolarity,Positive*%
%FSLAX46Y46*%
G04 Gerber Fmt 4.6, Leading zero omitted, Abs format (unit mm)*
G04 Created by KiCad (PCBNEW 9.0.7) date 2026-03-09 17:48:55*
%MOMM*%
%LPD*%
G01*
G04 APERTURE LIST*
G04 Aperture macros list*
%AMRoundRect*
0 Rectangle with rounded corners*
0 $1 Rounding radius*
0 $2 $3 $4 $5 $6 $7 $8 $9 X,Y pos of 4 corners*
0 Add a 4 corners polygon primitive as box body*
4,1,4,$2,$3,$4,$5,$6,$7,$8,$9,$2,$3,0*
0 Add four circle primitives for the rounded corners*
1,1,$1+$1,$2,$3*
1,1,$1+$1,$4,$5*
1,1,$1+$1,$6,$7*
1,1,$1+$1,$8,$9*
0 Add four rect primitives between the rounded corners*
20,1,$1+$1,$2,$3,$4,$5,0*
20,1,$1+$1,$4,$5,$6,$7,0*
20,1,$1+$1,$6,$7,$8,$9,0*
20,1,$1+$1,$8,$9,$2,$3,0*%
G04 Aperture macros list end*
%TA.AperFunction,ComponentPad*%
%ADD10C,2.560000*%
%TD*%
%TA.AperFunction,ComponentPad*%
%ADD11R,1.700000X1.700000*%
%TD*%
%TA.AperFunction,ComponentPad*%
%ADD12C,1.700000*%
%TD*%
%TA.AperFunction,ComponentPad*%
%ADD13C,2.100000*%
%TD*%
%TA.AperFunction,ComponentPad*%
%ADD14C,5.600000*%
%TD*%
%TA.AperFunction,ComponentPad*%
%ADD15RoundRect,0.250000X0.600000X0.725000X-0.600000X0.725000X-0.600000X-0.725000X0.600000X-0.725000X0*%
%TD*%
%TA.AperFunction,ComponentPad*%
%ADD16O,1.700000X1.950000*%
%TD*%
%TA.AperFunction,ComponentPad*%
%ADD17RoundRect,0.250000X0.600000X0.750000X-0.600000X0.750000X-0.600000X-0.750000X0.600000X-0.750000X0*%
%TD*%
%TA.AperFunction,ComponentPad*%
%ADD18O,1.700000X2.000000*%
%TD*%
%TA.AperFunction,ComponentPad*%
%ADD19RoundRect,0.250000X-0.600000X-0.750000X0.600000X-0.750000X0.600000X0.750000X-0.600000X0.750000X0*%
%TD*%
%TA.AperFunction,ComponentPad*%
%ADD20C,0.700000*%
%TD*%
%TA.AperFunction,ComponentPad*%
%ADD21O,2.000000X1.100000*%
%TD*%
%TA.AperFunction,ComponentPad*%
%ADD22O,1.800000X1.200000*%
%TD*%
%TA.AperFunction,ViaPad*%
%ADD23C,0.600000*%
%TD*%
%TA.AperFunction,ViaPad*%
%ADD24C,0.450000*%
%TD*%
%TA.AperFunction,Conductor*%
%ADD25C,0.200000*%
%TD*%
%TA.AperFunction,Conductor*%
%ADD26C,1.500000*%
%TD*%
%TA.AperFunction,Conductor*%
%ADD27C,0.600000*%
%TD*%
%TA.AperFunction,Conductor*%
%ADD28C,0.127000*%
%TD*%
G04 APERTURE END LIST*
D10*
%TO.P,J7,1,Pin_1*%
%TO.N,/HEATER_THERMISTOR*%
X146060000Y-90820000D03*
X138440000Y-90820000D03*
%TO.P,J7,2,Pin_2*%
%TO.N,+3.3V*%
X146060000Y-85740000D03*
X138440000Y-85740000D03*
%TO.P,J7,3,Pin_3*%
%TO.N,GND*%
X146060000Y-80660000D03*
X138440000Y-80660000D03*
%TO.P,J7,4,Pin_4*%
%TO.N,/V_SYSTEM*%
X146060000Y-75580000D03*
X138440000Y-75580000D03*
%TO.P,J7,5,Pin_5*%
%TO.N,/HEATER_OUT*%
X146060000Y-70500000D03*
X138440000Y-70500000D03*
%TO.P,J7,6,Pin_6*%
%TO.N,/V_SYSTEM*%
X146060000Y-65420000D03*
X138440000Y-65420000D03*
%TO.P,J7,7,Pin_7*%
%TO.N,/FAN_OUT*%
X146060000Y-60340000D03*
X138440000Y-60340000D03*
%TO.P,J7,8,Pin_8*%
%TO.N,/V_SYSTEM*%
X146060000Y-55260000D03*
X138440000Y-55260000D03*
%TD*%
D11*
%TO.P,J9,1,Pin_1*%
%TO.N,Net-(J9-Pin_1)*%
X161765000Y-122200000D03*
D12*
%TO.P,J9,2,Pin_2*%
%TO.N,/BQ_STAT*%
X164305000Y-122200000D03*
%TD*%
D13*
%TO.P,K2,1,1*%
%TO.N,unconnected-(K2-Pad1)*%
X167260000Y-79990000D03*
%TO.P,K2,2,2*%
%TO.N,/V_SYSTEM_TOGGLE*%
X167260000Y-91990000D03*
%TO.P,K2,3,3*%
X155060000Y-79990000D03*
%TO.P,K2,4,4*%
%TO.N,Net-(D2-A)*%
X155060000Y-91990000D03*
%TO.P,K2,5,5*%
%TO.N,/V_SYSTEM*%
X153060000Y-85990000D03*
%TD*%
D14*
%TO.P,H2,1*%
%TO.N,N/C*%
X192430000Y-118000000D03*
%TD*%
D10*
%TO.P,J1,1,Pin_1*%
%TO.N,GND*%
X146140000Y-117250000D03*
X138520000Y-117250000D03*
%TO.P,J1,2,Pin_2*%
%TO.N,VBAT*%
X146140000Y-112170000D03*
X138520000Y-112170000D03*
%TD*%
D15*
%TO.P,J6,1,Pin_1*%
%TO.N,+3.3V*%
X174980000Y-54960000D03*
D16*
%TO.P,J6,2,Pin_2*%
%TO.N,/FAN_POTI*%
X172480000Y-54960000D03*
%TO.P,J6,3,Pin_3*%
%TO.N,GND*%
X169980000Y-54960000D03*
%TD*%
D14*
%TO.P,H3,1*%
%TO.N,N/C*%
X192320000Y-55510000D03*
%TD*%
D17*
%TO.P,J2,1,Pin_1*%
%TO.N,GND*%
X163570000Y-54960000D03*
D18*
%TO.P,J2,2,Pin_2*%
%TO.N,/TPS_EN*%
X161070000Y-54960000D03*
%TD*%
D10*
%TO.P,J8,1,Pin_1*%
%TO.N,GND*%
X146090000Y-104010000D03*
X138470000Y-104010000D03*
%TO.P,J8,2,Pin_2*%
%TO.N,VIN*%
X146090000Y-98930000D03*
X138470000Y-98930000D03*
%TD*%
D13*
%TO.P,K1,1,1*%
%TO.N,VBAT*%
X154730000Y-111400000D03*
%TO.P,K1,2,2*%
%TO.N,VIN*%
X154730000Y-99400000D03*
%TO.P,K1,3,3*%
X166930000Y-111400000D03*
%TO.P,K1,4,4*%
%TO.N,GND*%
X166930000Y-99400000D03*
%TO.P,K1,5,5*%
%TO.N,/V_SYSTEM_TOGGLE*%
X168930000Y-105400000D03*
%TD*%
D14*
%TO.P,H4,1*%
%TO.N,N/C*%
X153000000Y-118000000D03*
%TD*%
D19*
%TO.P,J4,1,Pin_1*%
%TO.N,GND*%
X169240000Y-120005000D03*
D18*
%TO.P,J4,2,Pin_2*%
%TO.N,/BQ_TS*%
X171740000Y-120005000D03*
%TD*%
D15*
%TO.P,J5,1,Pin_1*%
%TO.N,+3.3V*%
X186190000Y-54970000D03*
D16*
%TO.P,J5,2,Pin_2*%
%TO.N,/HEATER_POTI*%
X183690000Y-54970000D03*
%TO.P,J5,3,Pin_3*%
%TO.N,GND*%
X181190000Y-54970000D03*
%TD*%
D20*
%TO.P,J3,*%
%TO.N,*%
X190647500Y-95870000D03*
X190647500Y-90090000D03*
D21*
%TO.P,J3,13,SHELL*%
%TO.N,GND*%
X190117500Y-97300000D03*
D22*
X194327500Y-97300000D03*
D21*
%TO.P,J3,14,SHELL*%
X190117500Y-88660000D03*
D22*
X194327500Y-88660000D03*
%TD*%
D14*
%TO.P,H1,1*%
%TO.N,N/C*%
X153150000Y-55530000D03*
%TD*%
D23*
%TO.N,GND*%
X174520000Y-94340000D03*
X179320000Y-91560000D03*
X163000000Y-67800000D03*
X157590000Y-62495000D03*
X171450000Y-76750000D03*
X177123028Y-64998481D03*
X187915000Y-103390000D03*
X181895000Y-112090000D03*
X179230000Y-94290000D03*
X164985000Y-67430000D03*
X162770000Y-73740000D03*
X189820000Y-96180000D03*
X150060000Y-80610000D03*
X181820000Y-100950000D03*
X177350000Y-94320000D03*
X187510000Y-108440000D03*
X177140000Y-78020000D03*
X194840000Y-86400000D03*
X187585000Y-113500000D03*
X181800000Y-71260000D03*
X181540000Y-67370000D03*
X187510000Y-69500000D03*
X177190000Y-66280000D03*
X173060000Y-94290000D03*
X183290000Y-69030000D03*
X162190000Y-58720000D03*
X177675000Y-92510000D03*
X186790000Y-64820000D03*
X171850000Y-89380000D03*
X159200000Y-114650000D03*
X177110000Y-63330000D03*
X159570000Y-68860000D03*
X181640000Y-77930000D03*
X161460000Y-76920000D03*
X185610000Y-76320000D03*
X180120000Y-76470000D03*
X194830000Y-81900000D03*
X187940000Y-96155000D03*
X179390000Y-90090000D03*
X164610000Y-62240000D03*
X177170000Y-71230000D03*
X158520000Y-114650000D03*
X194705000Y-106230000D03*
X162300000Y-67200000D03*
X159480000Y-75600000D03*
X168900000Y-69200000D03*
X177140000Y-74670000D03*
X178710000Y-72900000D03*
X159850000Y-114630000D03*
X171760000Y-94290000D03*
X181800000Y-72360000D03*
X178710000Y-77980000D03*
X181820000Y-103970000D03*
X175060000Y-89350000D03*
X164470000Y-58780000D03*
X184870000Y-103035000D03*
X166810000Y-58740000D03*
X162300000Y-67800000D03*
X184210000Y-75070000D03*
X168900000Y-68600000D03*
X187590000Y-116510000D03*
X182900000Y-71260000D03*
X181800000Y-73460000D03*
X148800000Y-92425000D03*
X186270000Y-68100000D03*
X194850000Y-85520000D03*
X183540000Y-65220000D03*
X181815000Y-99440000D03*
X189850000Y-89710000D03*
X182900000Y-72360000D03*
X184970000Y-66730000D03*
X164985000Y-65950000D03*
X177160000Y-76400000D03*
X174320000Y-90710000D03*
X181895000Y-113600000D03*
X163000000Y-67200000D03*
X164600000Y-62940000D03*
X187915000Y-101870000D03*
X180140000Y-74720000D03*
X178760000Y-74630000D03*
X181820000Y-107000000D03*
X177110000Y-61980000D03*
X190225000Y-59110000D03*
X160090000Y-60720000D03*
X181905000Y-110600000D03*
X159510000Y-67480000D03*
X161600000Y-67800000D03*
X178770000Y-76380000D03*
X194690000Y-104740000D03*
X187070000Y-75780000D03*
X160110000Y-65280000D03*
X159590000Y-70200000D03*
X160090000Y-58740000D03*
X190225000Y-60600000D03*
X185810000Y-74380000D03*
X172430000Y-71320000D03*
X189220000Y-89690000D03*
X160900000Y-67200000D03*
X149060000Y-79690000D03*
X160130000Y-62680000D03*
X181895000Y-115110000D03*
X181820000Y-105480000D03*
X187940000Y-89325000D03*
X177090000Y-68000000D03*
X164600000Y-60970000D03*
X185640000Y-72620000D03*
X171250000Y-74180000D03*
X159500000Y-74250000D03*
X173330000Y-89380000D03*
X165380000Y-76920000D03*
X150070000Y-79670000D03*
X172448011Y-69565973D03*
X186490000Y-71720000D03*
X149030000Y-80620000D03*
X154175000Y-60375000D03*
X194700000Y-101910000D03*
X159510000Y-71460000D03*
X169450000Y-76770000D03*
X177140000Y-72900000D03*
X179140000Y-64970000D03*
X159820000Y-115430000D03*
X159470000Y-72680000D03*
X159170000Y-115450000D03*
X158490000Y-115450000D03*
X185730000Y-58580000D03*
X186270000Y-93050000D03*
X179270000Y-92970000D03*
X148831936Y-92405072D03*
X171250000Y-72600000D03*
X163260000Y-76920000D03*
X186970000Y-77730000D03*
X188800000Y-109510000D03*
X186360000Y-109070000D03*
X187210000Y-58625000D03*
X164610000Y-60280000D03*
X187160000Y-73320000D03*
X179140000Y-66170000D03*
X160900000Y-67800000D03*
X161600000Y-67200000D03*
X177110000Y-62690000D03*
X182900000Y-73460000D03*
X169070000Y-58780000D03*
X188170000Y-66430000D03*
X180140000Y-78000000D03*
X176740000Y-89320000D03*
X187360000Y-107740000D03*
X179440000Y-69700000D03*
X184000000Y-73460000D03*
X189119997Y-96180000D03*
X184000000Y-72360000D03*
X181610000Y-76380000D03*
X159450000Y-76920000D03*
X184000000Y-71260000D03*
X192825000Y-110900000D03*
X169700000Y-75100000D03*
X187585000Y-115010000D03*
X171150000Y-58720000D03*
X181490000Y-69000000D03*
X187595000Y-118020000D03*
X176010000Y-94410000D03*
X183190000Y-77950000D03*
X194830000Y-82820000D03*
X189090000Y-115010000D03*
%TO.N,V_SYSTEM_DIGITAL*%
X166170000Y-66340000D03*
X183000000Y-99070000D03*
X166910000Y-66340000D03*
X166160000Y-65570000D03*
X183010000Y-100440000D03*
X166890000Y-65550000D03*
X183000000Y-99740000D03*
X183670000Y-99760000D03*
X183680000Y-100460000D03*
X183670000Y-99090000D03*
%TO.N,+3.3V*%
X168210000Y-60330000D03*
X194700000Y-100390000D03*
X166560000Y-60330000D03*
X170020000Y-60310000D03*
X165075000Y-70495000D03*
X167400000Y-60340000D03*
X188675000Y-59110000D03*
X171910000Y-60330000D03*
X186080000Y-83725000D03*
X169130000Y-60310000D03*
X192825000Y-109430000D03*
X188675000Y-60600000D03*
X174790000Y-58660000D03*
X170920000Y-60310000D03*
X192825000Y-107920000D03*
X163405000Y-119600000D03*
X178220000Y-58905000D03*
X184400000Y-58575000D03*
%TO.N,/BQ_SW1*%
X182500000Y-109100000D03*
X178000000Y-112000000D03*
X178500000Y-111500000D03*
X179000000Y-111000000D03*
X181300000Y-109100000D03*
X181900000Y-109100000D03*
%TO.N,/BQ_BTST1*%
X178860000Y-113995000D03*
X186900000Y-111500000D03*
%TO.N,/ESP_EN*%
X187600000Y-62100000D03*
X190500000Y-85400000D03*
%TO.N,/BQ_SW2*%
X179000000Y-107500000D03*
X178500000Y-107000000D03*
X181300000Y-108300000D03*
X182500000Y-108299997D03*
X181900000Y-108300000D03*
X178000000Y-106500000D03*
D24*
%TO.N,/BQ_BTST2*%
X187270884Y-105631508D03*
D23*
X178880000Y-104485000D03*
%TO.N,VIN*%
X189799470Y-110299001D03*
X186430000Y-117150000D03*
X185730000Y-117150000D03*
X185730000Y-117810000D03*
X186430000Y-117810000D03*
X185030000Y-117820000D03*
X185030000Y-117160000D03*
X185020000Y-118470000D03*
X185720000Y-118460000D03*
X186420000Y-118460000D03*
%TO.N,VBAT*%
X185940000Y-102330000D03*
X186500000Y-102310000D03*
X186500000Y-101700000D03*
X185940000Y-102970000D03*
X190450000Y-101575000D03*
X185940000Y-101720000D03*
X186500000Y-102950000D03*
%TO.N,/BQ_REGN*%
X186922924Y-109943790D03*
X190050000Y-106230000D03*
X189090000Y-113460000D03*
%TO.N,/V_SYSTEM*%
X150190000Y-74260000D03*
X134680000Y-56770000D03*
X134440000Y-67940000D03*
X134430000Y-71720000D03*
X150180000Y-75710000D03*
X134560000Y-61620000D03*
X149390000Y-74970000D03*
X149380000Y-75720000D03*
X150190000Y-74960000D03*
X134610000Y-59120000D03*
X134380000Y-75590000D03*
X148560000Y-74950000D03*
X134560000Y-62320000D03*
X134390000Y-74840000D03*
X134600000Y-59870000D03*
X134480000Y-67070000D03*
X134430000Y-71020000D03*
X150160000Y-76520000D03*
X134690000Y-56020000D03*
X134430000Y-69390000D03*
X148560000Y-74250000D03*
X134660000Y-57580000D03*
X134550000Y-63070000D03*
X148550000Y-75700000D03*
X134360000Y-76400000D03*
X134420000Y-72470000D03*
X134440000Y-68640000D03*
X134530000Y-63880000D03*
X149390000Y-74270000D03*
X134690000Y-55320000D03*
X134390000Y-74140000D03*
X134510000Y-65510000D03*
X148530000Y-76510000D03*
X134500000Y-66260000D03*
X134400000Y-73280000D03*
X149360000Y-76530000D03*
X134610000Y-58420000D03*
X134580000Y-60680000D03*
X134510000Y-64810000D03*
X134410000Y-70200000D03*
X134690000Y-54560000D03*
%TO.N,Net-(D2-A)*%
X159000000Y-95700000D03*
X172320000Y-91660000D03*
%TO.N,/HEATER_THERMISTOR*%
X148800000Y-90775000D03*
X184600000Y-80150000D03*
%TO.N,/POWER_EN*%
X178600000Y-80150000D03*
X177680000Y-90980000D03*
%TO.N,/HEATER_PWM*%
X183100000Y-62650000D03*
X162775000Y-75270000D03*
%TO.N,/FAN_PWM*%
X181600000Y-62650000D03*
X157590000Y-64005000D03*
%TO.N,/BQ_INT*%
X186100000Y-82055000D03*
X186494467Y-107464093D03*
X193050000Y-100390000D03*
%TO.N,/ESP_BOOT*%
X190450000Y-82430000D03*
X178600000Y-62650000D03*
D24*
%TO.N,/BQ_PROG*%
X186811500Y-106091364D03*
D23*
X193050000Y-101910000D03*
D24*
%TO.N,/BQ_ILIM_HIZ*%
X188613975Y-105929425D03*
D23*
X191700000Y-104750000D03*
%TO.N,/BQ_TS*%
X188730000Y-107109998D03*
X182829971Y-116419971D03*
X191700000Y-106230000D03*
%TO.N,Net-(U3-BATP)*%
X190450000Y-103225000D03*
D24*
X187910630Y-105746523D03*
D23*
%TO.N,/BQ_SDA*%
X191175000Y-107920000D03*
X186100000Y-62650000D03*
%TO.N,/BQ_SCL*%
X191175000Y-109500000D03*
X184600000Y-62650000D03*
%TO.N,/BQ_CE*%
X180100000Y-80200000D03*
X191137500Y-110862500D03*
%TO.N,/FAN_POTI*%
X187600000Y-80150000D03*
X173140000Y-58660000D03*
D24*
%TO.N,/USB_D+*%
X191000000Y-91500000D03*
D23*
X183100000Y-80150000D03*
D24*
X190400000Y-93200000D03*
D23*
X186300000Y-92100000D03*
%TO.N,/HEATER_POTI*%
X189100000Y-80150000D03*
%TO.N,/USB_D-*%
X181600000Y-80150000D03*
D24*
X190912654Y-92687346D03*
D23*
X186270000Y-94000000D03*
D24*
X190912654Y-93712654D03*
D23*
%TO.N,/BQ_STAT*%
X184850000Y-111540000D03*
%TO.N,+5V*%
X189567500Y-90580000D03*
X183970000Y-93050000D03*
X189567500Y-95380000D03*
%TO.N,/TPS_EN*%
X167935000Y-71290000D03*
%TD*%
D25*
%TO.N,/ESP_EN*%
X190500000Y-85400000D02*
X191051000Y-84849000D01*
X191051000Y-84849000D02*
X191051000Y-65551000D01*
X191051000Y-65551000D02*
X187600000Y-62100000D01*
D26*
%TO.N,VIN*%
X152800000Y-98930000D02*
X154460000Y-98930000D01*
X185030000Y-117820000D02*
X173350000Y-117820000D01*
X146090000Y-98930000D02*
X152800000Y-98930000D01*
X173350000Y-117820000D02*
X166930000Y-111400000D01*
X138470000Y-98930000D02*
X146090000Y-98930000D01*
X154260000Y-98930000D02*
X154730000Y-99400000D01*
D25*
X186420000Y-118460000D02*
X186420000Y-113678471D01*
D26*
X154460000Y-98930000D02*
X166930000Y-111400000D01*
D25*
X186420000Y-113678471D02*
X189799470Y-110299001D01*
D26*
X152800000Y-98930000D02*
X154260000Y-98930000D01*
D27*
%TO.N,VBAT*%
X156638000Y-96840000D02*
X137540000Y-96840000D01*
X185909000Y-101751000D02*
X161549000Y-101751000D01*
X161549000Y-101751000D02*
X156638000Y-96840000D01*
X185940000Y-101720000D02*
X185909000Y-101751000D01*
X136510000Y-110160000D02*
X138520000Y-112170000D01*
X137540000Y-96840000D02*
X136510000Y-97870000D01*
X136510000Y-97870000D02*
X136510000Y-110160000D01*
D26*
%TO.N,/V_SYSTEM*%
X150160000Y-76520000D02*
X153060000Y-79420000D01*
X153060000Y-79420000D02*
X153060000Y-85990000D01*
D25*
%TO.N,Net-(D2-A)*%
X172320000Y-91660000D02*
X170080000Y-93900000D01*
X170080000Y-93900000D02*
X160800000Y-93900000D01*
X160800000Y-93900000D02*
X159000000Y-95700000D01*
D28*
%TO.N,/BQ_INT*%
X186494467Y-107464093D02*
X187539635Y-106418925D01*
X187539635Y-106418925D02*
X188816733Y-106418925D01*
X192485500Y-102750158D02*
X192485500Y-100954500D01*
X188816733Y-106418925D02*
X192485500Y-102750158D01*
X192485500Y-100954500D02*
X193050000Y-100390000D01*
D25*
%TO.N,/ESP_BOOT*%
X188201000Y-80181000D02*
X188201000Y-72251000D01*
X190450000Y-82430000D02*
X188201000Y-80181000D01*
X188201000Y-72251000D02*
X178600000Y-62650000D01*
%TO.N,/BQ_TS*%
X182829971Y-116419971D02*
X190574000Y-108675943D01*
X190574000Y-107356000D02*
X191700000Y-106230000D01*
X190574000Y-108675943D02*
X190574000Y-107356000D01*
%TO.N,/FAN_POTI*%
X173140000Y-65690000D02*
X173140000Y-58660000D01*
X187600000Y-80150000D02*
X173140000Y-65690000D01*
%TO.N,/HEATER_POTI*%
X189100000Y-68800000D02*
X189100000Y-80150000D01*
X183690000Y-54970000D02*
X183701000Y-54981000D01*
X183701000Y-54981000D02*
X183701000Y-63401000D01*
X183701000Y-63401000D02*
X189100000Y-68800000D01*
%TD*%
%TA.AperFunction,Conductor*%
%TO.N,/V_SYSTEM*%
G36*
X150543039Y-73919685D02*
G01*
X150588794Y-73972489D01*
X150600000Y-74024000D01*
X150600000Y-76976000D01*
X150580315Y-77043039D01*
X150527511Y-77088794D01*
X150476000Y-77100000D01*
X148154000Y-77100000D01*
X148086961Y-77080315D01*
X148041206Y-77027511D01*
X148030000Y-76976000D01*
X148030000Y-74024000D01*
X148049685Y-73956961D01*
X148102489Y-73911206D01*
X148154000Y-73900000D01*
X150476000Y-73900000D01*
X150543039Y-73919685D01*
G37*
%TD.AperFunction*%
%TD*%
%TA.AperFunction,Conductor*%
%TO.N,VIN*%
G36*
X186703705Y-116819944D02*
G01*
X186749703Y-116872536D01*
X186761142Y-116923419D01*
X186778846Y-118835429D01*
X186759783Y-118902648D01*
X186707405Y-118948890D01*
X186655425Y-118960576D01*
X184742855Y-118969431D01*
X184675725Y-118950057D01*
X184629726Y-118897465D01*
X184618293Y-118847157D01*
X184591738Y-116935143D01*
X184610490Y-116867838D01*
X184662653Y-116821354D01*
X184715153Y-116809423D01*
X186636578Y-116800568D01*
X186703705Y-116819944D01*
G37*
%TD.AperFunction*%
%TD*%
%TA.AperFunction,Conductor*%
%TO.N,VBAT*%
G36*
X186763039Y-101369685D02*
G01*
X186808794Y-101422489D01*
X186820000Y-101474000D01*
X186820000Y-103196000D01*
X186800315Y-103263039D01*
X186747511Y-103308794D01*
X186696000Y-103320000D01*
X185754631Y-103320000D01*
X185687592Y-103300315D01*
X185641837Y-103247511D01*
X185630633Y-103195371D01*
X185639374Y-101473371D01*
X185659398Y-101406432D01*
X185712434Y-101360946D01*
X185763372Y-101350000D01*
X186696000Y-101350000D01*
X186763039Y-101369685D01*
G37*
%TD.AperFunction*%
%TD*%
M02*
