%TF.GenerationSoftware,KiCad,Pcbnew,9.0.7*%
%TF.CreationDate,2026-03-09T17:48:55+01:00*%
%TF.ProjectId,chris,63687269-732e-46b6-9963-61645f706362,rev?*%
%TF.SameCoordinates,Original*%
%TF.FileFunction,Legend,Top*%
%TF.FilePolarity,Positive*%
%FSLAX46Y46*%
G04 Gerber Fmt 4.6, Leading zero omitted, Abs format (unit mm)*
G04 Created by KiCad (PCBNEW 9.0.7) date 2026-03-09 17:48:55*
%MOMM*%
%LPD*%
G01*
G04 APERTURE LIST*
%ADD10C,0.127000*%
%ADD11C,0.120000*%
%ADD12C,0.100000*%
%ADD13C,0.250000*%
%ADD14C,0.150000*%
%ADD15C,0.300000*%
%ADD16C,0.260000*%
%ADD17C,0.200000*%
%ADD18C,0.500000*%
G04 APERTURE END LIST*
D10*
X162904166Y-62846682D02*
X162873928Y-62876921D01*
X162873928Y-62876921D02*
X162783214Y-62907159D01*
X162783214Y-62907159D02*
X162722738Y-62907159D01*
X162722738Y-62907159D02*
X162632023Y-62876921D01*
X162632023Y-62876921D02*
X162571547Y-62816444D01*
X162571547Y-62816444D02*
X162541309Y-62755968D01*
X162541309Y-62755968D02*
X162511071Y-62635016D01*
X162511071Y-62635016D02*
X162511071Y-62544301D01*
X162511071Y-62544301D02*
X162541309Y-62423349D01*
X162541309Y-62423349D02*
X162571547Y-62362873D01*
X162571547Y-62362873D02*
X162632023Y-62302397D01*
X162632023Y-62302397D02*
X162722738Y-62272159D01*
X162722738Y-62272159D02*
X162783214Y-62272159D01*
X162783214Y-62272159D02*
X162873928Y-62302397D01*
X162873928Y-62302397D02*
X162904166Y-62332635D01*
X163478690Y-62272159D02*
X163176309Y-62272159D01*
X163176309Y-62272159D02*
X163146071Y-62574540D01*
X163146071Y-62574540D02*
X163176309Y-62544301D01*
X163176309Y-62544301D02*
X163236785Y-62514063D01*
X163236785Y-62514063D02*
X163387976Y-62514063D01*
X163387976Y-62514063D02*
X163448452Y-62544301D01*
X163448452Y-62544301D02*
X163478690Y-62574540D01*
X163478690Y-62574540D02*
X163508928Y-62635016D01*
X163508928Y-62635016D02*
X163508928Y-62786206D01*
X163508928Y-62786206D02*
X163478690Y-62846682D01*
X163478690Y-62846682D02*
X163448452Y-62876921D01*
X163448452Y-62876921D02*
X163387976Y-62907159D01*
X163387976Y-62907159D02*
X163236785Y-62907159D01*
X163236785Y-62907159D02*
X163176309Y-62876921D01*
X163176309Y-62876921D02*
X163146071Y-62846682D01*
X159574166Y-75557159D02*
X159362499Y-75254778D01*
X159211309Y-75557159D02*
X159211309Y-74922159D01*
X159211309Y-74922159D02*
X159453214Y-74922159D01*
X159453214Y-74922159D02*
X159513690Y-74952397D01*
X159513690Y-74952397D02*
X159543928Y-74982635D01*
X159543928Y-74982635D02*
X159574166Y-75043111D01*
X159574166Y-75043111D02*
X159574166Y-75133825D01*
X159574166Y-75133825D02*
X159543928Y-75194301D01*
X159543928Y-75194301D02*
X159513690Y-75224540D01*
X159513690Y-75224540D02*
X159453214Y-75254778D01*
X159453214Y-75254778D02*
X159211309Y-75254778D01*
X160118452Y-75133825D02*
X160118452Y-75557159D01*
X159967261Y-74891921D02*
X159816071Y-75345492D01*
X159816071Y-75345492D02*
X160209166Y-75345492D01*
X178984166Y-92807159D02*
X178772499Y-92504778D01*
X178621309Y-92807159D02*
X178621309Y-92172159D01*
X178621309Y-92172159D02*
X178863214Y-92172159D01*
X178863214Y-92172159D02*
X178923690Y-92202397D01*
X178923690Y-92202397D02*
X178953928Y-92232635D01*
X178953928Y-92232635D02*
X178984166Y-92293111D01*
X178984166Y-92293111D02*
X178984166Y-92383825D01*
X178984166Y-92383825D02*
X178953928Y-92444301D01*
X178953928Y-92444301D02*
X178923690Y-92474540D01*
X178923690Y-92474540D02*
X178863214Y-92504778D01*
X178863214Y-92504778D02*
X178621309Y-92504778D01*
X179588928Y-92807159D02*
X179226071Y-92807159D01*
X179407499Y-92807159D02*
X179407499Y-92172159D01*
X179407499Y-92172159D02*
X179347023Y-92262873D01*
X179347023Y-92262873D02*
X179286547Y-92323349D01*
X179286547Y-92323349D02*
X179226071Y-92353587D01*
X149968690Y-63862840D02*
X149968690Y-64497840D01*
X149968690Y-64497840D02*
X149817500Y-64497840D01*
X149817500Y-64497840D02*
X149726785Y-64467602D01*
X149726785Y-64467602D02*
X149666309Y-64407126D01*
X149666309Y-64407126D02*
X149636071Y-64346650D01*
X149636071Y-64346650D02*
X149605833Y-64225698D01*
X149605833Y-64225698D02*
X149605833Y-64134983D01*
X149605833Y-64134983D02*
X149636071Y-64014031D01*
X149636071Y-64014031D02*
X149666309Y-63953555D01*
X149666309Y-63953555D02*
X149726785Y-63893079D01*
X149726785Y-63893079D02*
X149817500Y-63862840D01*
X149817500Y-63862840D02*
X149968690Y-63862840D01*
X149031309Y-64497840D02*
X149333690Y-64497840D01*
X149333690Y-64497840D02*
X149363928Y-64195459D01*
X149363928Y-64195459D02*
X149333690Y-64225698D01*
X149333690Y-64225698D02*
X149273214Y-64255936D01*
X149273214Y-64255936D02*
X149122023Y-64255936D01*
X149122023Y-64255936D02*
X149061547Y-64225698D01*
X149061547Y-64225698D02*
X149031309Y-64195459D01*
X149031309Y-64195459D02*
X149001071Y-64134983D01*
X149001071Y-64134983D02*
X149001071Y-63983793D01*
X149001071Y-63983793D02*
X149031309Y-63923317D01*
X149031309Y-63923317D02*
X149061547Y-63893079D01*
X149061547Y-63893079D02*
X149122023Y-63862840D01*
X149122023Y-63862840D02*
X149273214Y-63862840D01*
X149273214Y-63862840D02*
X149333690Y-63893079D01*
X149333690Y-63893079D02*
X149363928Y-63923317D01*
X194151785Y-111167159D02*
X193940118Y-110864778D01*
X193788928Y-111167159D02*
X193788928Y-110532159D01*
X193788928Y-110532159D02*
X194030833Y-110532159D01*
X194030833Y-110532159D02*
X194091309Y-110562397D01*
X194091309Y-110562397D02*
X194121547Y-110592635D01*
X194121547Y-110592635D02*
X194151785Y-110653111D01*
X194151785Y-110653111D02*
X194151785Y-110743825D01*
X194151785Y-110743825D02*
X194121547Y-110804301D01*
X194121547Y-110804301D02*
X194091309Y-110834540D01*
X194091309Y-110834540D02*
X194030833Y-110864778D01*
X194030833Y-110864778D02*
X193788928Y-110864778D01*
X194393690Y-110592635D02*
X194423928Y-110562397D01*
X194423928Y-110562397D02*
X194484404Y-110532159D01*
X194484404Y-110532159D02*
X194635595Y-110532159D01*
X194635595Y-110532159D02*
X194696071Y-110562397D01*
X194696071Y-110562397D02*
X194726309Y-110592635D01*
X194726309Y-110592635D02*
X194756547Y-110653111D01*
X194756547Y-110653111D02*
X194756547Y-110713587D01*
X194756547Y-110713587D02*
X194726309Y-110804301D01*
X194726309Y-110804301D02*
X194363452Y-111167159D01*
X194363452Y-111167159D02*
X194756547Y-111167159D01*
X195331071Y-110532159D02*
X195028690Y-110532159D01*
X195028690Y-110532159D02*
X194998452Y-110834540D01*
X194998452Y-110834540D02*
X195028690Y-110804301D01*
X195028690Y-110804301D02*
X195089166Y-110774063D01*
X195089166Y-110774063D02*
X195240357Y-110774063D01*
X195240357Y-110774063D02*
X195300833Y-110804301D01*
X195300833Y-110804301D02*
X195331071Y-110834540D01*
X195331071Y-110834540D02*
X195361309Y-110895016D01*
X195361309Y-110895016D02*
X195361309Y-111046206D01*
X195361309Y-111046206D02*
X195331071Y-111106682D01*
X195331071Y-111106682D02*
X195300833Y-111136921D01*
X195300833Y-111136921D02*
X195240357Y-111167159D01*
X195240357Y-111167159D02*
X195089166Y-111167159D01*
X195089166Y-111167159D02*
X195028690Y-111136921D01*
X195028690Y-111136921D02*
X194998452Y-111106682D01*
X179641785Y-98846682D02*
X179611547Y-98876921D01*
X179611547Y-98876921D02*
X179520833Y-98907159D01*
X179520833Y-98907159D02*
X179460357Y-98907159D01*
X179460357Y-98907159D02*
X179369642Y-98876921D01*
X179369642Y-98876921D02*
X179309166Y-98816444D01*
X179309166Y-98816444D02*
X179278928Y-98755968D01*
X179278928Y-98755968D02*
X179248690Y-98635016D01*
X179248690Y-98635016D02*
X179248690Y-98544301D01*
X179248690Y-98544301D02*
X179278928Y-98423349D01*
X179278928Y-98423349D02*
X179309166Y-98362873D01*
X179309166Y-98362873D02*
X179369642Y-98302397D01*
X179369642Y-98302397D02*
X179460357Y-98272159D01*
X179460357Y-98272159D02*
X179520833Y-98272159D01*
X179520833Y-98272159D02*
X179611547Y-98302397D01*
X179611547Y-98302397D02*
X179641785Y-98332635D01*
X179883690Y-98332635D02*
X179913928Y-98302397D01*
X179913928Y-98302397D02*
X179974404Y-98272159D01*
X179974404Y-98272159D02*
X180125595Y-98272159D01*
X180125595Y-98272159D02*
X180186071Y-98302397D01*
X180186071Y-98302397D02*
X180216309Y-98332635D01*
X180216309Y-98332635D02*
X180246547Y-98393111D01*
X180246547Y-98393111D02*
X180246547Y-98453587D01*
X180246547Y-98453587D02*
X180216309Y-98544301D01*
X180216309Y-98544301D02*
X179853452Y-98907159D01*
X179853452Y-98907159D02*
X180246547Y-98907159D01*
X180488452Y-98332635D02*
X180518690Y-98302397D01*
X180518690Y-98302397D02*
X180579166Y-98272159D01*
X180579166Y-98272159D02*
X180730357Y-98272159D01*
X180730357Y-98272159D02*
X180790833Y-98302397D01*
X180790833Y-98302397D02*
X180821071Y-98332635D01*
X180821071Y-98332635D02*
X180851309Y-98393111D01*
X180851309Y-98393111D02*
X180851309Y-98453587D01*
X180851309Y-98453587D02*
X180821071Y-98544301D01*
X180821071Y-98544301D02*
X180458214Y-98907159D01*
X180458214Y-98907159D02*
X180851309Y-98907159D01*
X186897159Y-90538214D02*
X186594778Y-90749881D01*
X186897159Y-90901071D02*
X186262159Y-90901071D01*
X186262159Y-90901071D02*
X186262159Y-90659166D01*
X186262159Y-90659166D02*
X186292397Y-90598690D01*
X186292397Y-90598690D02*
X186322635Y-90568452D01*
X186322635Y-90568452D02*
X186383111Y-90538214D01*
X186383111Y-90538214D02*
X186473825Y-90538214D01*
X186473825Y-90538214D02*
X186534301Y-90568452D01*
X186534301Y-90568452D02*
X186564540Y-90598690D01*
X186564540Y-90598690D02*
X186594778Y-90659166D01*
X186594778Y-90659166D02*
X186594778Y-90901071D01*
X186897159Y-89933452D02*
X186897159Y-90296309D01*
X186897159Y-90114881D02*
X186262159Y-90114881D01*
X186262159Y-90114881D02*
X186352873Y-90175357D01*
X186352873Y-90175357D02*
X186413349Y-90235833D01*
X186413349Y-90235833D02*
X186443587Y-90296309D01*
X186473825Y-89389166D02*
X186897159Y-89389166D01*
X186231921Y-89540357D02*
X186685492Y-89691547D01*
X186685492Y-89691547D02*
X186685492Y-89298452D01*
X193471785Y-99327159D02*
X193260118Y-99024778D01*
X193108928Y-99327159D02*
X193108928Y-98692159D01*
X193108928Y-98692159D02*
X193350833Y-98692159D01*
X193350833Y-98692159D02*
X193411309Y-98722397D01*
X193411309Y-98722397D02*
X193441547Y-98752635D01*
X193441547Y-98752635D02*
X193471785Y-98813111D01*
X193471785Y-98813111D02*
X193471785Y-98903825D01*
X193471785Y-98903825D02*
X193441547Y-98964301D01*
X193441547Y-98964301D02*
X193411309Y-98994540D01*
X193411309Y-98994540D02*
X193350833Y-99024778D01*
X193350833Y-99024778D02*
X193108928Y-99024778D01*
X193713690Y-98752635D02*
X193743928Y-98722397D01*
X193743928Y-98722397D02*
X193804404Y-98692159D01*
X193804404Y-98692159D02*
X193955595Y-98692159D01*
X193955595Y-98692159D02*
X194016071Y-98722397D01*
X194016071Y-98722397D02*
X194046309Y-98752635D01*
X194046309Y-98752635D02*
X194076547Y-98813111D01*
X194076547Y-98813111D02*
X194076547Y-98873587D01*
X194076547Y-98873587D02*
X194046309Y-98964301D01*
X194046309Y-98964301D02*
X193683452Y-99327159D01*
X193683452Y-99327159D02*
X194076547Y-99327159D01*
X194620833Y-98903825D02*
X194620833Y-99327159D01*
X194469642Y-98661921D02*
X194318452Y-99115492D01*
X194318452Y-99115492D02*
X194711547Y-99115492D01*
X179631785Y-99756682D02*
X179601547Y-99786921D01*
X179601547Y-99786921D02*
X179510833Y-99817159D01*
X179510833Y-99817159D02*
X179450357Y-99817159D01*
X179450357Y-99817159D02*
X179359642Y-99786921D01*
X179359642Y-99786921D02*
X179299166Y-99726444D01*
X179299166Y-99726444D02*
X179268928Y-99665968D01*
X179268928Y-99665968D02*
X179238690Y-99545016D01*
X179238690Y-99545016D02*
X179238690Y-99454301D01*
X179238690Y-99454301D02*
X179268928Y-99333349D01*
X179268928Y-99333349D02*
X179299166Y-99272873D01*
X179299166Y-99272873D02*
X179359642Y-99212397D01*
X179359642Y-99212397D02*
X179450357Y-99182159D01*
X179450357Y-99182159D02*
X179510833Y-99182159D01*
X179510833Y-99182159D02*
X179601547Y-99212397D01*
X179601547Y-99212397D02*
X179631785Y-99242635D01*
X180236547Y-99817159D02*
X179873690Y-99817159D01*
X180055118Y-99817159D02*
X180055118Y-99182159D01*
X180055118Y-99182159D02*
X179994642Y-99272873D01*
X179994642Y-99272873D02*
X179934166Y-99333349D01*
X179934166Y-99333349D02*
X179873690Y-99363587D01*
X180599404Y-99454301D02*
X180538928Y-99424063D01*
X180538928Y-99424063D02*
X180508690Y-99393825D01*
X180508690Y-99393825D02*
X180478452Y-99333349D01*
X180478452Y-99333349D02*
X180478452Y-99303111D01*
X180478452Y-99303111D02*
X180508690Y-99242635D01*
X180508690Y-99242635D02*
X180538928Y-99212397D01*
X180538928Y-99212397D02*
X180599404Y-99182159D01*
X180599404Y-99182159D02*
X180720357Y-99182159D01*
X180720357Y-99182159D02*
X180780833Y-99212397D01*
X180780833Y-99212397D02*
X180811071Y-99242635D01*
X180811071Y-99242635D02*
X180841309Y-99303111D01*
X180841309Y-99303111D02*
X180841309Y-99333349D01*
X180841309Y-99333349D02*
X180811071Y-99393825D01*
X180811071Y-99393825D02*
X180780833Y-99424063D01*
X180780833Y-99424063D02*
X180720357Y-99454301D01*
X180720357Y-99454301D02*
X180599404Y-99454301D01*
X180599404Y-99454301D02*
X180538928Y-99484540D01*
X180538928Y-99484540D02*
X180508690Y-99514778D01*
X180508690Y-99514778D02*
X180478452Y-99575254D01*
X180478452Y-99575254D02*
X180478452Y-99696206D01*
X180478452Y-99696206D02*
X180508690Y-99756682D01*
X180508690Y-99756682D02*
X180538928Y-99786921D01*
X180538928Y-99786921D02*
X180599404Y-99817159D01*
X180599404Y-99817159D02*
X180720357Y-99817159D01*
X180720357Y-99817159D02*
X180780833Y-99786921D01*
X180780833Y-99786921D02*
X180811071Y-99756682D01*
X180811071Y-99756682D02*
X180841309Y-99696206D01*
X180841309Y-99696206D02*
X180841309Y-99575254D01*
X180841309Y-99575254D02*
X180811071Y-99514778D01*
X180811071Y-99514778D02*
X180780833Y-99484540D01*
X180780833Y-99484540D02*
X180720357Y-99454301D01*
X184957159Y-83308214D02*
X184654778Y-83519881D01*
X184957159Y-83671071D02*
X184322159Y-83671071D01*
X184322159Y-83671071D02*
X184322159Y-83429166D01*
X184322159Y-83429166D02*
X184352397Y-83368690D01*
X184352397Y-83368690D02*
X184382635Y-83338452D01*
X184382635Y-83338452D02*
X184443111Y-83308214D01*
X184443111Y-83308214D02*
X184533825Y-83308214D01*
X184533825Y-83308214D02*
X184594301Y-83338452D01*
X184594301Y-83338452D02*
X184624540Y-83368690D01*
X184624540Y-83368690D02*
X184654778Y-83429166D01*
X184654778Y-83429166D02*
X184654778Y-83671071D01*
X184957159Y-82703452D02*
X184957159Y-83066309D01*
X184957159Y-82884881D02*
X184322159Y-82884881D01*
X184322159Y-82884881D02*
X184412873Y-82945357D01*
X184412873Y-82945357D02*
X184473349Y-83005833D01*
X184473349Y-83005833D02*
X184503587Y-83066309D01*
X184322159Y-82310357D02*
X184322159Y-82249880D01*
X184322159Y-82249880D02*
X184352397Y-82189404D01*
X184352397Y-82189404D02*
X184382635Y-82159166D01*
X184382635Y-82159166D02*
X184443111Y-82128928D01*
X184443111Y-82128928D02*
X184564063Y-82098690D01*
X184564063Y-82098690D02*
X184715254Y-82098690D01*
X184715254Y-82098690D02*
X184836206Y-82128928D01*
X184836206Y-82128928D02*
X184896682Y-82159166D01*
X184896682Y-82159166D02*
X184926921Y-82189404D01*
X184926921Y-82189404D02*
X184957159Y-82249880D01*
X184957159Y-82249880D02*
X184957159Y-82310357D01*
X184957159Y-82310357D02*
X184926921Y-82370833D01*
X184926921Y-82370833D02*
X184896682Y-82401071D01*
X184896682Y-82401071D02*
X184836206Y-82431309D01*
X184836206Y-82431309D02*
X184715254Y-82461547D01*
X184715254Y-82461547D02*
X184564063Y-82461547D01*
X184564063Y-82461547D02*
X184443111Y-82431309D01*
X184443111Y-82431309D02*
X184382635Y-82401071D01*
X184382635Y-82401071D02*
X184352397Y-82370833D01*
X184352397Y-82370833D02*
X184322159Y-82310357D01*
X192117159Y-102328214D02*
X191814778Y-102539881D01*
X192117159Y-102691071D02*
X191482159Y-102691071D01*
X191482159Y-102691071D02*
X191482159Y-102449166D01*
X191482159Y-102449166D02*
X191512397Y-102388690D01*
X191512397Y-102388690D02*
X191542635Y-102358452D01*
X191542635Y-102358452D02*
X191603111Y-102328214D01*
X191603111Y-102328214D02*
X191693825Y-102328214D01*
X191693825Y-102328214D02*
X191754301Y-102358452D01*
X191754301Y-102358452D02*
X191784540Y-102388690D01*
X191784540Y-102388690D02*
X191814778Y-102449166D01*
X191814778Y-102449166D02*
X191814778Y-102691071D01*
X192117159Y-101723452D02*
X192117159Y-102086309D01*
X192117159Y-101904881D02*
X191482159Y-101904881D01*
X191482159Y-101904881D02*
X191572873Y-101965357D01*
X191572873Y-101965357D02*
X191633349Y-102025833D01*
X191633349Y-102025833D02*
X191663587Y-102086309D01*
X191482159Y-101148928D02*
X191482159Y-101451309D01*
X191482159Y-101451309D02*
X191784540Y-101481547D01*
X191784540Y-101481547D02*
X191754301Y-101451309D01*
X191754301Y-101451309D02*
X191724063Y-101390833D01*
X191724063Y-101390833D02*
X191724063Y-101239642D01*
X191724063Y-101239642D02*
X191754301Y-101179166D01*
X191754301Y-101179166D02*
X191784540Y-101148928D01*
X191784540Y-101148928D02*
X191845016Y-101118690D01*
X191845016Y-101118690D02*
X191996206Y-101118690D01*
X191996206Y-101118690D02*
X192056682Y-101148928D01*
X192056682Y-101148928D02*
X192086921Y-101179166D01*
X192086921Y-101179166D02*
X192117159Y-101239642D01*
X192117159Y-101239642D02*
X192117159Y-101390833D01*
X192117159Y-101390833D02*
X192086921Y-101451309D01*
X192086921Y-101451309D02*
X192056682Y-101481547D01*
X182251785Y-119606682D02*
X182221547Y-119636921D01*
X182221547Y-119636921D02*
X182130833Y-119667159D01*
X182130833Y-119667159D02*
X182070357Y-119667159D01*
X182070357Y-119667159D02*
X181979642Y-119636921D01*
X181979642Y-119636921D02*
X181919166Y-119576444D01*
X181919166Y-119576444D02*
X181888928Y-119515968D01*
X181888928Y-119515968D02*
X181858690Y-119395016D01*
X181858690Y-119395016D02*
X181858690Y-119304301D01*
X181858690Y-119304301D02*
X181888928Y-119183349D01*
X181888928Y-119183349D02*
X181919166Y-119122873D01*
X181919166Y-119122873D02*
X181979642Y-119062397D01*
X181979642Y-119062397D02*
X182070357Y-119032159D01*
X182070357Y-119032159D02*
X182130833Y-119032159D01*
X182130833Y-119032159D02*
X182221547Y-119062397D01*
X182221547Y-119062397D02*
X182251785Y-119092635D01*
X182493690Y-119092635D02*
X182523928Y-119062397D01*
X182523928Y-119062397D02*
X182584404Y-119032159D01*
X182584404Y-119032159D02*
X182735595Y-119032159D01*
X182735595Y-119032159D02*
X182796071Y-119062397D01*
X182796071Y-119062397D02*
X182826309Y-119092635D01*
X182826309Y-119092635D02*
X182856547Y-119153111D01*
X182856547Y-119153111D02*
X182856547Y-119213587D01*
X182856547Y-119213587D02*
X182826309Y-119304301D01*
X182826309Y-119304301D02*
X182463452Y-119667159D01*
X182463452Y-119667159D02*
X182856547Y-119667159D01*
X183431071Y-119032159D02*
X183128690Y-119032159D01*
X183128690Y-119032159D02*
X183098452Y-119334540D01*
X183098452Y-119334540D02*
X183128690Y-119304301D01*
X183128690Y-119304301D02*
X183189166Y-119274063D01*
X183189166Y-119274063D02*
X183340357Y-119274063D01*
X183340357Y-119274063D02*
X183400833Y-119304301D01*
X183400833Y-119304301D02*
X183431071Y-119334540D01*
X183431071Y-119334540D02*
X183461309Y-119395016D01*
X183461309Y-119395016D02*
X183461309Y-119546206D01*
X183461309Y-119546206D02*
X183431071Y-119606682D01*
X183431071Y-119606682D02*
X183400833Y-119636921D01*
X183400833Y-119636921D02*
X183340357Y-119667159D01*
X183340357Y-119667159D02*
X183189166Y-119667159D01*
X183189166Y-119667159D02*
X183128690Y-119636921D01*
X183128690Y-119636921D02*
X183098452Y-119606682D01*
X190737159Y-100238214D02*
X190434778Y-100449881D01*
X190737159Y-100601071D02*
X190102159Y-100601071D01*
X190102159Y-100601071D02*
X190102159Y-100359166D01*
X190102159Y-100359166D02*
X190132397Y-100298690D01*
X190132397Y-100298690D02*
X190162635Y-100268452D01*
X190162635Y-100268452D02*
X190223111Y-100238214D01*
X190223111Y-100238214D02*
X190313825Y-100238214D01*
X190313825Y-100238214D02*
X190374301Y-100268452D01*
X190374301Y-100268452D02*
X190404540Y-100298690D01*
X190404540Y-100298690D02*
X190434778Y-100359166D01*
X190434778Y-100359166D02*
X190434778Y-100601071D01*
X190162635Y-99996309D02*
X190132397Y-99966071D01*
X190132397Y-99966071D02*
X190102159Y-99905595D01*
X190102159Y-99905595D02*
X190102159Y-99754404D01*
X190102159Y-99754404D02*
X190132397Y-99693928D01*
X190132397Y-99693928D02*
X190162635Y-99663690D01*
X190162635Y-99663690D02*
X190223111Y-99633452D01*
X190223111Y-99633452D02*
X190283587Y-99633452D01*
X190283587Y-99633452D02*
X190374301Y-99663690D01*
X190374301Y-99663690D02*
X190737159Y-100026547D01*
X190737159Y-100026547D02*
X190737159Y-99633452D01*
X190737159Y-99028690D02*
X190737159Y-99391547D01*
X190737159Y-99210119D02*
X190102159Y-99210119D01*
X190102159Y-99210119D02*
X190192873Y-99270595D01*
X190192873Y-99270595D02*
X190253349Y-99331071D01*
X190253349Y-99331071D02*
X190283587Y-99391547D01*
X191574166Y-59726682D02*
X191543928Y-59756921D01*
X191543928Y-59756921D02*
X191453214Y-59787159D01*
X191453214Y-59787159D02*
X191392738Y-59787159D01*
X191392738Y-59787159D02*
X191302023Y-59756921D01*
X191302023Y-59756921D02*
X191241547Y-59696444D01*
X191241547Y-59696444D02*
X191211309Y-59635968D01*
X191211309Y-59635968D02*
X191181071Y-59515016D01*
X191181071Y-59515016D02*
X191181071Y-59424301D01*
X191181071Y-59424301D02*
X191211309Y-59303349D01*
X191211309Y-59303349D02*
X191241547Y-59242873D01*
X191241547Y-59242873D02*
X191302023Y-59182397D01*
X191302023Y-59182397D02*
X191392738Y-59152159D01*
X191392738Y-59152159D02*
X191453214Y-59152159D01*
X191453214Y-59152159D02*
X191543928Y-59182397D01*
X191543928Y-59182397D02*
X191574166Y-59212635D01*
X191785833Y-59152159D02*
X192209166Y-59152159D01*
X192209166Y-59152159D02*
X191937023Y-59787159D01*
X178924166Y-91267159D02*
X178712499Y-90964778D01*
X178561309Y-91267159D02*
X178561309Y-90632159D01*
X178561309Y-90632159D02*
X178803214Y-90632159D01*
X178803214Y-90632159D02*
X178863690Y-90662397D01*
X178863690Y-90662397D02*
X178893928Y-90692635D01*
X178893928Y-90692635D02*
X178924166Y-90753111D01*
X178924166Y-90753111D02*
X178924166Y-90843825D01*
X178924166Y-90843825D02*
X178893928Y-90904301D01*
X178893928Y-90904301D02*
X178863690Y-90934540D01*
X178863690Y-90934540D02*
X178803214Y-90964778D01*
X178803214Y-90964778D02*
X178561309Y-90964778D01*
X179166071Y-90692635D02*
X179196309Y-90662397D01*
X179196309Y-90662397D02*
X179256785Y-90632159D01*
X179256785Y-90632159D02*
X179407976Y-90632159D01*
X179407976Y-90632159D02*
X179468452Y-90662397D01*
X179468452Y-90662397D02*
X179498690Y-90692635D01*
X179498690Y-90692635D02*
X179528928Y-90753111D01*
X179528928Y-90753111D02*
X179528928Y-90813587D01*
X179528928Y-90813587D02*
X179498690Y-90904301D01*
X179498690Y-90904301D02*
X179135833Y-91267159D01*
X179135833Y-91267159D02*
X179528928Y-91267159D01*
X179641785Y-101616682D02*
X179611547Y-101646921D01*
X179611547Y-101646921D02*
X179520833Y-101677159D01*
X179520833Y-101677159D02*
X179460357Y-101677159D01*
X179460357Y-101677159D02*
X179369642Y-101646921D01*
X179369642Y-101646921D02*
X179309166Y-101586444D01*
X179309166Y-101586444D02*
X179278928Y-101525968D01*
X179278928Y-101525968D02*
X179248690Y-101405016D01*
X179248690Y-101405016D02*
X179248690Y-101314301D01*
X179248690Y-101314301D02*
X179278928Y-101193349D01*
X179278928Y-101193349D02*
X179309166Y-101132873D01*
X179309166Y-101132873D02*
X179369642Y-101072397D01*
X179369642Y-101072397D02*
X179460357Y-101042159D01*
X179460357Y-101042159D02*
X179520833Y-101042159D01*
X179520833Y-101042159D02*
X179611547Y-101072397D01*
X179611547Y-101072397D02*
X179641785Y-101102635D01*
X179883690Y-101102635D02*
X179913928Y-101072397D01*
X179913928Y-101072397D02*
X179974404Y-101042159D01*
X179974404Y-101042159D02*
X180125595Y-101042159D01*
X180125595Y-101042159D02*
X180186071Y-101072397D01*
X180186071Y-101072397D02*
X180216309Y-101102635D01*
X180216309Y-101102635D02*
X180246547Y-101163111D01*
X180246547Y-101163111D02*
X180246547Y-101223587D01*
X180246547Y-101223587D02*
X180216309Y-101314301D01*
X180216309Y-101314301D02*
X179853452Y-101677159D01*
X179853452Y-101677159D02*
X180246547Y-101677159D01*
X180851309Y-101677159D02*
X180488452Y-101677159D01*
X180669880Y-101677159D02*
X180669880Y-101042159D01*
X180669880Y-101042159D02*
X180609404Y-101132873D01*
X180609404Y-101132873D02*
X180548928Y-101193349D01*
X180548928Y-101193349D02*
X180488452Y-101223587D01*
X182251785Y-118626682D02*
X182221547Y-118656921D01*
X182221547Y-118656921D02*
X182130833Y-118687159D01*
X182130833Y-118687159D02*
X182070357Y-118687159D01*
X182070357Y-118687159D02*
X181979642Y-118656921D01*
X181979642Y-118656921D02*
X181919166Y-118596444D01*
X181919166Y-118596444D02*
X181888928Y-118535968D01*
X181888928Y-118535968D02*
X181858690Y-118415016D01*
X181858690Y-118415016D02*
X181858690Y-118324301D01*
X181858690Y-118324301D02*
X181888928Y-118203349D01*
X181888928Y-118203349D02*
X181919166Y-118142873D01*
X181919166Y-118142873D02*
X181979642Y-118082397D01*
X181979642Y-118082397D02*
X182070357Y-118052159D01*
X182070357Y-118052159D02*
X182130833Y-118052159D01*
X182130833Y-118052159D02*
X182221547Y-118082397D01*
X182221547Y-118082397D02*
X182251785Y-118112635D01*
X182493690Y-118112635D02*
X182523928Y-118082397D01*
X182523928Y-118082397D02*
X182584404Y-118052159D01*
X182584404Y-118052159D02*
X182735595Y-118052159D01*
X182735595Y-118052159D02*
X182796071Y-118082397D01*
X182796071Y-118082397D02*
X182826309Y-118112635D01*
X182826309Y-118112635D02*
X182856547Y-118173111D01*
X182856547Y-118173111D02*
X182856547Y-118233587D01*
X182856547Y-118233587D02*
X182826309Y-118324301D01*
X182826309Y-118324301D02*
X182463452Y-118687159D01*
X182463452Y-118687159D02*
X182856547Y-118687159D01*
X183068214Y-118052159D02*
X183491547Y-118052159D01*
X183491547Y-118052159D02*
X183219404Y-118687159D01*
X182296682Y-59808214D02*
X182326921Y-59838452D01*
X182326921Y-59838452D02*
X182357159Y-59929166D01*
X182357159Y-59929166D02*
X182357159Y-59989642D01*
X182357159Y-59989642D02*
X182326921Y-60080357D01*
X182326921Y-60080357D02*
X182266444Y-60140833D01*
X182266444Y-60140833D02*
X182205968Y-60171071D01*
X182205968Y-60171071D02*
X182085016Y-60201309D01*
X182085016Y-60201309D02*
X181994301Y-60201309D01*
X181994301Y-60201309D02*
X181873349Y-60171071D01*
X181873349Y-60171071D02*
X181812873Y-60140833D01*
X181812873Y-60140833D02*
X181752397Y-60080357D01*
X181752397Y-60080357D02*
X181722159Y-59989642D01*
X181722159Y-59989642D02*
X181722159Y-59929166D01*
X181722159Y-59929166D02*
X181752397Y-59838452D01*
X181752397Y-59838452D02*
X181782635Y-59808214D01*
X182357159Y-59203452D02*
X182357159Y-59566309D01*
X182357159Y-59384881D02*
X181722159Y-59384881D01*
X181722159Y-59384881D02*
X181812873Y-59445357D01*
X181812873Y-59445357D02*
X181873349Y-59505833D01*
X181873349Y-59505833D02*
X181903587Y-59566309D01*
X181722159Y-58810357D02*
X181722159Y-58749880D01*
X181722159Y-58749880D02*
X181752397Y-58689404D01*
X181752397Y-58689404D02*
X181782635Y-58659166D01*
X181782635Y-58659166D02*
X181843111Y-58628928D01*
X181843111Y-58628928D02*
X181964063Y-58598690D01*
X181964063Y-58598690D02*
X182115254Y-58598690D01*
X182115254Y-58598690D02*
X182236206Y-58628928D01*
X182236206Y-58628928D02*
X182296682Y-58659166D01*
X182296682Y-58659166D02*
X182326921Y-58689404D01*
X182326921Y-58689404D02*
X182357159Y-58749880D01*
X182357159Y-58749880D02*
X182357159Y-58810357D01*
X182357159Y-58810357D02*
X182326921Y-58870833D01*
X182326921Y-58870833D02*
X182296682Y-58901071D01*
X182296682Y-58901071D02*
X182236206Y-58931309D01*
X182236206Y-58931309D02*
X182115254Y-58961547D01*
X182115254Y-58961547D02*
X181964063Y-58961547D01*
X181964063Y-58961547D02*
X181843111Y-58931309D01*
X181843111Y-58931309D02*
X181782635Y-58901071D01*
X181782635Y-58901071D02*
X181752397Y-58870833D01*
X181752397Y-58870833D02*
X181722159Y-58810357D01*
X167974166Y-73836682D02*
X167943928Y-73866921D01*
X167943928Y-73866921D02*
X167853214Y-73897159D01*
X167853214Y-73897159D02*
X167792738Y-73897159D01*
X167792738Y-73897159D02*
X167702023Y-73866921D01*
X167702023Y-73866921D02*
X167641547Y-73806444D01*
X167641547Y-73806444D02*
X167611309Y-73745968D01*
X167611309Y-73745968D02*
X167581071Y-73625016D01*
X167581071Y-73625016D02*
X167581071Y-73534301D01*
X167581071Y-73534301D02*
X167611309Y-73413349D01*
X167611309Y-73413349D02*
X167641547Y-73352873D01*
X167641547Y-73352873D02*
X167702023Y-73292397D01*
X167702023Y-73292397D02*
X167792738Y-73262159D01*
X167792738Y-73262159D02*
X167853214Y-73262159D01*
X167853214Y-73262159D02*
X167943928Y-73292397D01*
X167943928Y-73292397D02*
X167974166Y-73322635D01*
X168518452Y-73262159D02*
X168397499Y-73262159D01*
X168397499Y-73262159D02*
X168337023Y-73292397D01*
X168337023Y-73292397D02*
X168306785Y-73322635D01*
X168306785Y-73322635D02*
X168246309Y-73413349D01*
X168246309Y-73413349D02*
X168216071Y-73534301D01*
X168216071Y-73534301D02*
X168216071Y-73776206D01*
X168216071Y-73776206D02*
X168246309Y-73836682D01*
X168246309Y-73836682D02*
X168276547Y-73866921D01*
X168276547Y-73866921D02*
X168337023Y-73897159D01*
X168337023Y-73897159D02*
X168457976Y-73897159D01*
X168457976Y-73897159D02*
X168518452Y-73866921D01*
X168518452Y-73866921D02*
X168548690Y-73836682D01*
X168548690Y-73836682D02*
X168578928Y-73776206D01*
X168578928Y-73776206D02*
X168578928Y-73625016D01*
X168578928Y-73625016D02*
X168548690Y-73564540D01*
X168548690Y-73564540D02*
X168518452Y-73534301D01*
X168518452Y-73534301D02*
X168457976Y-73504063D01*
X168457976Y-73504063D02*
X168337023Y-73504063D01*
X168337023Y-73504063D02*
X168276547Y-73534301D01*
X168276547Y-73534301D02*
X168246309Y-73564540D01*
X168246309Y-73564540D02*
X168216071Y-73625016D01*
X177756682Y-113965833D02*
X177786921Y-113996071D01*
X177786921Y-113996071D02*
X177817159Y-114086785D01*
X177817159Y-114086785D02*
X177817159Y-114147261D01*
X177817159Y-114147261D02*
X177786921Y-114237976D01*
X177786921Y-114237976D02*
X177726444Y-114298452D01*
X177726444Y-114298452D02*
X177665968Y-114328690D01*
X177665968Y-114328690D02*
X177545016Y-114358928D01*
X177545016Y-114358928D02*
X177454301Y-114358928D01*
X177454301Y-114358928D02*
X177333349Y-114328690D01*
X177333349Y-114328690D02*
X177272873Y-114298452D01*
X177272873Y-114298452D02*
X177212397Y-114237976D01*
X177212397Y-114237976D02*
X177182159Y-114147261D01*
X177182159Y-114147261D02*
X177182159Y-114086785D01*
X177182159Y-114086785D02*
X177212397Y-113996071D01*
X177212397Y-113996071D02*
X177242635Y-113965833D01*
X177817159Y-113663452D02*
X177817159Y-113542500D01*
X177817159Y-113542500D02*
X177786921Y-113482023D01*
X177786921Y-113482023D02*
X177756682Y-113451785D01*
X177756682Y-113451785D02*
X177665968Y-113391309D01*
X177665968Y-113391309D02*
X177545016Y-113361071D01*
X177545016Y-113361071D02*
X177303111Y-113361071D01*
X177303111Y-113361071D02*
X177242635Y-113391309D01*
X177242635Y-113391309D02*
X177212397Y-113421547D01*
X177212397Y-113421547D02*
X177182159Y-113482023D01*
X177182159Y-113482023D02*
X177182159Y-113602976D01*
X177182159Y-113602976D02*
X177212397Y-113663452D01*
X177212397Y-113663452D02*
X177242635Y-113693690D01*
X177242635Y-113693690D02*
X177303111Y-113723928D01*
X177303111Y-113723928D02*
X177454301Y-113723928D01*
X177454301Y-113723928D02*
X177514778Y-113693690D01*
X177514778Y-113693690D02*
X177545016Y-113663452D01*
X177545016Y-113663452D02*
X177575254Y-113602976D01*
X177575254Y-113602976D02*
X177575254Y-113482023D01*
X177575254Y-113482023D02*
X177545016Y-113421547D01*
X177545016Y-113421547D02*
X177514778Y-113391309D01*
X177514778Y-113391309D02*
X177454301Y-113361071D01*
X191564166Y-60746682D02*
X191533928Y-60776921D01*
X191533928Y-60776921D02*
X191443214Y-60807159D01*
X191443214Y-60807159D02*
X191382738Y-60807159D01*
X191382738Y-60807159D02*
X191292023Y-60776921D01*
X191292023Y-60776921D02*
X191231547Y-60716444D01*
X191231547Y-60716444D02*
X191201309Y-60655968D01*
X191201309Y-60655968D02*
X191171071Y-60535016D01*
X191171071Y-60535016D02*
X191171071Y-60444301D01*
X191171071Y-60444301D02*
X191201309Y-60323349D01*
X191201309Y-60323349D02*
X191231547Y-60262873D01*
X191231547Y-60262873D02*
X191292023Y-60202397D01*
X191292023Y-60202397D02*
X191382738Y-60172159D01*
X191382738Y-60172159D02*
X191443214Y-60172159D01*
X191443214Y-60172159D02*
X191533928Y-60202397D01*
X191533928Y-60202397D02*
X191564166Y-60232635D01*
X191927023Y-60444301D02*
X191866547Y-60414063D01*
X191866547Y-60414063D02*
X191836309Y-60383825D01*
X191836309Y-60383825D02*
X191806071Y-60323349D01*
X191806071Y-60323349D02*
X191806071Y-60293111D01*
X191806071Y-60293111D02*
X191836309Y-60232635D01*
X191836309Y-60232635D02*
X191866547Y-60202397D01*
X191866547Y-60202397D02*
X191927023Y-60172159D01*
X191927023Y-60172159D02*
X192047976Y-60172159D01*
X192047976Y-60172159D02*
X192108452Y-60202397D01*
X192108452Y-60202397D02*
X192138690Y-60232635D01*
X192138690Y-60232635D02*
X192168928Y-60293111D01*
X192168928Y-60293111D02*
X192168928Y-60323349D01*
X192168928Y-60323349D02*
X192138690Y-60383825D01*
X192138690Y-60383825D02*
X192108452Y-60414063D01*
X192108452Y-60414063D02*
X192047976Y-60444301D01*
X192047976Y-60444301D02*
X191927023Y-60444301D01*
X191927023Y-60444301D02*
X191866547Y-60474540D01*
X191866547Y-60474540D02*
X191836309Y-60504778D01*
X191836309Y-60504778D02*
X191806071Y-60565254D01*
X191806071Y-60565254D02*
X191806071Y-60686206D01*
X191806071Y-60686206D02*
X191836309Y-60746682D01*
X191836309Y-60746682D02*
X191866547Y-60776921D01*
X191866547Y-60776921D02*
X191927023Y-60807159D01*
X191927023Y-60807159D02*
X192047976Y-60807159D01*
X192047976Y-60807159D02*
X192108452Y-60776921D01*
X192108452Y-60776921D02*
X192138690Y-60746682D01*
X192138690Y-60746682D02*
X192168928Y-60686206D01*
X192168928Y-60686206D02*
X192168928Y-60565254D01*
X192168928Y-60565254D02*
X192138690Y-60504778D01*
X192138690Y-60504778D02*
X192108452Y-60474540D01*
X192108452Y-60474540D02*
X192047976Y-60444301D01*
X184641309Y-91127159D02*
X184641309Y-90492159D01*
X184641309Y-90492159D02*
X184792499Y-90492159D01*
X184792499Y-90492159D02*
X184883214Y-90522397D01*
X184883214Y-90522397D02*
X184943690Y-90582873D01*
X184943690Y-90582873D02*
X184973928Y-90643349D01*
X184973928Y-90643349D02*
X185004166Y-90764301D01*
X185004166Y-90764301D02*
X185004166Y-90855016D01*
X185004166Y-90855016D02*
X184973928Y-90975968D01*
X184973928Y-90975968D02*
X184943690Y-91036444D01*
X184943690Y-91036444D02*
X184883214Y-91096921D01*
X184883214Y-91096921D02*
X184792499Y-91127159D01*
X184792499Y-91127159D02*
X184641309Y-91127159D01*
X185548452Y-90492159D02*
X185427499Y-90492159D01*
X185427499Y-90492159D02*
X185367023Y-90522397D01*
X185367023Y-90522397D02*
X185336785Y-90552635D01*
X185336785Y-90552635D02*
X185276309Y-90643349D01*
X185276309Y-90643349D02*
X185246071Y-90764301D01*
X185246071Y-90764301D02*
X185246071Y-91006206D01*
X185246071Y-91006206D02*
X185276309Y-91066682D01*
X185276309Y-91066682D02*
X185306547Y-91096921D01*
X185306547Y-91096921D02*
X185367023Y-91127159D01*
X185367023Y-91127159D02*
X185487976Y-91127159D01*
X185487976Y-91127159D02*
X185548452Y-91096921D01*
X185548452Y-91096921D02*
X185578690Y-91066682D01*
X185578690Y-91066682D02*
X185608928Y-91006206D01*
X185608928Y-91006206D02*
X185608928Y-90855016D01*
X185608928Y-90855016D02*
X185578690Y-90794540D01*
X185578690Y-90794540D02*
X185548452Y-90764301D01*
X185548452Y-90764301D02*
X185487976Y-90734063D01*
X185487976Y-90734063D02*
X185367023Y-90734063D01*
X185367023Y-90734063D02*
X185306547Y-90764301D01*
X185306547Y-90764301D02*
X185276309Y-90794540D01*
X185276309Y-90794540D02*
X185246071Y-90855016D01*
X186431785Y-120476682D02*
X186401547Y-120506921D01*
X186401547Y-120506921D02*
X186310833Y-120537159D01*
X186310833Y-120537159D02*
X186250357Y-120537159D01*
X186250357Y-120537159D02*
X186159642Y-120506921D01*
X186159642Y-120506921D02*
X186099166Y-120446444D01*
X186099166Y-120446444D02*
X186068928Y-120385968D01*
X186068928Y-120385968D02*
X186038690Y-120265016D01*
X186038690Y-120265016D02*
X186038690Y-120174301D01*
X186038690Y-120174301D02*
X186068928Y-120053349D01*
X186068928Y-120053349D02*
X186099166Y-119992873D01*
X186099166Y-119992873D02*
X186159642Y-119932397D01*
X186159642Y-119932397D02*
X186250357Y-119902159D01*
X186250357Y-119902159D02*
X186310833Y-119902159D01*
X186310833Y-119902159D02*
X186401547Y-119932397D01*
X186401547Y-119932397D02*
X186431785Y-119962635D01*
X187036547Y-120537159D02*
X186673690Y-120537159D01*
X186855118Y-120537159D02*
X186855118Y-119902159D01*
X186855118Y-119902159D02*
X186794642Y-119992873D01*
X186794642Y-119992873D02*
X186734166Y-120053349D01*
X186734166Y-120053349D02*
X186673690Y-120083587D01*
X187580833Y-120113825D02*
X187580833Y-120537159D01*
X187429642Y-119871921D02*
X187278452Y-120325492D01*
X187278452Y-120325492D02*
X187671547Y-120325492D01*
X159554166Y-74017159D02*
X159342499Y-73714778D01*
X159191309Y-74017159D02*
X159191309Y-73382159D01*
X159191309Y-73382159D02*
X159433214Y-73382159D01*
X159433214Y-73382159D02*
X159493690Y-73412397D01*
X159493690Y-73412397D02*
X159523928Y-73442635D01*
X159523928Y-73442635D02*
X159554166Y-73503111D01*
X159554166Y-73503111D02*
X159554166Y-73593825D01*
X159554166Y-73593825D02*
X159523928Y-73654301D01*
X159523928Y-73654301D02*
X159493690Y-73684540D01*
X159493690Y-73684540D02*
X159433214Y-73714778D01*
X159433214Y-73714778D02*
X159191309Y-73714778D01*
X159765833Y-73382159D02*
X160158928Y-73382159D01*
X160158928Y-73382159D02*
X159947261Y-73624063D01*
X159947261Y-73624063D02*
X160037976Y-73624063D01*
X160037976Y-73624063D02*
X160098452Y-73654301D01*
X160098452Y-73654301D02*
X160128690Y-73684540D01*
X160128690Y-73684540D02*
X160158928Y-73745016D01*
X160158928Y-73745016D02*
X160158928Y-73896206D01*
X160158928Y-73896206D02*
X160128690Y-73956682D01*
X160128690Y-73956682D02*
X160098452Y-73986921D01*
X160098452Y-73986921D02*
X160037976Y-74017159D01*
X160037976Y-74017159D02*
X159856547Y-74017159D01*
X159856547Y-74017159D02*
X159796071Y-73986921D01*
X159796071Y-73986921D02*
X159765833Y-73956682D01*
X157029523Y-66117635D02*
X156969047Y-66087397D01*
X156969047Y-66087397D02*
X156908571Y-66026921D01*
X156908571Y-66026921D02*
X156817857Y-65936206D01*
X156817857Y-65936206D02*
X156757380Y-65905968D01*
X156757380Y-65905968D02*
X156696904Y-65905968D01*
X156727142Y-66057159D02*
X156666666Y-66026921D01*
X156666666Y-66026921D02*
X156606190Y-65966444D01*
X156606190Y-65966444D02*
X156575952Y-65845492D01*
X156575952Y-65845492D02*
X156575952Y-65633825D01*
X156575952Y-65633825D02*
X156606190Y-65512873D01*
X156606190Y-65512873D02*
X156666666Y-65452397D01*
X156666666Y-65452397D02*
X156727142Y-65422159D01*
X156727142Y-65422159D02*
X156848095Y-65422159D01*
X156848095Y-65422159D02*
X156908571Y-65452397D01*
X156908571Y-65452397D02*
X156969047Y-65512873D01*
X156969047Y-65512873D02*
X156999285Y-65633825D01*
X156999285Y-65633825D02*
X156999285Y-65845492D01*
X156999285Y-65845492D02*
X156969047Y-65966444D01*
X156969047Y-65966444D02*
X156908571Y-66026921D01*
X156908571Y-66026921D02*
X156848095Y-66057159D01*
X156848095Y-66057159D02*
X156727142Y-66057159D01*
X157604047Y-66057159D02*
X157241190Y-66057159D01*
X157422618Y-66057159D02*
X157422618Y-65422159D01*
X157422618Y-65422159D02*
X157362142Y-65512873D01*
X157362142Y-65512873D02*
X157301666Y-65573349D01*
X157301666Y-65573349D02*
X157241190Y-65603587D01*
X162904166Y-60886682D02*
X162873928Y-60916921D01*
X162873928Y-60916921D02*
X162783214Y-60947159D01*
X162783214Y-60947159D02*
X162722738Y-60947159D01*
X162722738Y-60947159D02*
X162632023Y-60916921D01*
X162632023Y-60916921D02*
X162571547Y-60856444D01*
X162571547Y-60856444D02*
X162541309Y-60795968D01*
X162541309Y-60795968D02*
X162511071Y-60675016D01*
X162511071Y-60675016D02*
X162511071Y-60584301D01*
X162511071Y-60584301D02*
X162541309Y-60463349D01*
X162541309Y-60463349D02*
X162571547Y-60402873D01*
X162571547Y-60402873D02*
X162632023Y-60342397D01*
X162632023Y-60342397D02*
X162722738Y-60312159D01*
X162722738Y-60312159D02*
X162783214Y-60312159D01*
X162783214Y-60312159D02*
X162873928Y-60342397D01*
X162873928Y-60342397D02*
X162904166Y-60372635D01*
X163448452Y-60523825D02*
X163448452Y-60947159D01*
X163297261Y-60281921D02*
X163146071Y-60735492D01*
X163146071Y-60735492D02*
X163539166Y-60735492D01*
X162171785Y-118457159D02*
X161960118Y-118154778D01*
X161808928Y-118457159D02*
X161808928Y-117822159D01*
X161808928Y-117822159D02*
X162050833Y-117822159D01*
X162050833Y-117822159D02*
X162111309Y-117852397D01*
X162111309Y-117852397D02*
X162141547Y-117882635D01*
X162141547Y-117882635D02*
X162171785Y-117943111D01*
X162171785Y-117943111D02*
X162171785Y-118033825D01*
X162171785Y-118033825D02*
X162141547Y-118094301D01*
X162141547Y-118094301D02*
X162111309Y-118124540D01*
X162111309Y-118124540D02*
X162050833Y-118154778D01*
X162050833Y-118154778D02*
X161808928Y-118154778D01*
X162413690Y-117882635D02*
X162443928Y-117852397D01*
X162443928Y-117852397D02*
X162504404Y-117822159D01*
X162504404Y-117822159D02*
X162655595Y-117822159D01*
X162655595Y-117822159D02*
X162716071Y-117852397D01*
X162716071Y-117852397D02*
X162746309Y-117882635D01*
X162746309Y-117882635D02*
X162776547Y-117943111D01*
X162776547Y-117943111D02*
X162776547Y-118003587D01*
X162776547Y-118003587D02*
X162746309Y-118094301D01*
X162746309Y-118094301D02*
X162383452Y-118457159D01*
X162383452Y-118457159D02*
X162776547Y-118457159D01*
X163139404Y-118094301D02*
X163078928Y-118064063D01*
X163078928Y-118064063D02*
X163048690Y-118033825D01*
X163048690Y-118033825D02*
X163018452Y-117973349D01*
X163018452Y-117973349D02*
X163018452Y-117943111D01*
X163018452Y-117943111D02*
X163048690Y-117882635D01*
X163048690Y-117882635D02*
X163078928Y-117852397D01*
X163078928Y-117852397D02*
X163139404Y-117822159D01*
X163139404Y-117822159D02*
X163260357Y-117822159D01*
X163260357Y-117822159D02*
X163320833Y-117852397D01*
X163320833Y-117852397D02*
X163351071Y-117882635D01*
X163351071Y-117882635D02*
X163381309Y-117943111D01*
X163381309Y-117943111D02*
X163381309Y-117973349D01*
X163381309Y-117973349D02*
X163351071Y-118033825D01*
X163351071Y-118033825D02*
X163320833Y-118064063D01*
X163320833Y-118064063D02*
X163260357Y-118094301D01*
X163260357Y-118094301D02*
X163139404Y-118094301D01*
X163139404Y-118094301D02*
X163078928Y-118124540D01*
X163078928Y-118124540D02*
X163048690Y-118154778D01*
X163048690Y-118154778D02*
X163018452Y-118215254D01*
X163018452Y-118215254D02*
X163018452Y-118336206D01*
X163018452Y-118336206D02*
X163048690Y-118396682D01*
X163048690Y-118396682D02*
X163078928Y-118426921D01*
X163078928Y-118426921D02*
X163139404Y-118457159D01*
X163139404Y-118457159D02*
X163260357Y-118457159D01*
X163260357Y-118457159D02*
X163320833Y-118426921D01*
X163320833Y-118426921D02*
X163351071Y-118396682D01*
X163351071Y-118396682D02*
X163381309Y-118336206D01*
X163381309Y-118336206D02*
X163381309Y-118215254D01*
X163381309Y-118215254D02*
X163351071Y-118154778D01*
X163351071Y-118154778D02*
X163320833Y-118124540D01*
X163320833Y-118124540D02*
X163260357Y-118094301D01*
X158954166Y-62777159D02*
X158742499Y-62474778D01*
X158591309Y-62777159D02*
X158591309Y-62142159D01*
X158591309Y-62142159D02*
X158833214Y-62142159D01*
X158833214Y-62142159D02*
X158893690Y-62172397D01*
X158893690Y-62172397D02*
X158923928Y-62202635D01*
X158923928Y-62202635D02*
X158954166Y-62263111D01*
X158954166Y-62263111D02*
X158954166Y-62353825D01*
X158954166Y-62353825D02*
X158923928Y-62414301D01*
X158923928Y-62414301D02*
X158893690Y-62444540D01*
X158893690Y-62444540D02*
X158833214Y-62474778D01*
X158833214Y-62474778D02*
X158591309Y-62474778D01*
X159498452Y-62142159D02*
X159377499Y-62142159D01*
X159377499Y-62142159D02*
X159317023Y-62172397D01*
X159317023Y-62172397D02*
X159286785Y-62202635D01*
X159286785Y-62202635D02*
X159226309Y-62293349D01*
X159226309Y-62293349D02*
X159196071Y-62414301D01*
X159196071Y-62414301D02*
X159196071Y-62656206D01*
X159196071Y-62656206D02*
X159226309Y-62716682D01*
X159226309Y-62716682D02*
X159256547Y-62746921D01*
X159256547Y-62746921D02*
X159317023Y-62777159D01*
X159317023Y-62777159D02*
X159437976Y-62777159D01*
X159437976Y-62777159D02*
X159498452Y-62746921D01*
X159498452Y-62746921D02*
X159528690Y-62716682D01*
X159528690Y-62716682D02*
X159558928Y-62656206D01*
X159558928Y-62656206D02*
X159558928Y-62505016D01*
X159558928Y-62505016D02*
X159528690Y-62444540D01*
X159528690Y-62444540D02*
X159498452Y-62414301D01*
X159498452Y-62414301D02*
X159437976Y-62384063D01*
X159437976Y-62384063D02*
X159317023Y-62384063D01*
X159317023Y-62384063D02*
X159256547Y-62414301D01*
X159256547Y-62414301D02*
X159226309Y-62444540D01*
X159226309Y-62444540D02*
X159196071Y-62505016D01*
X153119523Y-63957635D02*
X153059047Y-63927397D01*
X153059047Y-63927397D02*
X152998571Y-63866921D01*
X152998571Y-63866921D02*
X152907857Y-63776206D01*
X152907857Y-63776206D02*
X152847380Y-63745968D01*
X152847380Y-63745968D02*
X152786904Y-63745968D01*
X152817142Y-63897159D02*
X152756666Y-63866921D01*
X152756666Y-63866921D02*
X152696190Y-63806444D01*
X152696190Y-63806444D02*
X152665952Y-63685492D01*
X152665952Y-63685492D02*
X152665952Y-63473825D01*
X152665952Y-63473825D02*
X152696190Y-63352873D01*
X152696190Y-63352873D02*
X152756666Y-63292397D01*
X152756666Y-63292397D02*
X152817142Y-63262159D01*
X152817142Y-63262159D02*
X152938095Y-63262159D01*
X152938095Y-63262159D02*
X152998571Y-63292397D01*
X152998571Y-63292397D02*
X153059047Y-63352873D01*
X153059047Y-63352873D02*
X153089285Y-63473825D01*
X153089285Y-63473825D02*
X153089285Y-63685492D01*
X153089285Y-63685492D02*
X153059047Y-63806444D01*
X153059047Y-63806444D02*
X152998571Y-63866921D01*
X152998571Y-63866921D02*
X152938095Y-63897159D01*
X152938095Y-63897159D02*
X152817142Y-63897159D01*
X153300952Y-63262159D02*
X153694047Y-63262159D01*
X153694047Y-63262159D02*
X153482380Y-63504063D01*
X153482380Y-63504063D02*
X153573095Y-63504063D01*
X153573095Y-63504063D02*
X153633571Y-63534301D01*
X153633571Y-63534301D02*
X153663809Y-63564540D01*
X153663809Y-63564540D02*
X153694047Y-63625016D01*
X153694047Y-63625016D02*
X153694047Y-63776206D01*
X153694047Y-63776206D02*
X153663809Y-63836682D01*
X153663809Y-63836682D02*
X153633571Y-63866921D01*
X153633571Y-63866921D02*
X153573095Y-63897159D01*
X153573095Y-63897159D02*
X153391666Y-63897159D01*
X153391666Y-63897159D02*
X153331190Y-63866921D01*
X153331190Y-63866921D02*
X153300952Y-63836682D01*
X164197159Y-71405833D02*
X163894778Y-71617500D01*
X164197159Y-71768690D02*
X163562159Y-71768690D01*
X163562159Y-71768690D02*
X163562159Y-71526785D01*
X163562159Y-71526785D02*
X163592397Y-71466309D01*
X163592397Y-71466309D02*
X163622635Y-71436071D01*
X163622635Y-71436071D02*
X163683111Y-71405833D01*
X163683111Y-71405833D02*
X163773825Y-71405833D01*
X163773825Y-71405833D02*
X163834301Y-71436071D01*
X163834301Y-71436071D02*
X163864540Y-71466309D01*
X163864540Y-71466309D02*
X163894778Y-71526785D01*
X163894778Y-71526785D02*
X163894778Y-71768690D01*
X163562159Y-71194166D02*
X163562159Y-70770833D01*
X163562159Y-70770833D02*
X164197159Y-71042976D01*
X177217159Y-60138214D02*
X176914778Y-60349881D01*
X177217159Y-60501071D02*
X176582159Y-60501071D01*
X176582159Y-60501071D02*
X176582159Y-60259166D01*
X176582159Y-60259166D02*
X176612397Y-60198690D01*
X176612397Y-60198690D02*
X176642635Y-60168452D01*
X176642635Y-60168452D02*
X176703111Y-60138214D01*
X176703111Y-60138214D02*
X176793825Y-60138214D01*
X176793825Y-60138214D02*
X176854301Y-60168452D01*
X176854301Y-60168452D02*
X176884540Y-60198690D01*
X176884540Y-60198690D02*
X176914778Y-60259166D01*
X176914778Y-60259166D02*
X176914778Y-60501071D01*
X177217159Y-59533452D02*
X177217159Y-59896309D01*
X177217159Y-59714881D02*
X176582159Y-59714881D01*
X176582159Y-59714881D02*
X176672873Y-59775357D01*
X176672873Y-59775357D02*
X176733349Y-59835833D01*
X176733349Y-59835833D02*
X176763587Y-59896309D01*
X177217159Y-58928690D02*
X177217159Y-59291547D01*
X177217159Y-59110119D02*
X176582159Y-59110119D01*
X176582159Y-59110119D02*
X176672873Y-59170595D01*
X176672873Y-59170595D02*
X176733349Y-59231071D01*
X176733349Y-59231071D02*
X176763587Y-59291547D01*
X186441785Y-122386682D02*
X186411547Y-122416921D01*
X186411547Y-122416921D02*
X186320833Y-122447159D01*
X186320833Y-122447159D02*
X186260357Y-122447159D01*
X186260357Y-122447159D02*
X186169642Y-122416921D01*
X186169642Y-122416921D02*
X186109166Y-122356444D01*
X186109166Y-122356444D02*
X186078928Y-122295968D01*
X186078928Y-122295968D02*
X186048690Y-122175016D01*
X186048690Y-122175016D02*
X186048690Y-122084301D01*
X186048690Y-122084301D02*
X186078928Y-121963349D01*
X186078928Y-121963349D02*
X186109166Y-121902873D01*
X186109166Y-121902873D02*
X186169642Y-121842397D01*
X186169642Y-121842397D02*
X186260357Y-121812159D01*
X186260357Y-121812159D02*
X186320833Y-121812159D01*
X186320833Y-121812159D02*
X186411547Y-121842397D01*
X186411547Y-121842397D02*
X186441785Y-121872635D01*
X187046547Y-122447159D02*
X186683690Y-122447159D01*
X186865118Y-122447159D02*
X186865118Y-121812159D01*
X186865118Y-121812159D02*
X186804642Y-121902873D01*
X186804642Y-121902873D02*
X186744166Y-121963349D01*
X186744166Y-121963349D02*
X186683690Y-121993587D01*
X187590833Y-121812159D02*
X187469880Y-121812159D01*
X187469880Y-121812159D02*
X187409404Y-121842397D01*
X187409404Y-121842397D02*
X187379166Y-121872635D01*
X187379166Y-121872635D02*
X187318690Y-121963349D01*
X187318690Y-121963349D02*
X187288452Y-122084301D01*
X187288452Y-122084301D02*
X187288452Y-122326206D01*
X187288452Y-122326206D02*
X187318690Y-122386682D01*
X187318690Y-122386682D02*
X187348928Y-122416921D01*
X187348928Y-122416921D02*
X187409404Y-122447159D01*
X187409404Y-122447159D02*
X187530357Y-122447159D01*
X187530357Y-122447159D02*
X187590833Y-122416921D01*
X187590833Y-122416921D02*
X187621071Y-122386682D01*
X187621071Y-122386682D02*
X187651309Y-122326206D01*
X187651309Y-122326206D02*
X187651309Y-122175016D01*
X187651309Y-122175016D02*
X187621071Y-122114540D01*
X187621071Y-122114540D02*
X187590833Y-122084301D01*
X187590833Y-122084301D02*
X187530357Y-122054063D01*
X187530357Y-122054063D02*
X187409404Y-122054063D01*
X187409404Y-122054063D02*
X187348928Y-122084301D01*
X187348928Y-122084301D02*
X187318690Y-122114540D01*
X187318690Y-122114540D02*
X187288452Y-122175016D01*
X183226682Y-59828214D02*
X183256921Y-59858452D01*
X183256921Y-59858452D02*
X183287159Y-59949166D01*
X183287159Y-59949166D02*
X183287159Y-60009642D01*
X183287159Y-60009642D02*
X183256921Y-60100357D01*
X183256921Y-60100357D02*
X183196444Y-60160833D01*
X183196444Y-60160833D02*
X183135968Y-60191071D01*
X183135968Y-60191071D02*
X183015016Y-60221309D01*
X183015016Y-60221309D02*
X182924301Y-60221309D01*
X182924301Y-60221309D02*
X182803349Y-60191071D01*
X182803349Y-60191071D02*
X182742873Y-60160833D01*
X182742873Y-60160833D02*
X182682397Y-60100357D01*
X182682397Y-60100357D02*
X182652159Y-60009642D01*
X182652159Y-60009642D02*
X182652159Y-59949166D01*
X182652159Y-59949166D02*
X182682397Y-59858452D01*
X182682397Y-59858452D02*
X182712635Y-59828214D01*
X183287159Y-59223452D02*
X183287159Y-59586309D01*
X183287159Y-59404881D02*
X182652159Y-59404881D01*
X182652159Y-59404881D02*
X182742873Y-59465357D01*
X182742873Y-59465357D02*
X182803349Y-59525833D01*
X182803349Y-59525833D02*
X182833587Y-59586309D01*
X183287159Y-58618690D02*
X183287159Y-58981547D01*
X183287159Y-58800119D02*
X182652159Y-58800119D01*
X182652159Y-58800119D02*
X182742873Y-58860595D01*
X182742873Y-58860595D02*
X182803349Y-58921071D01*
X182803349Y-58921071D02*
X182833587Y-58981547D01*
X186171785Y-104966682D02*
X186141547Y-104996921D01*
X186141547Y-104996921D02*
X186050833Y-105027159D01*
X186050833Y-105027159D02*
X185990357Y-105027159D01*
X185990357Y-105027159D02*
X185899642Y-104996921D01*
X185899642Y-104996921D02*
X185839166Y-104936444D01*
X185839166Y-104936444D02*
X185808928Y-104875968D01*
X185808928Y-104875968D02*
X185778690Y-104755016D01*
X185778690Y-104755016D02*
X185778690Y-104664301D01*
X185778690Y-104664301D02*
X185808928Y-104543349D01*
X185808928Y-104543349D02*
X185839166Y-104482873D01*
X185839166Y-104482873D02*
X185899642Y-104422397D01*
X185899642Y-104422397D02*
X185990357Y-104392159D01*
X185990357Y-104392159D02*
X186050833Y-104392159D01*
X186050833Y-104392159D02*
X186141547Y-104422397D01*
X186141547Y-104422397D02*
X186171785Y-104452635D01*
X186413690Y-104452635D02*
X186443928Y-104422397D01*
X186443928Y-104422397D02*
X186504404Y-104392159D01*
X186504404Y-104392159D02*
X186655595Y-104392159D01*
X186655595Y-104392159D02*
X186716071Y-104422397D01*
X186716071Y-104422397D02*
X186746309Y-104452635D01*
X186746309Y-104452635D02*
X186776547Y-104513111D01*
X186776547Y-104513111D02*
X186776547Y-104573587D01*
X186776547Y-104573587D02*
X186746309Y-104664301D01*
X186746309Y-104664301D02*
X186383452Y-105027159D01*
X186383452Y-105027159D02*
X186776547Y-105027159D01*
X186988214Y-104392159D02*
X187381309Y-104392159D01*
X187381309Y-104392159D02*
X187169642Y-104634063D01*
X187169642Y-104634063D02*
X187260357Y-104634063D01*
X187260357Y-104634063D02*
X187320833Y-104664301D01*
X187320833Y-104664301D02*
X187351071Y-104694540D01*
X187351071Y-104694540D02*
X187381309Y-104755016D01*
X187381309Y-104755016D02*
X187381309Y-104906206D01*
X187381309Y-104906206D02*
X187351071Y-104966682D01*
X187351071Y-104966682D02*
X187320833Y-104996921D01*
X187320833Y-104996921D02*
X187260357Y-105027159D01*
X187260357Y-105027159D02*
X187078928Y-105027159D01*
X187078928Y-105027159D02*
X187018452Y-104996921D01*
X187018452Y-104996921D02*
X186988214Y-104966682D01*
X161051309Y-117497159D02*
X161051309Y-116862159D01*
X161051309Y-116862159D02*
X161202499Y-116862159D01*
X161202499Y-116862159D02*
X161293214Y-116892397D01*
X161293214Y-116892397D02*
X161353690Y-116952873D01*
X161353690Y-116952873D02*
X161383928Y-117013349D01*
X161383928Y-117013349D02*
X161414166Y-117134301D01*
X161414166Y-117134301D02*
X161414166Y-117225016D01*
X161414166Y-117225016D02*
X161383928Y-117345968D01*
X161383928Y-117345968D02*
X161353690Y-117406444D01*
X161353690Y-117406444D02*
X161293214Y-117466921D01*
X161293214Y-117466921D02*
X161202499Y-117497159D01*
X161202499Y-117497159D02*
X161051309Y-117497159D01*
X162018928Y-117497159D02*
X161656071Y-117497159D01*
X161837499Y-117497159D02*
X161837499Y-116862159D01*
X161837499Y-116862159D02*
X161777023Y-116952873D01*
X161777023Y-116952873D02*
X161716547Y-117013349D01*
X161716547Y-117013349D02*
X161656071Y-117043587D01*
X179661785Y-102556682D02*
X179631547Y-102586921D01*
X179631547Y-102586921D02*
X179540833Y-102617159D01*
X179540833Y-102617159D02*
X179480357Y-102617159D01*
X179480357Y-102617159D02*
X179389642Y-102586921D01*
X179389642Y-102586921D02*
X179329166Y-102526444D01*
X179329166Y-102526444D02*
X179298928Y-102465968D01*
X179298928Y-102465968D02*
X179268690Y-102345016D01*
X179268690Y-102345016D02*
X179268690Y-102254301D01*
X179268690Y-102254301D02*
X179298928Y-102133349D01*
X179298928Y-102133349D02*
X179329166Y-102072873D01*
X179329166Y-102072873D02*
X179389642Y-102012397D01*
X179389642Y-102012397D02*
X179480357Y-101982159D01*
X179480357Y-101982159D02*
X179540833Y-101982159D01*
X179540833Y-101982159D02*
X179631547Y-102012397D01*
X179631547Y-102012397D02*
X179661785Y-102042635D01*
X179903690Y-102042635D02*
X179933928Y-102012397D01*
X179933928Y-102012397D02*
X179994404Y-101982159D01*
X179994404Y-101982159D02*
X180145595Y-101982159D01*
X180145595Y-101982159D02*
X180206071Y-102012397D01*
X180206071Y-102012397D02*
X180236309Y-102042635D01*
X180236309Y-102042635D02*
X180266547Y-102103111D01*
X180266547Y-102103111D02*
X180266547Y-102163587D01*
X180266547Y-102163587D02*
X180236309Y-102254301D01*
X180236309Y-102254301D02*
X179873452Y-102617159D01*
X179873452Y-102617159D02*
X180266547Y-102617159D01*
X180659642Y-101982159D02*
X180720119Y-101982159D01*
X180720119Y-101982159D02*
X180780595Y-102012397D01*
X180780595Y-102012397D02*
X180810833Y-102042635D01*
X180810833Y-102042635D02*
X180841071Y-102103111D01*
X180841071Y-102103111D02*
X180871309Y-102224063D01*
X180871309Y-102224063D02*
X180871309Y-102375254D01*
X180871309Y-102375254D02*
X180841071Y-102496206D01*
X180841071Y-102496206D02*
X180810833Y-102556682D01*
X180810833Y-102556682D02*
X180780595Y-102586921D01*
X180780595Y-102586921D02*
X180720119Y-102617159D01*
X180720119Y-102617159D02*
X180659642Y-102617159D01*
X180659642Y-102617159D02*
X180599166Y-102586921D01*
X180599166Y-102586921D02*
X180568928Y-102556682D01*
X180568928Y-102556682D02*
X180538690Y-102496206D01*
X180538690Y-102496206D02*
X180508452Y-102375254D01*
X180508452Y-102375254D02*
X180508452Y-102224063D01*
X180508452Y-102224063D02*
X180538690Y-102103111D01*
X180538690Y-102103111D02*
X180568928Y-102042635D01*
X180568928Y-102042635D02*
X180599166Y-102012397D01*
X180599166Y-102012397D02*
X180659642Y-101982159D01*
X176257159Y-60128214D02*
X175954778Y-60339881D01*
X176257159Y-60491071D02*
X175622159Y-60491071D01*
X175622159Y-60491071D02*
X175622159Y-60249166D01*
X175622159Y-60249166D02*
X175652397Y-60188690D01*
X175652397Y-60188690D02*
X175682635Y-60158452D01*
X175682635Y-60158452D02*
X175743111Y-60128214D01*
X175743111Y-60128214D02*
X175833825Y-60128214D01*
X175833825Y-60128214D02*
X175894301Y-60158452D01*
X175894301Y-60158452D02*
X175924540Y-60188690D01*
X175924540Y-60188690D02*
X175954778Y-60249166D01*
X175954778Y-60249166D02*
X175954778Y-60491071D01*
X176257159Y-59523452D02*
X176257159Y-59886309D01*
X176257159Y-59704881D02*
X175622159Y-59704881D01*
X175622159Y-59704881D02*
X175712873Y-59765357D01*
X175712873Y-59765357D02*
X175773349Y-59825833D01*
X175773349Y-59825833D02*
X175803587Y-59886309D01*
X175682635Y-59281547D02*
X175652397Y-59251309D01*
X175652397Y-59251309D02*
X175622159Y-59190833D01*
X175622159Y-59190833D02*
X175622159Y-59039642D01*
X175622159Y-59039642D02*
X175652397Y-58979166D01*
X175652397Y-58979166D02*
X175682635Y-58948928D01*
X175682635Y-58948928D02*
X175743111Y-58918690D01*
X175743111Y-58918690D02*
X175803587Y-58918690D01*
X175803587Y-58918690D02*
X175894301Y-58948928D01*
X175894301Y-58948928D02*
X176257159Y-59311785D01*
X176257159Y-59311785D02*
X176257159Y-58918690D01*
X186741785Y-100776682D02*
X186711547Y-100806921D01*
X186711547Y-100806921D02*
X186620833Y-100837159D01*
X186620833Y-100837159D02*
X186560357Y-100837159D01*
X186560357Y-100837159D02*
X186469642Y-100806921D01*
X186469642Y-100806921D02*
X186409166Y-100746444D01*
X186409166Y-100746444D02*
X186378928Y-100685968D01*
X186378928Y-100685968D02*
X186348690Y-100565016D01*
X186348690Y-100565016D02*
X186348690Y-100474301D01*
X186348690Y-100474301D02*
X186378928Y-100353349D01*
X186378928Y-100353349D02*
X186409166Y-100292873D01*
X186409166Y-100292873D02*
X186469642Y-100232397D01*
X186469642Y-100232397D02*
X186560357Y-100202159D01*
X186560357Y-100202159D02*
X186620833Y-100202159D01*
X186620833Y-100202159D02*
X186711547Y-100232397D01*
X186711547Y-100232397D02*
X186741785Y-100262635D01*
X186983690Y-100262635D02*
X187013928Y-100232397D01*
X187013928Y-100232397D02*
X187074404Y-100202159D01*
X187074404Y-100202159D02*
X187225595Y-100202159D01*
X187225595Y-100202159D02*
X187286071Y-100232397D01*
X187286071Y-100232397D02*
X187316309Y-100262635D01*
X187316309Y-100262635D02*
X187346547Y-100323111D01*
X187346547Y-100323111D02*
X187346547Y-100383587D01*
X187346547Y-100383587D02*
X187316309Y-100474301D01*
X187316309Y-100474301D02*
X186953452Y-100837159D01*
X186953452Y-100837159D02*
X187346547Y-100837159D01*
X187890833Y-100413825D02*
X187890833Y-100837159D01*
X187739642Y-100171921D02*
X187588452Y-100625492D01*
X187588452Y-100625492D02*
X187981547Y-100625492D01*
X185856190Y-105522159D02*
X185856190Y-106036206D01*
X185856190Y-106036206D02*
X185886428Y-106096682D01*
X185886428Y-106096682D02*
X185916666Y-106126921D01*
X185916666Y-106126921D02*
X185977142Y-106157159D01*
X185977142Y-106157159D02*
X186098095Y-106157159D01*
X186098095Y-106157159D02*
X186158571Y-106126921D01*
X186158571Y-106126921D02*
X186188809Y-106096682D01*
X186188809Y-106096682D02*
X186219047Y-106036206D01*
X186219047Y-106036206D02*
X186219047Y-105522159D01*
X186460952Y-105522159D02*
X186854047Y-105522159D01*
X186854047Y-105522159D02*
X186642380Y-105764063D01*
X186642380Y-105764063D02*
X186733095Y-105764063D01*
X186733095Y-105764063D02*
X186793571Y-105794301D01*
X186793571Y-105794301D02*
X186823809Y-105824540D01*
X186823809Y-105824540D02*
X186854047Y-105885016D01*
X186854047Y-105885016D02*
X186854047Y-106036206D01*
X186854047Y-106036206D02*
X186823809Y-106096682D01*
X186823809Y-106096682D02*
X186793571Y-106126921D01*
X186793571Y-106126921D02*
X186733095Y-106157159D01*
X186733095Y-106157159D02*
X186551666Y-106157159D01*
X186551666Y-106157159D02*
X186491190Y-106126921D01*
X186491190Y-106126921D02*
X186460952Y-106096682D01*
X170974166Y-75377159D02*
X170762499Y-75074778D01*
X170611309Y-75377159D02*
X170611309Y-74742159D01*
X170611309Y-74742159D02*
X170853214Y-74742159D01*
X170853214Y-74742159D02*
X170913690Y-74772397D01*
X170913690Y-74772397D02*
X170943928Y-74802635D01*
X170943928Y-74802635D02*
X170974166Y-74863111D01*
X170974166Y-74863111D02*
X170974166Y-74953825D01*
X170974166Y-74953825D02*
X170943928Y-75014301D01*
X170943928Y-75014301D02*
X170913690Y-75044540D01*
X170913690Y-75044540D02*
X170853214Y-75074778D01*
X170853214Y-75074778D02*
X170611309Y-75074778D01*
X171276547Y-75377159D02*
X171397499Y-75377159D01*
X171397499Y-75377159D02*
X171457976Y-75346921D01*
X171457976Y-75346921D02*
X171488214Y-75316682D01*
X171488214Y-75316682D02*
X171548690Y-75225968D01*
X171548690Y-75225968D02*
X171578928Y-75105016D01*
X171578928Y-75105016D02*
X171578928Y-74863111D01*
X171578928Y-74863111D02*
X171548690Y-74802635D01*
X171548690Y-74802635D02*
X171518452Y-74772397D01*
X171518452Y-74772397D02*
X171457976Y-74742159D01*
X171457976Y-74742159D02*
X171337023Y-74742159D01*
X171337023Y-74742159D02*
X171276547Y-74772397D01*
X171276547Y-74772397D02*
X171246309Y-74802635D01*
X171246309Y-74802635D02*
X171216071Y-74863111D01*
X171216071Y-74863111D02*
X171216071Y-75014301D01*
X171216071Y-75014301D02*
X171246309Y-75074778D01*
X171246309Y-75074778D02*
X171276547Y-75105016D01*
X171276547Y-75105016D02*
X171337023Y-75135254D01*
X171337023Y-75135254D02*
X171457976Y-75135254D01*
X171457976Y-75135254D02*
X171518452Y-75105016D01*
X171518452Y-75105016D02*
X171548690Y-75074778D01*
X171548690Y-75074778D02*
X171578928Y-75014301D01*
X188041785Y-106217159D02*
X187830118Y-105914778D01*
X187678928Y-106217159D02*
X187678928Y-105582159D01*
X187678928Y-105582159D02*
X187920833Y-105582159D01*
X187920833Y-105582159D02*
X187981309Y-105612397D01*
X187981309Y-105612397D02*
X188011547Y-105642635D01*
X188011547Y-105642635D02*
X188041785Y-105703111D01*
X188041785Y-105703111D02*
X188041785Y-105793825D01*
X188041785Y-105793825D02*
X188011547Y-105854301D01*
X188011547Y-105854301D02*
X187981309Y-105884540D01*
X187981309Y-105884540D02*
X187920833Y-105914778D01*
X187920833Y-105914778D02*
X187678928Y-105914778D01*
X188646547Y-106217159D02*
X188283690Y-106217159D01*
X188465118Y-106217159D02*
X188465118Y-105582159D01*
X188465118Y-105582159D02*
X188404642Y-105672873D01*
X188404642Y-105672873D02*
X188344166Y-105733349D01*
X188344166Y-105733349D02*
X188283690Y-105763587D01*
X189009404Y-105854301D02*
X188948928Y-105824063D01*
X188948928Y-105824063D02*
X188918690Y-105793825D01*
X188918690Y-105793825D02*
X188888452Y-105733349D01*
X188888452Y-105733349D02*
X188888452Y-105703111D01*
X188888452Y-105703111D02*
X188918690Y-105642635D01*
X188918690Y-105642635D02*
X188948928Y-105612397D01*
X188948928Y-105612397D02*
X189009404Y-105582159D01*
X189009404Y-105582159D02*
X189130357Y-105582159D01*
X189130357Y-105582159D02*
X189190833Y-105612397D01*
X189190833Y-105612397D02*
X189221071Y-105642635D01*
X189221071Y-105642635D02*
X189251309Y-105703111D01*
X189251309Y-105703111D02*
X189251309Y-105733349D01*
X189251309Y-105733349D02*
X189221071Y-105793825D01*
X189221071Y-105793825D02*
X189190833Y-105824063D01*
X189190833Y-105824063D02*
X189130357Y-105854301D01*
X189130357Y-105854301D02*
X189009404Y-105854301D01*
X189009404Y-105854301D02*
X188948928Y-105884540D01*
X188948928Y-105884540D02*
X188918690Y-105914778D01*
X188918690Y-105914778D02*
X188888452Y-105975254D01*
X188888452Y-105975254D02*
X188888452Y-106096206D01*
X188888452Y-106096206D02*
X188918690Y-106156682D01*
X188918690Y-106156682D02*
X188948928Y-106186921D01*
X188948928Y-106186921D02*
X189009404Y-106217159D01*
X189009404Y-106217159D02*
X189130357Y-106217159D01*
X189130357Y-106217159D02*
X189190833Y-106186921D01*
X189190833Y-106186921D02*
X189221071Y-106156682D01*
X189221071Y-106156682D02*
X189251309Y-106096206D01*
X189251309Y-106096206D02*
X189251309Y-105975254D01*
X189251309Y-105975254D02*
X189221071Y-105914778D01*
X189221071Y-105914778D02*
X189190833Y-105884540D01*
X189190833Y-105884540D02*
X189130357Y-105854301D01*
X194151785Y-108187159D02*
X193940118Y-107884778D01*
X193788928Y-108187159D02*
X193788928Y-107552159D01*
X193788928Y-107552159D02*
X194030833Y-107552159D01*
X194030833Y-107552159D02*
X194091309Y-107582397D01*
X194091309Y-107582397D02*
X194121547Y-107612635D01*
X194121547Y-107612635D02*
X194151785Y-107673111D01*
X194151785Y-107673111D02*
X194151785Y-107763825D01*
X194151785Y-107763825D02*
X194121547Y-107824301D01*
X194121547Y-107824301D02*
X194091309Y-107854540D01*
X194091309Y-107854540D02*
X194030833Y-107884778D01*
X194030833Y-107884778D02*
X193788928Y-107884778D01*
X194393690Y-107612635D02*
X194423928Y-107582397D01*
X194423928Y-107582397D02*
X194484404Y-107552159D01*
X194484404Y-107552159D02*
X194635595Y-107552159D01*
X194635595Y-107552159D02*
X194696071Y-107582397D01*
X194696071Y-107582397D02*
X194726309Y-107612635D01*
X194726309Y-107612635D02*
X194756547Y-107673111D01*
X194756547Y-107673111D02*
X194756547Y-107733587D01*
X194756547Y-107733587D02*
X194726309Y-107824301D01*
X194726309Y-107824301D02*
X194363452Y-108187159D01*
X194363452Y-108187159D02*
X194756547Y-108187159D01*
X194998452Y-107612635D02*
X195028690Y-107582397D01*
X195028690Y-107582397D02*
X195089166Y-107552159D01*
X195089166Y-107552159D02*
X195240357Y-107552159D01*
X195240357Y-107552159D02*
X195300833Y-107582397D01*
X195300833Y-107582397D02*
X195331071Y-107612635D01*
X195331071Y-107612635D02*
X195361309Y-107673111D01*
X195361309Y-107673111D02*
X195361309Y-107733587D01*
X195361309Y-107733587D02*
X195331071Y-107824301D01*
X195331071Y-107824301D02*
X194968214Y-108187159D01*
X194968214Y-108187159D02*
X195361309Y-108187159D01*
X181387159Y-59828214D02*
X181084778Y-60039881D01*
X181387159Y-60191071D02*
X180752159Y-60191071D01*
X180752159Y-60191071D02*
X180752159Y-59949166D01*
X180752159Y-59949166D02*
X180782397Y-59888690D01*
X180782397Y-59888690D02*
X180812635Y-59858452D01*
X180812635Y-59858452D02*
X180873111Y-59828214D01*
X180873111Y-59828214D02*
X180963825Y-59828214D01*
X180963825Y-59828214D02*
X181024301Y-59858452D01*
X181024301Y-59858452D02*
X181054540Y-59888690D01*
X181054540Y-59888690D02*
X181084778Y-59949166D01*
X181084778Y-59949166D02*
X181084778Y-60191071D01*
X181387159Y-59223452D02*
X181387159Y-59586309D01*
X181387159Y-59404881D02*
X180752159Y-59404881D01*
X180752159Y-59404881D02*
X180842873Y-59465357D01*
X180842873Y-59465357D02*
X180903349Y-59525833D01*
X180903349Y-59525833D02*
X180933587Y-59586309D01*
X180752159Y-59011785D02*
X180752159Y-58618690D01*
X180752159Y-58618690D02*
X180994063Y-58830357D01*
X180994063Y-58830357D02*
X180994063Y-58739642D01*
X180994063Y-58739642D02*
X181024301Y-58679166D01*
X181024301Y-58679166D02*
X181054540Y-58648928D01*
X181054540Y-58648928D02*
X181115016Y-58618690D01*
X181115016Y-58618690D02*
X181266206Y-58618690D01*
X181266206Y-58618690D02*
X181326682Y-58648928D01*
X181326682Y-58648928D02*
X181356921Y-58679166D01*
X181356921Y-58679166D02*
X181387159Y-58739642D01*
X181387159Y-58739642D02*
X181387159Y-58921071D01*
X181387159Y-58921071D02*
X181356921Y-58981547D01*
X181356921Y-58981547D02*
X181326682Y-59011785D01*
X164794166Y-68946682D02*
X164763928Y-68976921D01*
X164763928Y-68976921D02*
X164673214Y-69007159D01*
X164673214Y-69007159D02*
X164612738Y-69007159D01*
X164612738Y-69007159D02*
X164522023Y-68976921D01*
X164522023Y-68976921D02*
X164461547Y-68916444D01*
X164461547Y-68916444D02*
X164431309Y-68855968D01*
X164431309Y-68855968D02*
X164401071Y-68735016D01*
X164401071Y-68735016D02*
X164401071Y-68644301D01*
X164401071Y-68644301D02*
X164431309Y-68523349D01*
X164431309Y-68523349D02*
X164461547Y-68462873D01*
X164461547Y-68462873D02*
X164522023Y-68402397D01*
X164522023Y-68402397D02*
X164612738Y-68372159D01*
X164612738Y-68372159D02*
X164673214Y-68372159D01*
X164673214Y-68372159D02*
X164763928Y-68402397D01*
X164763928Y-68402397D02*
X164794166Y-68432635D01*
X165398928Y-69007159D02*
X165036071Y-69007159D01*
X165217499Y-69007159D02*
X165217499Y-68372159D01*
X165217499Y-68372159D02*
X165157023Y-68462873D01*
X165157023Y-68462873D02*
X165096547Y-68523349D01*
X165096547Y-68523349D02*
X165036071Y-68553587D01*
X158954166Y-64277159D02*
X158742499Y-63974778D01*
X158591309Y-64277159D02*
X158591309Y-63642159D01*
X158591309Y-63642159D02*
X158833214Y-63642159D01*
X158833214Y-63642159D02*
X158893690Y-63672397D01*
X158893690Y-63672397D02*
X158923928Y-63702635D01*
X158923928Y-63702635D02*
X158954166Y-63763111D01*
X158954166Y-63763111D02*
X158954166Y-63853825D01*
X158954166Y-63853825D02*
X158923928Y-63914301D01*
X158923928Y-63914301D02*
X158893690Y-63944540D01*
X158893690Y-63944540D02*
X158833214Y-63974778D01*
X158833214Y-63974778D02*
X158591309Y-63974778D01*
X159528690Y-63642159D02*
X159226309Y-63642159D01*
X159226309Y-63642159D02*
X159196071Y-63944540D01*
X159196071Y-63944540D02*
X159226309Y-63914301D01*
X159226309Y-63914301D02*
X159286785Y-63884063D01*
X159286785Y-63884063D02*
X159437976Y-63884063D01*
X159437976Y-63884063D02*
X159498452Y-63914301D01*
X159498452Y-63914301D02*
X159528690Y-63944540D01*
X159528690Y-63944540D02*
X159558928Y-64005016D01*
X159558928Y-64005016D02*
X159558928Y-64156206D01*
X159558928Y-64156206D02*
X159528690Y-64216682D01*
X159528690Y-64216682D02*
X159498452Y-64246921D01*
X159498452Y-64246921D02*
X159437976Y-64277159D01*
X159437976Y-64277159D02*
X159286785Y-64277159D01*
X159286785Y-64277159D02*
X159226309Y-64246921D01*
X159226309Y-64246921D02*
X159196071Y-64216682D01*
X173269523Y-89817635D02*
X173209047Y-89787397D01*
X173209047Y-89787397D02*
X173148571Y-89726921D01*
X173148571Y-89726921D02*
X173057857Y-89636206D01*
X173057857Y-89636206D02*
X172997380Y-89605968D01*
X172997380Y-89605968D02*
X172936904Y-89605968D01*
X172967142Y-89757159D02*
X172906666Y-89726921D01*
X172906666Y-89726921D02*
X172846190Y-89666444D01*
X172846190Y-89666444D02*
X172815952Y-89545492D01*
X172815952Y-89545492D02*
X172815952Y-89333825D01*
X172815952Y-89333825D02*
X172846190Y-89212873D01*
X172846190Y-89212873D02*
X172906666Y-89152397D01*
X172906666Y-89152397D02*
X172967142Y-89122159D01*
X172967142Y-89122159D02*
X173088095Y-89122159D01*
X173088095Y-89122159D02*
X173148571Y-89152397D01*
X173148571Y-89152397D02*
X173209047Y-89212873D01*
X173209047Y-89212873D02*
X173239285Y-89333825D01*
X173239285Y-89333825D02*
X173239285Y-89545492D01*
X173239285Y-89545492D02*
X173209047Y-89666444D01*
X173209047Y-89666444D02*
X173148571Y-89726921D01*
X173148571Y-89726921D02*
X173088095Y-89757159D01*
X173088095Y-89757159D02*
X172967142Y-89757159D01*
X173481190Y-89182635D02*
X173511428Y-89152397D01*
X173511428Y-89152397D02*
X173571904Y-89122159D01*
X173571904Y-89122159D02*
X173723095Y-89122159D01*
X173723095Y-89122159D02*
X173783571Y-89152397D01*
X173783571Y-89152397D02*
X173813809Y-89182635D01*
X173813809Y-89182635D02*
X173844047Y-89243111D01*
X173844047Y-89243111D02*
X173844047Y-89303587D01*
X173844047Y-89303587D02*
X173813809Y-89394301D01*
X173813809Y-89394301D02*
X173450952Y-89757159D01*
X173450952Y-89757159D02*
X173844047Y-89757159D01*
X186977159Y-96548214D02*
X186674778Y-96759881D01*
X186977159Y-96911071D02*
X186342159Y-96911071D01*
X186342159Y-96911071D02*
X186342159Y-96669166D01*
X186342159Y-96669166D02*
X186372397Y-96608690D01*
X186372397Y-96608690D02*
X186402635Y-96578452D01*
X186402635Y-96578452D02*
X186463111Y-96548214D01*
X186463111Y-96548214D02*
X186553825Y-96548214D01*
X186553825Y-96548214D02*
X186614301Y-96578452D01*
X186614301Y-96578452D02*
X186644540Y-96608690D01*
X186644540Y-96608690D02*
X186674778Y-96669166D01*
X186674778Y-96669166D02*
X186674778Y-96911071D01*
X186402635Y-96306309D02*
X186372397Y-96276071D01*
X186372397Y-96276071D02*
X186342159Y-96215595D01*
X186342159Y-96215595D02*
X186342159Y-96064404D01*
X186342159Y-96064404D02*
X186372397Y-96003928D01*
X186372397Y-96003928D02*
X186402635Y-95973690D01*
X186402635Y-95973690D02*
X186463111Y-95943452D01*
X186463111Y-95943452D02*
X186523587Y-95943452D01*
X186523587Y-95943452D02*
X186614301Y-95973690D01*
X186614301Y-95973690D02*
X186977159Y-96336547D01*
X186977159Y-96336547D02*
X186977159Y-95943452D01*
X186342159Y-95550357D02*
X186342159Y-95489880D01*
X186342159Y-95489880D02*
X186372397Y-95429404D01*
X186372397Y-95429404D02*
X186402635Y-95399166D01*
X186402635Y-95399166D02*
X186463111Y-95368928D01*
X186463111Y-95368928D02*
X186584063Y-95338690D01*
X186584063Y-95338690D02*
X186735254Y-95338690D01*
X186735254Y-95338690D02*
X186856206Y-95368928D01*
X186856206Y-95368928D02*
X186916682Y-95399166D01*
X186916682Y-95399166D02*
X186946921Y-95429404D01*
X186946921Y-95429404D02*
X186977159Y-95489880D01*
X186977159Y-95489880D02*
X186977159Y-95550357D01*
X186977159Y-95550357D02*
X186946921Y-95610833D01*
X186946921Y-95610833D02*
X186916682Y-95641071D01*
X186916682Y-95641071D02*
X186856206Y-95671309D01*
X186856206Y-95671309D02*
X186735254Y-95701547D01*
X186735254Y-95701547D02*
X186584063Y-95701547D01*
X186584063Y-95701547D02*
X186463111Y-95671309D01*
X186463111Y-95671309D02*
X186402635Y-95641071D01*
X186402635Y-95641071D02*
X186372397Y-95610833D01*
X186372397Y-95610833D02*
X186342159Y-95550357D01*
X165281309Y-95977159D02*
X165281309Y-95342159D01*
X165281309Y-95342159D02*
X165432499Y-95342159D01*
X165432499Y-95342159D02*
X165523214Y-95372397D01*
X165523214Y-95372397D02*
X165583690Y-95432873D01*
X165583690Y-95432873D02*
X165613928Y-95493349D01*
X165613928Y-95493349D02*
X165644166Y-95614301D01*
X165644166Y-95614301D02*
X165644166Y-95705016D01*
X165644166Y-95705016D02*
X165613928Y-95825968D01*
X165613928Y-95825968D02*
X165583690Y-95886444D01*
X165583690Y-95886444D02*
X165523214Y-95946921D01*
X165523214Y-95946921D02*
X165432499Y-95977159D01*
X165432499Y-95977159D02*
X165281309Y-95977159D01*
X165886071Y-95402635D02*
X165916309Y-95372397D01*
X165916309Y-95372397D02*
X165976785Y-95342159D01*
X165976785Y-95342159D02*
X166127976Y-95342159D01*
X166127976Y-95342159D02*
X166188452Y-95372397D01*
X166188452Y-95372397D02*
X166218690Y-95402635D01*
X166218690Y-95402635D02*
X166248928Y-95463111D01*
X166248928Y-95463111D02*
X166248928Y-95523587D01*
X166248928Y-95523587D02*
X166218690Y-95614301D01*
X166218690Y-95614301D02*
X165855833Y-95977159D01*
X165855833Y-95977159D02*
X166248928Y-95977159D01*
X149171309Y-72157159D02*
X149171309Y-71522159D01*
X149171309Y-71522159D02*
X149322499Y-71522159D01*
X149322499Y-71522159D02*
X149413214Y-71552397D01*
X149413214Y-71552397D02*
X149473690Y-71612873D01*
X149473690Y-71612873D02*
X149503928Y-71673349D01*
X149503928Y-71673349D02*
X149534166Y-71794301D01*
X149534166Y-71794301D02*
X149534166Y-71885016D01*
X149534166Y-71885016D02*
X149503928Y-72005968D01*
X149503928Y-72005968D02*
X149473690Y-72066444D01*
X149473690Y-72066444D02*
X149413214Y-72126921D01*
X149413214Y-72126921D02*
X149322499Y-72157159D01*
X149322499Y-72157159D02*
X149171309Y-72157159D01*
X149745833Y-71522159D02*
X150138928Y-71522159D01*
X150138928Y-71522159D02*
X149927261Y-71764063D01*
X149927261Y-71764063D02*
X150017976Y-71764063D01*
X150017976Y-71764063D02*
X150078452Y-71794301D01*
X150078452Y-71794301D02*
X150108690Y-71824540D01*
X150108690Y-71824540D02*
X150138928Y-71885016D01*
X150138928Y-71885016D02*
X150138928Y-72036206D01*
X150138928Y-72036206D02*
X150108690Y-72096682D01*
X150108690Y-72096682D02*
X150078452Y-72126921D01*
X150078452Y-72126921D02*
X150017976Y-72157159D01*
X150017976Y-72157159D02*
X149836547Y-72157159D01*
X149836547Y-72157159D02*
X149776071Y-72126921D01*
X149776071Y-72126921D02*
X149745833Y-72096682D01*
X177756682Y-104928214D02*
X177786921Y-104958452D01*
X177786921Y-104958452D02*
X177817159Y-105049166D01*
X177817159Y-105049166D02*
X177817159Y-105109642D01*
X177817159Y-105109642D02*
X177786921Y-105200357D01*
X177786921Y-105200357D02*
X177726444Y-105260833D01*
X177726444Y-105260833D02*
X177665968Y-105291071D01*
X177665968Y-105291071D02*
X177545016Y-105321309D01*
X177545016Y-105321309D02*
X177454301Y-105321309D01*
X177454301Y-105321309D02*
X177333349Y-105291071D01*
X177333349Y-105291071D02*
X177272873Y-105260833D01*
X177272873Y-105260833D02*
X177212397Y-105200357D01*
X177212397Y-105200357D02*
X177182159Y-105109642D01*
X177182159Y-105109642D02*
X177182159Y-105049166D01*
X177182159Y-105049166D02*
X177212397Y-104958452D01*
X177212397Y-104958452D02*
X177242635Y-104928214D01*
X177817159Y-104323452D02*
X177817159Y-104686309D01*
X177817159Y-104504881D02*
X177182159Y-104504881D01*
X177182159Y-104504881D02*
X177272873Y-104565357D01*
X177272873Y-104565357D02*
X177333349Y-104625833D01*
X177333349Y-104625833D02*
X177363587Y-104686309D01*
X177242635Y-104081547D02*
X177212397Y-104051309D01*
X177212397Y-104051309D02*
X177182159Y-103990833D01*
X177182159Y-103990833D02*
X177182159Y-103839642D01*
X177182159Y-103839642D02*
X177212397Y-103779166D01*
X177212397Y-103779166D02*
X177242635Y-103748928D01*
X177242635Y-103748928D02*
X177303111Y-103718690D01*
X177303111Y-103718690D02*
X177363587Y-103718690D01*
X177363587Y-103718690D02*
X177454301Y-103748928D01*
X177454301Y-103748928D02*
X177817159Y-104111785D01*
X177817159Y-104111785D02*
X177817159Y-103718690D01*
X165739166Y-73987159D02*
X165527499Y-73684778D01*
X165376309Y-73987159D02*
X165376309Y-73352159D01*
X165376309Y-73352159D02*
X165618214Y-73352159D01*
X165618214Y-73352159D02*
X165678690Y-73382397D01*
X165678690Y-73382397D02*
X165708928Y-73412635D01*
X165708928Y-73412635D02*
X165739166Y-73473111D01*
X165739166Y-73473111D02*
X165739166Y-73563825D01*
X165739166Y-73563825D02*
X165708928Y-73624301D01*
X165708928Y-73624301D02*
X165678690Y-73654540D01*
X165678690Y-73654540D02*
X165618214Y-73684778D01*
X165618214Y-73684778D02*
X165376309Y-73684778D01*
X166102023Y-73624301D02*
X166041547Y-73594063D01*
X166041547Y-73594063D02*
X166011309Y-73563825D01*
X166011309Y-73563825D02*
X165981071Y-73503349D01*
X165981071Y-73503349D02*
X165981071Y-73473111D01*
X165981071Y-73473111D02*
X166011309Y-73412635D01*
X166011309Y-73412635D02*
X166041547Y-73382397D01*
X166041547Y-73382397D02*
X166102023Y-73352159D01*
X166102023Y-73352159D02*
X166222976Y-73352159D01*
X166222976Y-73352159D02*
X166283452Y-73382397D01*
X166283452Y-73382397D02*
X166313690Y-73412635D01*
X166313690Y-73412635D02*
X166343928Y-73473111D01*
X166343928Y-73473111D02*
X166343928Y-73503349D01*
X166343928Y-73503349D02*
X166313690Y-73563825D01*
X166313690Y-73563825D02*
X166283452Y-73594063D01*
X166283452Y-73594063D02*
X166222976Y-73624301D01*
X166222976Y-73624301D02*
X166102023Y-73624301D01*
X166102023Y-73624301D02*
X166041547Y-73654540D01*
X166041547Y-73654540D02*
X166011309Y-73684778D01*
X166011309Y-73684778D02*
X165981071Y-73745254D01*
X165981071Y-73745254D02*
X165981071Y-73866206D01*
X165981071Y-73866206D02*
X166011309Y-73926682D01*
X166011309Y-73926682D02*
X166041547Y-73956921D01*
X166041547Y-73956921D02*
X166102023Y-73987159D01*
X166102023Y-73987159D02*
X166222976Y-73987159D01*
X166222976Y-73987159D02*
X166283452Y-73956921D01*
X166283452Y-73956921D02*
X166313690Y-73926682D01*
X166313690Y-73926682D02*
X166343928Y-73866206D01*
X166343928Y-73866206D02*
X166343928Y-73745254D01*
X166343928Y-73745254D02*
X166313690Y-73684778D01*
X166313690Y-73684778D02*
X166283452Y-73654540D01*
X166283452Y-73654540D02*
X166222976Y-73624301D01*
X190676682Y-114638214D02*
X190706921Y-114668452D01*
X190706921Y-114668452D02*
X190737159Y-114759166D01*
X190737159Y-114759166D02*
X190737159Y-114819642D01*
X190737159Y-114819642D02*
X190706921Y-114910357D01*
X190706921Y-114910357D02*
X190646444Y-114970833D01*
X190646444Y-114970833D02*
X190585968Y-115001071D01*
X190585968Y-115001071D02*
X190465016Y-115031309D01*
X190465016Y-115031309D02*
X190374301Y-115031309D01*
X190374301Y-115031309D02*
X190253349Y-115001071D01*
X190253349Y-115001071D02*
X190192873Y-114970833D01*
X190192873Y-114970833D02*
X190132397Y-114910357D01*
X190132397Y-114910357D02*
X190102159Y-114819642D01*
X190102159Y-114819642D02*
X190102159Y-114759166D01*
X190102159Y-114759166D02*
X190132397Y-114668452D01*
X190132397Y-114668452D02*
X190162635Y-114638214D01*
X190162635Y-114396309D02*
X190132397Y-114366071D01*
X190132397Y-114366071D02*
X190102159Y-114305595D01*
X190102159Y-114305595D02*
X190102159Y-114154404D01*
X190102159Y-114154404D02*
X190132397Y-114093928D01*
X190132397Y-114093928D02*
X190162635Y-114063690D01*
X190162635Y-114063690D02*
X190223111Y-114033452D01*
X190223111Y-114033452D02*
X190283587Y-114033452D01*
X190283587Y-114033452D02*
X190374301Y-114063690D01*
X190374301Y-114063690D02*
X190737159Y-114426547D01*
X190737159Y-114426547D02*
X190737159Y-114033452D01*
X190737159Y-113731071D02*
X190737159Y-113610119D01*
X190737159Y-113610119D02*
X190706921Y-113549642D01*
X190706921Y-113549642D02*
X190676682Y-113519404D01*
X190676682Y-113519404D02*
X190585968Y-113458928D01*
X190585968Y-113458928D02*
X190465016Y-113428690D01*
X190465016Y-113428690D02*
X190223111Y-113428690D01*
X190223111Y-113428690D02*
X190162635Y-113458928D01*
X190162635Y-113458928D02*
X190132397Y-113489166D01*
X190132397Y-113489166D02*
X190102159Y-113549642D01*
X190102159Y-113549642D02*
X190102159Y-113670595D01*
X190102159Y-113670595D02*
X190132397Y-113731071D01*
X190132397Y-113731071D02*
X190162635Y-113761309D01*
X190162635Y-113761309D02*
X190223111Y-113791547D01*
X190223111Y-113791547D02*
X190374301Y-113791547D01*
X190374301Y-113791547D02*
X190434778Y-113761309D01*
X190434778Y-113761309D02*
X190465016Y-113731071D01*
X190465016Y-113731071D02*
X190495254Y-113670595D01*
X190495254Y-113670595D02*
X190495254Y-113549642D01*
X190495254Y-113549642D02*
X190465016Y-113489166D01*
X190465016Y-113489166D02*
X190434778Y-113458928D01*
X190434778Y-113458928D02*
X190374301Y-113428690D01*
X194151785Y-109697159D02*
X193940118Y-109394778D01*
X193788928Y-109697159D02*
X193788928Y-109062159D01*
X193788928Y-109062159D02*
X194030833Y-109062159D01*
X194030833Y-109062159D02*
X194091309Y-109092397D01*
X194091309Y-109092397D02*
X194121547Y-109122635D01*
X194121547Y-109122635D02*
X194151785Y-109183111D01*
X194151785Y-109183111D02*
X194151785Y-109273825D01*
X194151785Y-109273825D02*
X194121547Y-109334301D01*
X194121547Y-109334301D02*
X194091309Y-109364540D01*
X194091309Y-109364540D02*
X194030833Y-109394778D01*
X194030833Y-109394778D02*
X193788928Y-109394778D01*
X194393690Y-109122635D02*
X194423928Y-109092397D01*
X194423928Y-109092397D02*
X194484404Y-109062159D01*
X194484404Y-109062159D02*
X194635595Y-109062159D01*
X194635595Y-109062159D02*
X194696071Y-109092397D01*
X194696071Y-109092397D02*
X194726309Y-109122635D01*
X194726309Y-109122635D02*
X194756547Y-109183111D01*
X194756547Y-109183111D02*
X194756547Y-109243587D01*
X194756547Y-109243587D02*
X194726309Y-109334301D01*
X194726309Y-109334301D02*
X194363452Y-109697159D01*
X194363452Y-109697159D02*
X194756547Y-109697159D01*
X194968214Y-109062159D02*
X195361309Y-109062159D01*
X195361309Y-109062159D02*
X195149642Y-109304063D01*
X195149642Y-109304063D02*
X195240357Y-109304063D01*
X195240357Y-109304063D02*
X195300833Y-109334301D01*
X195300833Y-109334301D02*
X195331071Y-109364540D01*
X195331071Y-109364540D02*
X195361309Y-109425016D01*
X195361309Y-109425016D02*
X195361309Y-109576206D01*
X195361309Y-109576206D02*
X195331071Y-109636682D01*
X195331071Y-109636682D02*
X195300833Y-109666921D01*
X195300833Y-109666921D02*
X195240357Y-109697159D01*
X195240357Y-109697159D02*
X195058928Y-109697159D01*
X195058928Y-109697159D02*
X194998452Y-109666921D01*
X194998452Y-109666921D02*
X194968214Y-109636682D01*
X186421785Y-119536682D02*
X186391547Y-119566921D01*
X186391547Y-119566921D02*
X186300833Y-119597159D01*
X186300833Y-119597159D02*
X186240357Y-119597159D01*
X186240357Y-119597159D02*
X186149642Y-119566921D01*
X186149642Y-119566921D02*
X186089166Y-119506444D01*
X186089166Y-119506444D02*
X186058928Y-119445968D01*
X186058928Y-119445968D02*
X186028690Y-119325016D01*
X186028690Y-119325016D02*
X186028690Y-119234301D01*
X186028690Y-119234301D02*
X186058928Y-119113349D01*
X186058928Y-119113349D02*
X186089166Y-119052873D01*
X186089166Y-119052873D02*
X186149642Y-118992397D01*
X186149642Y-118992397D02*
X186240357Y-118962159D01*
X186240357Y-118962159D02*
X186300833Y-118962159D01*
X186300833Y-118962159D02*
X186391547Y-118992397D01*
X186391547Y-118992397D02*
X186421785Y-119022635D01*
X187026547Y-119597159D02*
X186663690Y-119597159D01*
X186845118Y-119597159D02*
X186845118Y-118962159D01*
X186845118Y-118962159D02*
X186784642Y-119052873D01*
X186784642Y-119052873D02*
X186724166Y-119113349D01*
X186724166Y-119113349D02*
X186663690Y-119143587D01*
X187238214Y-118962159D02*
X187631309Y-118962159D01*
X187631309Y-118962159D02*
X187419642Y-119204063D01*
X187419642Y-119204063D02*
X187510357Y-119204063D01*
X187510357Y-119204063D02*
X187570833Y-119234301D01*
X187570833Y-119234301D02*
X187601071Y-119264540D01*
X187601071Y-119264540D02*
X187631309Y-119325016D01*
X187631309Y-119325016D02*
X187631309Y-119476206D01*
X187631309Y-119476206D02*
X187601071Y-119536682D01*
X187601071Y-119536682D02*
X187570833Y-119566921D01*
X187570833Y-119566921D02*
X187510357Y-119597159D01*
X187510357Y-119597159D02*
X187328928Y-119597159D01*
X187328928Y-119597159D02*
X187268452Y-119566921D01*
X187268452Y-119566921D02*
X187238214Y-119536682D01*
X193461785Y-103817159D02*
X193250118Y-103514778D01*
X193098928Y-103817159D02*
X193098928Y-103182159D01*
X193098928Y-103182159D02*
X193340833Y-103182159D01*
X193340833Y-103182159D02*
X193401309Y-103212397D01*
X193401309Y-103212397D02*
X193431547Y-103242635D01*
X193431547Y-103242635D02*
X193461785Y-103303111D01*
X193461785Y-103303111D02*
X193461785Y-103393825D01*
X193461785Y-103393825D02*
X193431547Y-103454301D01*
X193431547Y-103454301D02*
X193401309Y-103484540D01*
X193401309Y-103484540D02*
X193340833Y-103514778D01*
X193340833Y-103514778D02*
X193098928Y-103514778D01*
X194066547Y-103817159D02*
X193703690Y-103817159D01*
X193885118Y-103817159D02*
X193885118Y-103182159D01*
X193885118Y-103182159D02*
X193824642Y-103272873D01*
X193824642Y-103272873D02*
X193764166Y-103333349D01*
X193764166Y-103333349D02*
X193703690Y-103363587D01*
X194278214Y-103182159D02*
X194701547Y-103182159D01*
X194701547Y-103182159D02*
X194429404Y-103817159D01*
X195482840Y-105831785D02*
X195785221Y-105620118D01*
X195482840Y-105468928D02*
X196117840Y-105468928D01*
X196117840Y-105468928D02*
X196117840Y-105710833D01*
X196117840Y-105710833D02*
X196087602Y-105771309D01*
X196087602Y-105771309D02*
X196057364Y-105801547D01*
X196057364Y-105801547D02*
X195996888Y-105831785D01*
X195996888Y-105831785D02*
X195906174Y-105831785D01*
X195906174Y-105831785D02*
X195845698Y-105801547D01*
X195845698Y-105801547D02*
X195815459Y-105771309D01*
X195815459Y-105771309D02*
X195785221Y-105710833D01*
X195785221Y-105710833D02*
X195785221Y-105468928D01*
X195482840Y-106436547D02*
X195482840Y-106073690D01*
X195482840Y-106255118D02*
X196117840Y-106255118D01*
X196117840Y-106255118D02*
X196027126Y-106194642D01*
X196027126Y-106194642D02*
X195966650Y-106134166D01*
X195966650Y-106134166D02*
X195936412Y-106073690D01*
X195482840Y-106738928D02*
X195482840Y-106859880D01*
X195482840Y-106859880D02*
X195513079Y-106920357D01*
X195513079Y-106920357D02*
X195543317Y-106950595D01*
X195543317Y-106950595D02*
X195634031Y-107011071D01*
X195634031Y-107011071D02*
X195754983Y-107041309D01*
X195754983Y-107041309D02*
X195996888Y-107041309D01*
X195996888Y-107041309D02*
X196057364Y-107011071D01*
X196057364Y-107011071D02*
X196087602Y-106980833D01*
X196087602Y-106980833D02*
X196117840Y-106920357D01*
X196117840Y-106920357D02*
X196117840Y-106799404D01*
X196117840Y-106799404D02*
X196087602Y-106738928D01*
X196087602Y-106738928D02*
X196057364Y-106708690D01*
X196057364Y-106708690D02*
X195996888Y-106678452D01*
X195996888Y-106678452D02*
X195845698Y-106678452D01*
X195845698Y-106678452D02*
X195785221Y-106708690D01*
X195785221Y-106708690D02*
X195754983Y-106738928D01*
X195754983Y-106738928D02*
X195724745Y-106799404D01*
X195724745Y-106799404D02*
X195724745Y-106920357D01*
X195724745Y-106920357D02*
X195754983Y-106980833D01*
X195754983Y-106980833D02*
X195785221Y-107011071D01*
X195785221Y-107011071D02*
X195845698Y-107041309D01*
X149071309Y-75047159D02*
X149071309Y-74412159D01*
X149071309Y-74412159D02*
X149222499Y-74412159D01*
X149222499Y-74412159D02*
X149313214Y-74442397D01*
X149313214Y-74442397D02*
X149373690Y-74502873D01*
X149373690Y-74502873D02*
X149403928Y-74563349D01*
X149403928Y-74563349D02*
X149434166Y-74684301D01*
X149434166Y-74684301D02*
X149434166Y-74775016D01*
X149434166Y-74775016D02*
X149403928Y-74895968D01*
X149403928Y-74895968D02*
X149373690Y-74956444D01*
X149373690Y-74956444D02*
X149313214Y-75016921D01*
X149313214Y-75016921D02*
X149222499Y-75047159D01*
X149222499Y-75047159D02*
X149071309Y-75047159D01*
X149978452Y-74623825D02*
X149978452Y-75047159D01*
X149827261Y-74381921D02*
X149676071Y-74835492D01*
X149676071Y-74835492D02*
X150069166Y-74835492D01*
X185076682Y-101648214D02*
X185106921Y-101678452D01*
X185106921Y-101678452D02*
X185137159Y-101769166D01*
X185137159Y-101769166D02*
X185137159Y-101829642D01*
X185137159Y-101829642D02*
X185106921Y-101920357D01*
X185106921Y-101920357D02*
X185046444Y-101980833D01*
X185046444Y-101980833D02*
X184985968Y-102011071D01*
X184985968Y-102011071D02*
X184865016Y-102041309D01*
X184865016Y-102041309D02*
X184774301Y-102041309D01*
X184774301Y-102041309D02*
X184653349Y-102011071D01*
X184653349Y-102011071D02*
X184592873Y-101980833D01*
X184592873Y-101980833D02*
X184532397Y-101920357D01*
X184532397Y-101920357D02*
X184502159Y-101829642D01*
X184502159Y-101829642D02*
X184502159Y-101769166D01*
X184502159Y-101769166D02*
X184532397Y-101678452D01*
X184532397Y-101678452D02*
X184562635Y-101648214D01*
X184502159Y-101436547D02*
X184502159Y-101043452D01*
X184502159Y-101043452D02*
X184744063Y-101255119D01*
X184744063Y-101255119D02*
X184744063Y-101164404D01*
X184744063Y-101164404D02*
X184774301Y-101103928D01*
X184774301Y-101103928D02*
X184804540Y-101073690D01*
X184804540Y-101073690D02*
X184865016Y-101043452D01*
X184865016Y-101043452D02*
X185016206Y-101043452D01*
X185016206Y-101043452D02*
X185076682Y-101073690D01*
X185076682Y-101073690D02*
X185106921Y-101103928D01*
X185106921Y-101103928D02*
X185137159Y-101164404D01*
X185137159Y-101164404D02*
X185137159Y-101345833D01*
X185137159Y-101345833D02*
X185106921Y-101406309D01*
X185106921Y-101406309D02*
X185076682Y-101436547D01*
X184502159Y-100650357D02*
X184502159Y-100589880D01*
X184502159Y-100589880D02*
X184532397Y-100529404D01*
X184532397Y-100529404D02*
X184562635Y-100499166D01*
X184562635Y-100499166D02*
X184623111Y-100468928D01*
X184623111Y-100468928D02*
X184744063Y-100438690D01*
X184744063Y-100438690D02*
X184895254Y-100438690D01*
X184895254Y-100438690D02*
X185016206Y-100468928D01*
X185016206Y-100468928D02*
X185076682Y-100499166D01*
X185076682Y-100499166D02*
X185106921Y-100529404D01*
X185106921Y-100529404D02*
X185137159Y-100589880D01*
X185137159Y-100589880D02*
X185137159Y-100650357D01*
X185137159Y-100650357D02*
X185106921Y-100710833D01*
X185106921Y-100710833D02*
X185076682Y-100741071D01*
X185076682Y-100741071D02*
X185016206Y-100771309D01*
X185016206Y-100771309D02*
X184895254Y-100801547D01*
X184895254Y-100801547D02*
X184744063Y-100801547D01*
X184744063Y-100801547D02*
X184623111Y-100771309D01*
X184623111Y-100771309D02*
X184562635Y-100741071D01*
X184562635Y-100741071D02*
X184532397Y-100710833D01*
X184532397Y-100710833D02*
X184502159Y-100650357D01*
X179621785Y-100696682D02*
X179591547Y-100726921D01*
X179591547Y-100726921D02*
X179500833Y-100757159D01*
X179500833Y-100757159D02*
X179440357Y-100757159D01*
X179440357Y-100757159D02*
X179349642Y-100726921D01*
X179349642Y-100726921D02*
X179289166Y-100666444D01*
X179289166Y-100666444D02*
X179258928Y-100605968D01*
X179258928Y-100605968D02*
X179228690Y-100485016D01*
X179228690Y-100485016D02*
X179228690Y-100394301D01*
X179228690Y-100394301D02*
X179258928Y-100273349D01*
X179258928Y-100273349D02*
X179289166Y-100212873D01*
X179289166Y-100212873D02*
X179349642Y-100152397D01*
X179349642Y-100152397D02*
X179440357Y-100122159D01*
X179440357Y-100122159D02*
X179500833Y-100122159D01*
X179500833Y-100122159D02*
X179591547Y-100152397D01*
X179591547Y-100152397D02*
X179621785Y-100182635D01*
X180226547Y-100757159D02*
X179863690Y-100757159D01*
X180045118Y-100757159D02*
X180045118Y-100122159D01*
X180045118Y-100122159D02*
X179984642Y-100212873D01*
X179984642Y-100212873D02*
X179924166Y-100273349D01*
X179924166Y-100273349D02*
X179863690Y-100303587D01*
X180528928Y-100757159D02*
X180649880Y-100757159D01*
X180649880Y-100757159D02*
X180710357Y-100726921D01*
X180710357Y-100726921D02*
X180740595Y-100696682D01*
X180740595Y-100696682D02*
X180801071Y-100605968D01*
X180801071Y-100605968D02*
X180831309Y-100485016D01*
X180831309Y-100485016D02*
X180831309Y-100243111D01*
X180831309Y-100243111D02*
X180801071Y-100182635D01*
X180801071Y-100182635D02*
X180770833Y-100152397D01*
X180770833Y-100152397D02*
X180710357Y-100122159D01*
X180710357Y-100122159D02*
X180589404Y-100122159D01*
X180589404Y-100122159D02*
X180528928Y-100152397D01*
X180528928Y-100152397D02*
X180498690Y-100182635D01*
X180498690Y-100182635D02*
X180468452Y-100243111D01*
X180468452Y-100243111D02*
X180468452Y-100394301D01*
X180468452Y-100394301D02*
X180498690Y-100454778D01*
X180498690Y-100454778D02*
X180528928Y-100485016D01*
X180528928Y-100485016D02*
X180589404Y-100515254D01*
X180589404Y-100515254D02*
X180710357Y-100515254D01*
X180710357Y-100515254D02*
X180770833Y-100485016D01*
X180770833Y-100485016D02*
X180801071Y-100454778D01*
X180801071Y-100454778D02*
X180831309Y-100394301D01*
X186431785Y-121436682D02*
X186401547Y-121466921D01*
X186401547Y-121466921D02*
X186310833Y-121497159D01*
X186310833Y-121497159D02*
X186250357Y-121497159D01*
X186250357Y-121497159D02*
X186159642Y-121466921D01*
X186159642Y-121466921D02*
X186099166Y-121406444D01*
X186099166Y-121406444D02*
X186068928Y-121345968D01*
X186068928Y-121345968D02*
X186038690Y-121225016D01*
X186038690Y-121225016D02*
X186038690Y-121134301D01*
X186038690Y-121134301D02*
X186068928Y-121013349D01*
X186068928Y-121013349D02*
X186099166Y-120952873D01*
X186099166Y-120952873D02*
X186159642Y-120892397D01*
X186159642Y-120892397D02*
X186250357Y-120862159D01*
X186250357Y-120862159D02*
X186310833Y-120862159D01*
X186310833Y-120862159D02*
X186401547Y-120892397D01*
X186401547Y-120892397D02*
X186431785Y-120922635D01*
X187036547Y-121497159D02*
X186673690Y-121497159D01*
X186855118Y-121497159D02*
X186855118Y-120862159D01*
X186855118Y-120862159D02*
X186794642Y-120952873D01*
X186794642Y-120952873D02*
X186734166Y-121013349D01*
X186734166Y-121013349D02*
X186673690Y-121043587D01*
X187611071Y-120862159D02*
X187308690Y-120862159D01*
X187308690Y-120862159D02*
X187278452Y-121164540D01*
X187278452Y-121164540D02*
X187308690Y-121134301D01*
X187308690Y-121134301D02*
X187369166Y-121104063D01*
X187369166Y-121104063D02*
X187520357Y-121104063D01*
X187520357Y-121104063D02*
X187580833Y-121134301D01*
X187580833Y-121134301D02*
X187611071Y-121164540D01*
X187611071Y-121164540D02*
X187641309Y-121225016D01*
X187641309Y-121225016D02*
X187641309Y-121376206D01*
X187641309Y-121376206D02*
X187611071Y-121436682D01*
X187611071Y-121436682D02*
X187580833Y-121466921D01*
X187580833Y-121466921D02*
X187520357Y-121497159D01*
X187520357Y-121497159D02*
X187369166Y-121497159D01*
X187369166Y-121497159D02*
X187308690Y-121466921D01*
X187308690Y-121466921D02*
X187278452Y-121436682D01*
X179651785Y-103496682D02*
X179621547Y-103526921D01*
X179621547Y-103526921D02*
X179530833Y-103557159D01*
X179530833Y-103557159D02*
X179470357Y-103557159D01*
X179470357Y-103557159D02*
X179379642Y-103526921D01*
X179379642Y-103526921D02*
X179319166Y-103466444D01*
X179319166Y-103466444D02*
X179288928Y-103405968D01*
X179288928Y-103405968D02*
X179258690Y-103285016D01*
X179258690Y-103285016D02*
X179258690Y-103194301D01*
X179258690Y-103194301D02*
X179288928Y-103073349D01*
X179288928Y-103073349D02*
X179319166Y-103012873D01*
X179319166Y-103012873D02*
X179379642Y-102952397D01*
X179379642Y-102952397D02*
X179470357Y-102922159D01*
X179470357Y-102922159D02*
X179530833Y-102922159D01*
X179530833Y-102922159D02*
X179621547Y-102952397D01*
X179621547Y-102952397D02*
X179651785Y-102982635D01*
X180256547Y-103557159D02*
X179893690Y-103557159D01*
X180075118Y-103557159D02*
X180075118Y-102922159D01*
X180075118Y-102922159D02*
X180014642Y-103012873D01*
X180014642Y-103012873D02*
X179954166Y-103073349D01*
X179954166Y-103073349D02*
X179893690Y-103103587D01*
X180468214Y-102922159D02*
X180891547Y-102922159D01*
X180891547Y-102922159D02*
X180619404Y-103557159D01*
X167466190Y-72142159D02*
X167466190Y-72656206D01*
X167466190Y-72656206D02*
X167496428Y-72716682D01*
X167496428Y-72716682D02*
X167526666Y-72746921D01*
X167526666Y-72746921D02*
X167587142Y-72777159D01*
X167587142Y-72777159D02*
X167708095Y-72777159D01*
X167708095Y-72777159D02*
X167768571Y-72746921D01*
X167768571Y-72746921D02*
X167798809Y-72716682D01*
X167798809Y-72716682D02*
X167829047Y-72656206D01*
X167829047Y-72656206D02*
X167829047Y-72142159D01*
X168101190Y-72202635D02*
X168131428Y-72172397D01*
X168131428Y-72172397D02*
X168191904Y-72142159D01*
X168191904Y-72142159D02*
X168343095Y-72142159D01*
X168343095Y-72142159D02*
X168403571Y-72172397D01*
X168403571Y-72172397D02*
X168433809Y-72202635D01*
X168433809Y-72202635D02*
X168464047Y-72263111D01*
X168464047Y-72263111D02*
X168464047Y-72323587D01*
X168464047Y-72323587D02*
X168433809Y-72414301D01*
X168433809Y-72414301D02*
X168070952Y-72777159D01*
X168070952Y-72777159D02*
X168464047Y-72777159D01*
X188031785Y-105027159D02*
X187820118Y-104724778D01*
X187668928Y-105027159D02*
X187668928Y-104392159D01*
X187668928Y-104392159D02*
X187910833Y-104392159D01*
X187910833Y-104392159D02*
X187971309Y-104422397D01*
X187971309Y-104422397D02*
X188001547Y-104452635D01*
X188001547Y-104452635D02*
X188031785Y-104513111D01*
X188031785Y-104513111D02*
X188031785Y-104603825D01*
X188031785Y-104603825D02*
X188001547Y-104664301D01*
X188001547Y-104664301D02*
X187971309Y-104694540D01*
X187971309Y-104694540D02*
X187910833Y-104724778D01*
X187910833Y-104724778D02*
X187668928Y-104724778D01*
X188636547Y-105027159D02*
X188273690Y-105027159D01*
X188455118Y-105027159D02*
X188455118Y-104392159D01*
X188455118Y-104392159D02*
X188394642Y-104482873D01*
X188394642Y-104482873D02*
X188334166Y-104543349D01*
X188334166Y-104543349D02*
X188273690Y-104573587D01*
X189180833Y-104392159D02*
X189059880Y-104392159D01*
X189059880Y-104392159D02*
X188999404Y-104422397D01*
X188999404Y-104422397D02*
X188969166Y-104452635D01*
X188969166Y-104452635D02*
X188908690Y-104543349D01*
X188908690Y-104543349D02*
X188878452Y-104664301D01*
X188878452Y-104664301D02*
X188878452Y-104906206D01*
X188878452Y-104906206D02*
X188908690Y-104966682D01*
X188908690Y-104966682D02*
X188938928Y-104996921D01*
X188938928Y-104996921D02*
X188999404Y-105027159D01*
X188999404Y-105027159D02*
X189120357Y-105027159D01*
X189120357Y-105027159D02*
X189180833Y-104996921D01*
X189180833Y-104996921D02*
X189211071Y-104966682D01*
X189211071Y-104966682D02*
X189241309Y-104906206D01*
X189241309Y-104906206D02*
X189241309Y-104755016D01*
X189241309Y-104755016D02*
X189211071Y-104694540D01*
X189211071Y-104694540D02*
X189180833Y-104664301D01*
X189180833Y-104664301D02*
X189120357Y-104634063D01*
X189120357Y-104634063D02*
X188999404Y-104634063D01*
X188999404Y-104634063D02*
X188938928Y-104664301D01*
X188938928Y-104664301D02*
X188908690Y-104694540D01*
X188908690Y-104694540D02*
X188878452Y-104755016D01*
X149077159Y-94473214D02*
X148774778Y-94684881D01*
X149077159Y-94836071D02*
X148442159Y-94836071D01*
X148442159Y-94836071D02*
X148442159Y-94594166D01*
X148442159Y-94594166D02*
X148472397Y-94533690D01*
X148472397Y-94533690D02*
X148502635Y-94503452D01*
X148502635Y-94503452D02*
X148563111Y-94473214D01*
X148563111Y-94473214D02*
X148653825Y-94473214D01*
X148653825Y-94473214D02*
X148714301Y-94503452D01*
X148714301Y-94503452D02*
X148744540Y-94533690D01*
X148744540Y-94533690D02*
X148774778Y-94594166D01*
X148774778Y-94594166D02*
X148774778Y-94836071D01*
X148502635Y-94231309D02*
X148472397Y-94201071D01*
X148472397Y-94201071D02*
X148442159Y-94140595D01*
X148442159Y-94140595D02*
X148442159Y-93989404D01*
X148442159Y-93989404D02*
X148472397Y-93928928D01*
X148472397Y-93928928D02*
X148502635Y-93898690D01*
X148502635Y-93898690D02*
X148563111Y-93868452D01*
X148563111Y-93868452D02*
X148623587Y-93868452D01*
X148623587Y-93868452D02*
X148714301Y-93898690D01*
X148714301Y-93898690D02*
X149077159Y-94261547D01*
X149077159Y-94261547D02*
X149077159Y-93868452D01*
X148442159Y-93324166D02*
X148442159Y-93445119D01*
X148442159Y-93445119D02*
X148472397Y-93505595D01*
X148472397Y-93505595D02*
X148502635Y-93535833D01*
X148502635Y-93535833D02*
X148593349Y-93596309D01*
X148593349Y-93596309D02*
X148714301Y-93626547D01*
X148714301Y-93626547D02*
X148956206Y-93626547D01*
X148956206Y-93626547D02*
X149016682Y-93596309D01*
X149016682Y-93596309D02*
X149046921Y-93566071D01*
X149046921Y-93566071D02*
X149077159Y-93505595D01*
X149077159Y-93505595D02*
X149077159Y-93384642D01*
X149077159Y-93384642D02*
X149046921Y-93324166D01*
X149046921Y-93324166D02*
X149016682Y-93293928D01*
X149016682Y-93293928D02*
X148956206Y-93263690D01*
X148956206Y-93263690D02*
X148805016Y-93263690D01*
X148805016Y-93263690D02*
X148744540Y-93293928D01*
X148744540Y-93293928D02*
X148714301Y-93324166D01*
X148714301Y-93324166D02*
X148684063Y-93384642D01*
X148684063Y-93384642D02*
X148684063Y-93505595D01*
X148684063Y-93505595D02*
X148714301Y-93566071D01*
X148714301Y-93566071D02*
X148744540Y-93596309D01*
X148744540Y-93596309D02*
X148805016Y-93626547D01*
X163414166Y-66176682D02*
X163383928Y-66206921D01*
X163383928Y-66206921D02*
X163293214Y-66237159D01*
X163293214Y-66237159D02*
X163232738Y-66237159D01*
X163232738Y-66237159D02*
X163142023Y-66206921D01*
X163142023Y-66206921D02*
X163081547Y-66146444D01*
X163081547Y-66146444D02*
X163051309Y-66085968D01*
X163051309Y-66085968D02*
X163021071Y-65965016D01*
X163021071Y-65965016D02*
X163021071Y-65874301D01*
X163021071Y-65874301D02*
X163051309Y-65753349D01*
X163051309Y-65753349D02*
X163081547Y-65692873D01*
X163081547Y-65692873D02*
X163142023Y-65632397D01*
X163142023Y-65632397D02*
X163232738Y-65602159D01*
X163232738Y-65602159D02*
X163293214Y-65602159D01*
X163293214Y-65602159D02*
X163383928Y-65632397D01*
X163383928Y-65632397D02*
X163414166Y-65662635D01*
X163656071Y-65662635D02*
X163686309Y-65632397D01*
X163686309Y-65632397D02*
X163746785Y-65602159D01*
X163746785Y-65602159D02*
X163897976Y-65602159D01*
X163897976Y-65602159D02*
X163958452Y-65632397D01*
X163958452Y-65632397D02*
X163988690Y-65662635D01*
X163988690Y-65662635D02*
X164018928Y-65723111D01*
X164018928Y-65723111D02*
X164018928Y-65783587D01*
X164018928Y-65783587D02*
X163988690Y-65874301D01*
X163988690Y-65874301D02*
X163625833Y-66237159D01*
X163625833Y-66237159D02*
X164018928Y-66237159D01*
X170971785Y-58947159D02*
X170760118Y-58644778D01*
X170608928Y-58947159D02*
X170608928Y-58312159D01*
X170608928Y-58312159D02*
X170850833Y-58312159D01*
X170850833Y-58312159D02*
X170911309Y-58342397D01*
X170911309Y-58342397D02*
X170941547Y-58372635D01*
X170941547Y-58372635D02*
X170971785Y-58433111D01*
X170971785Y-58433111D02*
X170971785Y-58523825D01*
X170971785Y-58523825D02*
X170941547Y-58584301D01*
X170941547Y-58584301D02*
X170911309Y-58614540D01*
X170911309Y-58614540D02*
X170850833Y-58644778D01*
X170850833Y-58644778D02*
X170608928Y-58644778D01*
X171213690Y-58372635D02*
X171243928Y-58342397D01*
X171243928Y-58342397D02*
X171304404Y-58312159D01*
X171304404Y-58312159D02*
X171455595Y-58312159D01*
X171455595Y-58312159D02*
X171516071Y-58342397D01*
X171516071Y-58342397D02*
X171546309Y-58372635D01*
X171546309Y-58372635D02*
X171576547Y-58433111D01*
X171576547Y-58433111D02*
X171576547Y-58493587D01*
X171576547Y-58493587D02*
X171546309Y-58584301D01*
X171546309Y-58584301D02*
X171183452Y-58947159D01*
X171183452Y-58947159D02*
X171576547Y-58947159D01*
X171788214Y-58312159D02*
X172211547Y-58312159D01*
X172211547Y-58312159D02*
X171939404Y-58947159D01*
X172154166Y-70226682D02*
X172123928Y-70256921D01*
X172123928Y-70256921D02*
X172033214Y-70287159D01*
X172033214Y-70287159D02*
X171972738Y-70287159D01*
X171972738Y-70287159D02*
X171882023Y-70256921D01*
X171882023Y-70256921D02*
X171821547Y-70196444D01*
X171821547Y-70196444D02*
X171791309Y-70135968D01*
X171791309Y-70135968D02*
X171761071Y-70015016D01*
X171761071Y-70015016D02*
X171761071Y-69924301D01*
X171761071Y-69924301D02*
X171791309Y-69803349D01*
X171791309Y-69803349D02*
X171821547Y-69742873D01*
X171821547Y-69742873D02*
X171882023Y-69682397D01*
X171882023Y-69682397D02*
X171972738Y-69652159D01*
X171972738Y-69652159D02*
X172033214Y-69652159D01*
X172033214Y-69652159D02*
X172123928Y-69682397D01*
X172123928Y-69682397D02*
X172154166Y-69712635D01*
X172365833Y-69652159D02*
X172758928Y-69652159D01*
X172758928Y-69652159D02*
X172547261Y-69894063D01*
X172547261Y-69894063D02*
X172637976Y-69894063D01*
X172637976Y-69894063D02*
X172698452Y-69924301D01*
X172698452Y-69924301D02*
X172728690Y-69954540D01*
X172728690Y-69954540D02*
X172758928Y-70015016D01*
X172758928Y-70015016D02*
X172758928Y-70166206D01*
X172758928Y-70166206D02*
X172728690Y-70226682D01*
X172728690Y-70226682D02*
X172698452Y-70256921D01*
X172698452Y-70256921D02*
X172637976Y-70287159D01*
X172637976Y-70287159D02*
X172456547Y-70287159D01*
X172456547Y-70287159D02*
X172396071Y-70256921D01*
X172396071Y-70256921D02*
X172365833Y-70226682D01*
D11*
%TO.C,C5*%
X165308748Y-61895000D02*
X165831252Y-61895000D01*
X165308748Y-63365000D02*
X165831252Y-63365000D01*
%TO.C,R4*%
X162187258Y-74747500D02*
X161712742Y-74747500D01*
X162187258Y-75792500D02*
X161712742Y-75792500D01*
%TO.C,J7*%
D12*
X147860000Y-52580000D02*
X133760000Y-52580000D01*
X133760000Y-95760000D01*
X147860000Y-95760000D01*
X147860000Y-52580000D01*
D11*
%TO.C,R1*%
X176612742Y-91987500D02*
X177087258Y-91987500D01*
X176612742Y-93032500D02*
X177087258Y-93032500D01*
%TO.C,J9*%
X160385000Y-123580000D02*
X160385000Y-122200000D01*
X161765000Y-123580000D02*
X160385000Y-123580000D01*
X163035000Y-120820000D02*
X165685000Y-120820000D01*
X163035000Y-123580000D02*
X163035000Y-120820000D01*
X163035000Y-123580000D02*
X165685000Y-123580000D01*
X165685000Y-123580000D02*
X165685000Y-120820000D01*
D13*
%TO.C,K2*%
X151310000Y-78090000D02*
X170660000Y-78090000D01*
X151310000Y-93890000D02*
X151310000Y-78040000D01*
X151310000Y-93890000D02*
X170660000Y-93890000D01*
X154660000Y-85990000D02*
X164100000Y-85990000D01*
X164100000Y-85990000D02*
X167860000Y-83190000D01*
X167260000Y-81590000D02*
X167260000Y-83090000D01*
X167260000Y-90390000D02*
X167260000Y-88990000D01*
X170660000Y-93890000D02*
X170660000Y-78040000D01*
X155750479Y-89002615D02*
G75*
G02*
X156570000Y-91670000I-90479J-1487385D01*
G01*
X155820000Y-85990000D02*
G75*
G02*
X155720000Y-88990000I-50000J-1500000D01*
G01*
X155920000Y-82990000D02*
G75*
G02*
X155820000Y-85990000I-50000J-1500000D01*
G01*
X156593382Y-80129696D02*
G75*
G02*
X155920000Y-82990000I-633382J-1360304D01*
G01*
D14*
%TO.C,D5*%
X148150000Y-58970000D02*
X148150000Y-62630000D01*
X148470000Y-62630000D02*
X148150000Y-62630000D01*
X150850000Y-58970000D02*
X150850000Y-62630000D01*
X150850000Y-59910000D02*
X148150000Y-59910000D01*
X150850000Y-62630000D02*
X150530000Y-62630000D01*
D11*
%TO.C,R25*%
X191762742Y-110377500D02*
X192237258Y-110377500D01*
X191762742Y-111422500D02*
X192237258Y-111422500D01*
%TO.C,C22*%
X182449420Y-98930000D02*
X182730580Y-98930000D01*
X182449420Y-99950000D02*
X182730580Y-99950000D01*
%TO.C,J1*%
D12*
X147940000Y-109490000D02*
X133840000Y-109490000D01*
X133840000Y-122190000D01*
X147940000Y-122190000D01*
X147940000Y-109490000D01*
X147940000Y-109490000D02*
X133840000Y-109490000D01*
X133840000Y-122190000D01*
X147940000Y-122190000D01*
X147940000Y-109490000D01*
D11*
%TO.C,J6*%
X167430000Y-55160000D02*
X168180000Y-55160000D01*
X168180000Y-52210000D02*
X172480000Y-52210000D01*
X168180000Y-55160000D02*
X168180000Y-52210000D01*
X176580000Y-57710000D02*
X177830000Y-57710000D01*
X176780000Y-52210000D02*
X172480000Y-52210000D01*
X176780000Y-55160000D02*
X176780000Y-52210000D01*
X177530000Y-55160000D02*
X176780000Y-55160000D01*
X177830000Y-57710000D02*
X177830000Y-56460000D01*
X169230000Y-57410000D02*
X167430000Y-57410000D01*
X167430000Y-56660000D01*
X169230000Y-56660000D01*
X169230000Y-57410000D01*
X174230000Y-57410000D02*
X170730000Y-57410000D01*
X170730000Y-56660000D01*
X174230000Y-56660000D01*
X174230000Y-57410000D01*
X177530000Y-57410000D02*
X175730000Y-57410000D01*
X175730000Y-56660000D01*
X177530000Y-56660000D01*
X177530000Y-57410000D01*
X177540000Y-57420000D02*
X167420000Y-57420000D01*
X167420000Y-51450000D01*
X177540000Y-51450000D01*
X177540000Y-57420000D01*
%TO.C,R14*%
X187417500Y-90387258D02*
X187417500Y-89912742D01*
X188462500Y-90387258D02*
X188462500Y-89912742D01*
D13*
%TO.C,L1*%
X167540000Y-67770000D02*
X167540000Y-61770000D01*
X173540000Y-61770000D02*
X173540000Y-67770000D01*
D11*
%TO.C,R24*%
X193637742Y-99867500D02*
X194112258Y-99867500D01*
X193637742Y-100912500D02*
X194112258Y-100912500D01*
%TO.C,C18*%
X182454420Y-100440000D02*
X182735580Y-100440000D01*
X182454420Y-101460000D02*
X182735580Y-101460000D01*
%TO.C,R10*%
X185557500Y-82662742D02*
X185557500Y-83137258D01*
X186602500Y-82662742D02*
X186602500Y-83137258D01*
%TO.C,R15*%
X193637742Y-101387500D02*
X194112258Y-101387500D01*
X193637742Y-102432500D02*
X194112258Y-102432500D01*
%TO.C,C25*%
X182529420Y-114600000D02*
X182810580Y-114600000D01*
X182529420Y-115620000D02*
X182810580Y-115620000D01*
%TO.C,J2*%
X158520000Y-55160000D02*
X159270000Y-55160000D01*
X159270000Y-52210000D02*
X162320000Y-52210000D01*
X159270000Y-55160000D02*
X159270000Y-52210000D01*
X165170000Y-57710000D02*
X166420000Y-57710000D01*
X165370000Y-52210000D02*
X162320000Y-52210000D01*
X165370000Y-55160000D02*
X165370000Y-52210000D01*
X166120000Y-55160000D02*
X165370000Y-55160000D01*
X166420000Y-57710000D02*
X166420000Y-56460000D01*
X160320000Y-57410000D02*
X158520000Y-57410000D01*
X158520000Y-56660000D01*
X160320000Y-56660000D01*
X160320000Y-57410000D01*
X162820000Y-57410000D02*
X161820000Y-57410000D01*
X161820000Y-56660000D01*
X162820000Y-56660000D01*
X162820000Y-57410000D01*
X166120000Y-57410000D02*
X164320000Y-57410000D01*
X164320000Y-56660000D01*
X166120000Y-56660000D01*
X166120000Y-57410000D01*
X166130000Y-57420000D02*
X158510000Y-57420000D01*
X158510000Y-51450000D01*
X166130000Y-51450000D01*
X166130000Y-57420000D01*
%TO.C,R21*%
X189927500Y-102637258D02*
X189927500Y-102162742D01*
X190972500Y-102637258D02*
X190972500Y-102162742D01*
%TO.C,C7*%
X189309420Y-58600000D02*
X189590580Y-58600000D01*
X189309420Y-59620000D02*
X189590580Y-59620000D01*
%TO.C,R2*%
X177092258Y-90457500D02*
X176617742Y-90457500D01*
X177092258Y-91502500D02*
X176617742Y-91502500D01*
D14*
%TO.C,U4*%
X171660000Y-106120000D02*
X171830000Y-106120000D01*
X171660000Y-112480000D02*
X171660000Y-106120000D01*
X171830000Y-112480000D02*
X171660000Y-112480000D01*
X177850000Y-112480000D02*
X178020000Y-112480000D01*
X178020000Y-106120000D02*
X177850000Y-106120000D01*
X178020000Y-112480000D02*
X178020000Y-106120000D01*
D11*
%TO.C,C21*%
X182454420Y-103460000D02*
X182735580Y-103460000D01*
X182454420Y-104480000D02*
X182735580Y-104480000D01*
%TO.C,J8*%
D12*
X147890000Y-96250000D02*
X133790000Y-96250000D01*
X133790000Y-108950000D01*
X147890000Y-108950000D01*
X147890000Y-96250000D01*
X147890000Y-96250000D02*
X133790000Y-96250000D01*
X133790000Y-108950000D01*
X147890000Y-108950000D01*
X147890000Y-96250000D01*
D11*
%TO.C,C27*%
X182529420Y-113090000D02*
X182810580Y-113090000D01*
X182529420Y-114110000D02*
X182810580Y-114110000D01*
D13*
%TO.C,K1*%
X151330000Y-97500000D02*
X151330000Y-113350000D01*
X154730000Y-101000000D02*
X154730000Y-102400000D01*
X154730000Y-109800000D02*
X154730000Y-108300000D01*
X157890000Y-105400000D02*
X154130000Y-108200000D01*
X167330000Y-105400000D02*
X157890000Y-105400000D01*
X170680000Y-97500000D02*
X151330000Y-97500000D01*
X170680000Y-97500000D02*
X170680000Y-113350000D01*
X170680000Y-113300000D02*
X151330000Y-113300000D01*
X165396618Y-111260304D02*
G75*
G02*
X166070000Y-108400000I633382J1360304D01*
G01*
X166070000Y-108400000D02*
G75*
G02*
X166170000Y-105400000I50000J1500000D01*
G01*
X166170000Y-105400000D02*
G75*
G02*
X166270000Y-102400000I50000J1500000D01*
G01*
X166239521Y-102387385D02*
G75*
G02*
X165420000Y-99720000I90479J1487385D01*
G01*
D11*
%TO.C,C10*%
X185200000Y-59540580D02*
X185200000Y-59259420D01*
X186220000Y-59540580D02*
X186220000Y-59259420D01*
%TO.C,C6*%
X165709420Y-73110000D02*
X165990580Y-73110000D01*
X165709420Y-74130000D02*
X165990580Y-74130000D01*
%TO.C,C9*%
X178350000Y-113360580D02*
X178350000Y-113079420D01*
X179370000Y-113360580D02*
X179370000Y-113079420D01*
%TO.C,C8*%
X189309420Y-60090000D02*
X189590580Y-60090000D01*
X189309420Y-61110000D02*
X189590580Y-61110000D01*
D14*
%TO.C,D6*%
X186010000Y-91510000D02*
X184230000Y-91510000D01*
X186010000Y-94590000D02*
X184230000Y-94590000D01*
D15*
X186570000Y-94720000D02*
G75*
G02*
X186270000Y-94720000I-150000J0D01*
G01*
X186270000Y-94720000D02*
G75*
G02*
X186570000Y-94720000I150000J0D01*
G01*
D11*
%TO.C,C28*%
X182539420Y-110090000D02*
X182820580Y-110090000D01*
X182539420Y-111110000D02*
X182820580Y-111110000D01*
%TO.C,C14*%
X186950580Y-114500000D02*
X186669420Y-114500000D01*
X186950580Y-115520000D02*
X186669420Y-115520000D01*
%TO.C,R3*%
X161707742Y-73217500D02*
X162182258Y-73217500D01*
X161707742Y-74262500D02*
X162182258Y-74262500D01*
D14*
%TO.C,Q1*%
X154155000Y-66375000D02*
X160125000Y-66375000D01*
X154155000Y-73065000D02*
X160125000Y-73065000D01*
X160125000Y-73065000D02*
X160125000Y-66375000D01*
D11*
%TO.C,C4*%
X165318748Y-59915000D02*
X165841252Y-59915000D01*
X165318748Y-61385000D02*
X165841252Y-61385000D01*
%TO.C,R28*%
X162342742Y-119077500D02*
X162817258Y-119077500D01*
X162342742Y-120122500D02*
X162817258Y-120122500D01*
%TO.C,R6*%
X156527742Y-61972500D02*
X157002258Y-61972500D01*
X156527742Y-63017500D02*
X157002258Y-63017500D01*
D14*
%TO.C,Q3*%
X152445000Y-59795000D02*
X152445000Y-60835000D01*
X152445000Y-62855000D02*
X152445000Y-61815000D01*
X153905000Y-59795000D02*
X152445000Y-59795000D01*
X153905000Y-60865000D02*
X153905000Y-61785000D01*
X153905000Y-62855000D02*
X152445000Y-62855000D01*
D11*
%TO.C,R7*%
X164552500Y-71082742D02*
X164552500Y-71557258D01*
X165597500Y-71082742D02*
X165597500Y-71557258D01*
%TO.C,R11*%
X179207500Y-59972258D02*
X179207500Y-59497742D01*
X180252500Y-59972258D02*
X180252500Y-59497742D01*
D14*
%TO.C,S2*%
X190610000Y-84450000D02*
X190610000Y-84880000D01*
X190610000Y-87530000D02*
X190610000Y-87100000D01*
X194670000Y-84450000D02*
X190610000Y-84450000D01*
X194670000Y-84450000D02*
X194670000Y-84880000D01*
X194670000Y-87100000D02*
X194670000Y-87530000D01*
X194670000Y-87530000D02*
X190610000Y-87530000D01*
D13*
X193540000Y-85990000D02*
G75*
G02*
X191740000Y-85990000I-900000J0D01*
G01*
X191740000Y-85990000D02*
G75*
G02*
X193540000Y-85990000I900000J0D01*
G01*
D11*
%TO.C,C16*%
X186960580Y-117510000D02*
X186679420Y-117510000D01*
X186960580Y-118530000D02*
X186679420Y-118530000D01*
%TO.C,C11*%
X186700000Y-59259420D02*
X186700000Y-59540580D01*
X187720000Y-59259420D02*
X187720000Y-59540580D01*
%TO.C,C23*%
X187280580Y-102880000D02*
X186999420Y-102880000D01*
X187280580Y-103900000D02*
X186999420Y-103900000D01*
D14*
%TO.C,D1*%
X159360000Y-113700000D02*
X159360000Y-114050000D01*
X159360000Y-116330000D02*
X159360000Y-115980000D01*
X162600000Y-116420000D02*
X162600000Y-113700000D01*
X164020000Y-113700000D02*
X159360000Y-113700000D01*
X164050000Y-116420000D02*
X159360000Y-116410000D01*
D11*
%TO.C,C20*%
X182454420Y-104970000D02*
X182735580Y-104970000D01*
X182454420Y-105990000D02*
X182735580Y-105990000D01*
%TO.C,R12*%
X177697500Y-59967258D02*
X177697500Y-59492742D01*
X178742500Y-59967258D02*
X178742500Y-59492742D01*
%TO.C,C24*%
X187280580Y-101360000D02*
X186999420Y-101360000D01*
X187280580Y-102380000D02*
X186999420Y-102380000D01*
D14*
%TO.C,U3*%
X184900000Y-106710000D02*
X185010000Y-106710000D01*
X184900000Y-107030000D02*
X184900000Y-106710000D01*
X184900000Y-110710000D02*
X184900000Y-110390000D01*
X185010000Y-110710000D02*
X184920000Y-110710000D01*
X188780000Y-106710000D02*
X188890000Y-106710000D01*
X188890000Y-106710000D02*
X188890000Y-106980000D01*
X188890000Y-110440000D02*
X188890000Y-110710000D01*
X188890000Y-110710000D02*
X188780000Y-110710000D01*
D16*
X185060000Y-111320000D02*
G75*
G02*
X184800000Y-111320000I-130000J0D01*
G01*
X184800000Y-111320000D02*
G75*
G02*
X185060000Y-111320000I130000J0D01*
G01*
D11*
%TO.C,R9*%
X168642742Y-74597500D02*
X169117258Y-74597500D01*
X168642742Y-75642500D02*
X169117258Y-75642500D01*
%TO.C,R18*%
X190637742Y-105707500D02*
X191112258Y-105707500D01*
X190637742Y-106752500D02*
X191112258Y-106752500D01*
%TO.C,R22*%
X191762742Y-107397500D02*
X192237258Y-107397500D01*
X191762742Y-108442500D02*
X192237258Y-108442500D01*
%TO.C,J4*%
X166390000Y-117255000D02*
X166390000Y-118505000D01*
X166690000Y-119805000D02*
X167440000Y-119805000D01*
X167440000Y-119805000D02*
X167440000Y-122755000D01*
X167440000Y-122755000D02*
X170490000Y-122755000D01*
X167640000Y-117255000D02*
X166390000Y-117255000D01*
X173540000Y-119805000D02*
X173540000Y-122755000D01*
X173540000Y-122755000D02*
X170490000Y-122755000D01*
X174290000Y-119805000D02*
X173540000Y-119805000D01*
X166680000Y-117545000D02*
X174300000Y-117545000D01*
X174300000Y-123515000D01*
X166680000Y-123515000D01*
X166680000Y-117545000D01*
X166690000Y-117555000D02*
X168490000Y-117555000D01*
X168490000Y-118305000D01*
X166690000Y-118305000D01*
X166690000Y-117555000D01*
X169990000Y-117555000D02*
X170990000Y-117555000D01*
X170990000Y-118305000D01*
X169990000Y-118305000D01*
X169990000Y-117555000D01*
X172490000Y-117555000D02*
X174290000Y-117555000D01*
X174290000Y-118305000D01*
X172490000Y-118305000D01*
X172490000Y-117555000D01*
%TO.C,R13*%
X183697500Y-59162742D02*
X183697500Y-59637258D01*
X184742500Y-59162742D02*
X184742500Y-59637258D01*
%TO.C,C1*%
X165900580Y-66920000D02*
X165619420Y-66920000D01*
X165900580Y-67940000D02*
X165619420Y-67940000D01*
%TO.C,R5*%
X157002258Y-63482500D02*
X156527742Y-63482500D01*
X157002258Y-64527500D02*
X156527742Y-64527500D01*
D14*
%TO.C,Q2*%
X172590000Y-90130000D02*
X172590000Y-91170000D01*
X172590000Y-93190000D02*
X172590000Y-92150000D01*
X174050000Y-90130000D02*
X172590000Y-90130000D01*
X174050000Y-91200000D02*
X174050000Y-92120000D01*
X174050000Y-93190000D02*
X172590000Y-93190000D01*
D11*
%TO.C,R20*%
X187417500Y-95092742D02*
X187417500Y-95567258D01*
X188462500Y-95092742D02*
X188462500Y-95567258D01*
D14*
%TO.C,D2*%
X159250000Y-94300000D02*
X159250000Y-94650000D01*
X159250000Y-96930000D02*
X159250000Y-96580000D01*
X162490000Y-97020000D02*
X162490000Y-94300000D01*
X163910000Y-94300000D02*
X159250000Y-94300000D01*
X163940000Y-97020000D02*
X159250000Y-97010000D01*
%TO.C,D3*%
X148250000Y-66570000D02*
X148250000Y-70230000D01*
X148570000Y-70230000D02*
X148250000Y-70230000D01*
X150950000Y-66570000D02*
X150950000Y-70230000D01*
X150950000Y-67510000D02*
X148250000Y-67510000D01*
X150950000Y-70230000D02*
X150630000Y-70230000D01*
D11*
%TO.C,J5*%
X178640000Y-55170000D02*
X179390000Y-55170000D01*
X179390000Y-52220000D02*
X183690000Y-52220000D01*
X179390000Y-55170000D02*
X179390000Y-52220000D01*
X187790000Y-57720000D02*
X189040000Y-57720000D01*
X187990000Y-52220000D02*
X183690000Y-52220000D01*
X187990000Y-55170000D02*
X187990000Y-52220000D01*
X188740000Y-55170000D02*
X187990000Y-55170000D01*
X189040000Y-57720000D02*
X189040000Y-56470000D01*
X180440000Y-57420000D02*
X178640000Y-57420000D01*
X178640000Y-56670000D01*
X180440000Y-56670000D01*
X180440000Y-57420000D01*
X185440000Y-57420000D02*
X181940000Y-57420000D01*
X181940000Y-56670000D01*
X185440000Y-56670000D01*
X185440000Y-57420000D01*
X188740000Y-57420000D02*
X186940000Y-57420000D01*
X186940000Y-56670000D01*
X188740000Y-56670000D01*
X188740000Y-57420000D01*
X188750000Y-57430000D02*
X178630000Y-57430000D01*
X178630000Y-51460000D01*
X188750000Y-51460000D01*
X188750000Y-57430000D01*
D14*
%TO.C,S1*%
X190600000Y-80890000D02*
X190600000Y-81320000D01*
X190600000Y-83970000D02*
X190600000Y-83540000D01*
X194660000Y-80890000D02*
X190600000Y-80890000D01*
X194660000Y-80890000D02*
X194660000Y-81320000D01*
X194660000Y-83540000D02*
X194660000Y-83970000D01*
X194660000Y-83970000D02*
X190600000Y-83970000D01*
D13*
X193530000Y-82430000D02*
G75*
G02*
X191730000Y-82430000I-900000J0D01*
G01*
X191730000Y-82430000D02*
G75*
G02*
X193530000Y-82430000I900000J0D01*
G01*
D11*
%TO.C,C12*%
X178370000Y-105119420D02*
X178370000Y-105400580D01*
X179390000Y-105119420D02*
X179390000Y-105400580D01*
%TO.C,R8*%
X165607742Y-74607500D02*
X166082258Y-74607500D01*
X165607742Y-75652500D02*
X166082258Y-75652500D01*
%TO.C,C29*%
X188580000Y-114375580D02*
X188580000Y-114094420D01*
X189600000Y-114375580D02*
X189600000Y-114094420D01*
%TO.C,R23*%
X191762742Y-108907500D02*
X192237258Y-108907500D01*
X191762742Y-109952500D02*
X192237258Y-109952500D01*
%TO.C,C13*%
X186950580Y-112990000D02*
X186669420Y-112990000D01*
X186950580Y-114010000D02*
X186669420Y-114010000D01*
%TO.C,R17*%
X193627742Y-104217500D02*
X194102258Y-104217500D01*
X193627742Y-105262500D02*
X194102258Y-105262500D01*
%TO.C,R19*%
X193642742Y-105707500D02*
X194117258Y-105707500D01*
X193642742Y-106752500D02*
X194117258Y-106752500D01*
D17*
%TO.C,U1*%
X176200000Y-62400000D02*
X176200000Y-80410000D01*
X176200000Y-80410000D02*
X176450000Y-80410000D01*
X176450000Y-62400000D02*
X176200000Y-62400000D01*
X177760000Y-80410000D02*
X177950000Y-80410000D01*
X177950000Y-62400000D02*
X177760000Y-62400000D01*
X179260000Y-80410000D02*
X179450000Y-80410000D01*
X179450000Y-62400000D02*
X179260000Y-62400000D01*
X180760000Y-80410000D02*
X180950000Y-80410000D01*
X180950000Y-62400000D02*
X180760000Y-62400000D01*
X182260000Y-80410000D02*
X182450000Y-80410000D01*
X182450000Y-62400000D02*
X182260000Y-62400000D01*
X183760000Y-80410000D02*
X183950000Y-80410000D01*
X183950000Y-62400000D02*
X183760000Y-62400000D01*
X185260000Y-80410000D02*
X185450000Y-80410000D01*
X185450000Y-62400000D02*
X185260000Y-62400000D01*
X186760000Y-80410000D02*
X186950000Y-80410000D01*
X186950000Y-62400000D02*
X186760000Y-62400000D01*
X188260000Y-80410000D02*
X188450000Y-80410000D01*
X188450000Y-62400000D02*
X188260000Y-62400000D01*
X189760000Y-80410000D02*
X196200000Y-80410000D01*
X190200000Y-62400000D02*
X190200000Y-80410000D01*
X196200000Y-62400000D02*
X189760000Y-62400000D01*
X196200000Y-80410000D02*
X196200000Y-62400000D01*
D18*
X190720000Y-61620000D02*
G75*
G02*
X190220000Y-61620000I-250000J0D01*
G01*
X190220000Y-61620000D02*
G75*
G02*
X190720000Y-61620000I250000J0D01*
G01*
D14*
%TO.C,D4*%
X148200000Y-76360000D02*
X148200000Y-80020000D01*
X148520000Y-80020000D02*
X148200000Y-80020000D01*
X150900000Y-76360000D02*
X150900000Y-80020000D01*
X150900000Y-77300000D02*
X148200000Y-77300000D01*
X150900000Y-80020000D02*
X150580000Y-80020000D01*
D11*
%TO.C,C30*%
X184360000Y-103950580D02*
X184360000Y-103669420D01*
X185380000Y-103950580D02*
X185380000Y-103669420D01*
%TO.C,C26*%
X182529420Y-111580000D02*
X182810580Y-111580000D01*
X182529420Y-112600000D02*
X182810580Y-112600000D01*
D13*
%TO.C,J3*%
X193337500Y-88410000D02*
X191347500Y-88410000D01*
X193337500Y-97480000D02*
X191347500Y-97480000D01*
D11*
%TO.C,C19*%
X182449420Y-101950000D02*
X182730580Y-101950000D01*
X182449420Y-102970000D02*
X182730580Y-102970000D01*
%TO.C,C15*%
X186955580Y-116000000D02*
X186674420Y-116000000D01*
X186955580Y-117020000D02*
X186674420Y-117020000D01*
%TO.C,C17*%
X182454420Y-106490000D02*
X182735580Y-106490000D01*
X182454420Y-107510000D02*
X182735580Y-107510000D01*
D14*
%TO.C,U2*%
X166395000Y-69250000D02*
X166395000Y-71030000D01*
X169475000Y-69250000D02*
X169475000Y-71030000D01*
D15*
X169755000Y-68840000D02*
G75*
G02*
X169455000Y-68840000I-150000J0D01*
G01*
X169455000Y-68840000D02*
G75*
G02*
X169755000Y-68840000I150000J0D01*
G01*
D11*
%TO.C,R16*%
X190637742Y-104227500D02*
X191112258Y-104227500D01*
X190637742Y-105272500D02*
X191112258Y-105272500D01*
%TO.C,R26*%
X148277500Y-91837258D02*
X148277500Y-91362742D01*
X149322500Y-91837258D02*
X149322500Y-91362742D01*
%TO.C,C2*%
X165900580Y-65440000D02*
X165619420Y-65440000D01*
X165900580Y-66460000D02*
X165619420Y-66460000D01*
%TO.C,R27*%
X173727742Y-58137500D02*
X174202258Y-58137500D01*
X173727742Y-59182500D02*
X174202258Y-59182500D01*
%TO.C,C3*%
X170285000Y-70140580D02*
X170285000Y-69859420D01*
X171305000Y-70140580D02*
X171305000Y-69859420D01*
%TD*%
M02*
